<svg version="1.2" xmlns="http://www.w3.org/2000/svg" viewBox="0 0 743 731" width="743" height="731"><style>.a{fill:#f2f5f9}.b{fill:#1e3b7b}.c{fill:#1d3b7b}.d{fill:#1d3a7a}.e{fill:#101f4a}.f{fill:#12214a}.g{fill:#12204b}.h{fill:#172552}.i{fill:#1a274a}.j{fill:#13265c}.k{fill:#12265e}.l{fill:#0c265c}.m{fill:#041841}.n{fill:#132657}.o{fill:#1e2948}.p{fill:#10214c}.q{fill:#172b62}.r{fill:#0c245e}.s{fill:#061138}.t{fill:#112666}.u{fill:#132555}.v{fill:#142040}.w{fill:#122451}.x{fill:#0e1d46}.y{fill:#17264d}.z{fill:#babac2}.A{fill:#0a183e}.B{fill:#dedee2}.C{fill:#0e1634}.D{fill:#0d1f50}.E{fill:#132b64}.F{fill:#07235f}.G{fill:#dbdbe1}.H{fill:#09235e}.I{fill:#12204a}.J{fill:#0c1632}.K{fill:#10265f}.L{fill:#171d33}.M{fill:#0b1f54}.N{fill:#131f3f}.O{fill:#162249}.P{fill:#0d2457}.Q{fill:#a8a5ab}.R{fill:#0c2056}.S{fill:#112359}.T{fill:#071747}.U{fill:#14285c}.V{fill:#14234c}.W{fill:#0e2458}.X{fill:#142761}.Y{fill:#162241}.Z{fill:#0f183c}.a0{fill:#061234}.a1{fill:#0c2562}.a2{fill:#092665}.a3{fill:#131936}.a4{fill:#0f2353}.a5{fill:#121e44}.a6{fill:#0e1b3c}.a7{fill:#0e183b}.a8{fill:#0f1b39}.a9{fill:#141f35}.aa{fill:#10193c}.ab{fill:#102151}.ac{fill:#0c193c}.ad{fill:#0d173b}.ae{fill:#14295d}.af{fill:#0d193e}.ag{fill:#12255a}.ah{fill:#07225c}.ai{fill:#102354}.aj{fill:#0c183a}.ak{fill:#13204b}.al{fill:#162041}.am{fill:#0b1436}.an{fill:#14244f}.ao{fill:#0f1e46}.ap{fill:#142555}.aq{fill:#152553}.ar{fill:#141f48}.as{fill:#132456}.at{fill:#1a1f3c}.au{fill:#0c2156}.av{fill:#111d3f}.aw{fill:#151e41}.ax{fill:#0b2359}.ay{fill:#131e3b}.az{fill:#0e1843}.aA{fill:#1a2448}.aB{fill:#121d47}.aC{fill:#0e1b3e}.aD{fill:#182b5b}.aE{fill:#0f295f}.aF{fill:#0d193b}.aG{fill:#111c3c}.aH{fill:#0d183a}.aI{fill:#0e1e46}.aJ{fill:#0a2058}.aK{fill:#1d2753}.aL{fill:#122458}.aM{fill:#10172f}.aN{fill:#0e193a}.aO{fill:#092150}.aP{fill:#1b2951}.aQ{fill:#132556}.aR{fill:#0f2458}.aS{fill:#121d41}.aT{fill:#0e1d41}.aU{fill:#111839}.aV{fill:#0f2159}.aW{fill:#132660}.aX{fill:#0c2258}.aY{fill:#122659}.aZ{fill:#111a3a}.b0{fill:#0f1e4a}.b1{fill:#131b3c}.b2{fill:#11295e}.b3{fill:#102557}.b4{fill:#111d4d}.b5{fill:#121f48}.b6{fill:#081b56}.b7{fill:#0e183e}.b8{fill:#0e193e}.b9{fill:#1b2a50}.ba{fill:#081334}.bb{fill:#091d56}.bc{fill:#0e2256}.bd{fill:#192549}.be{fill:#0b2157}.bf{fill:#102456}.bg{fill:#0c2761}.bh{fill:#111834}.bi{fill:#0d235e}.bj{fill:#12295f}.bk{fill:#0b1a3f}.bl{fill:#0b1f56}.bm{fill:#1d2d57}.bn{fill:#111d43}.bo{fill:#10265e}.bp{fill:#1e2f57}.bq{fill:#0f1a35}.br{fill:#0a235c}.bs{fill:#172956}.bt{fill:#0e275e}.bu{fill:#0d1535}.bv{fill:#14255a}.bw{fill:#cbc9cc}.bx{fill:#0d1734}.by{fill:#121836}.bz{fill:#10295e}</style><path class="a" d="m-166-147c355.1 0 710.2 0 1076 0 0 319.4 0 638.9 0 968-355.1 0-710.2 0-1076 0 0-319.4 0-638.9 0-968zm74.4 101.9q-1.2 1.5-2.4 3.1-1 0.9-2.1 1.9c-6.2 7-6.1 17-6 25.9q0 1.4 0 2.9 0 3.1 0 6.2 0 4.6 0 9.1c0 9.8 0.1 19.6 0.4 29.4 0.9 26.5 0.8 53 0.8 79.6q0 10.7 0 21.4 0 21 0 42 0 18.3 0 36.6 0 1.2 0 2.5 0 5 0 9.9 0 46.4 0 92.9 0 41.1 0 82.3 0 46.4 0 92.8 0 4.9 0 9.9 0 1.2 0 2.4 0 18.3 0 36.7 0 20.8 0 41.7 0 11.6 0 23.2 0 8.8 0 17.5 0 3.5 0 7c0 12.3-0.1 24.5-0.9 36.8-0.4 7.3-0.4 14.6-0.4 21.9q0 1.1-0.1 2.3 0 6.1 0 12.2 0 6.2-0.1 12.4 0 4.9 0 9.7 0 2.3-0.1 4.6c-0.1 14.8 2.2 26.8 12.7 37.6 4 2.5 8.3 3.5 12.8 4.7q0.9 0.3 1.8 0.5c2.8 0.6 5.5 0.6 8.5 0.6q1.9 0 3.9 0 2.2 0 4.4 0 2.3 0 4.6 0 6.4 0 12.8 0 7 0 13.9 0 12.2 0 24.4 0 18.1 0 36.2 0.1 34.3 0 68.6 0 26.4 0 52.9 0 7.6 0 15.2 0 1.9 0 3.8 0 53.2 0 106.4 0 2 0 4.1 0 9.1 0 18.3 0 4.1 0 8.1 0 2.1 0 4.1 0 64.6 0 129.2 0 16.3 0 32.6 0 1 0 2 0 54.1 0 108.2 0 7.6 0 15.2 0 1.9 0 3.8 0 30.2 0 60.4 0 30.3 0.1 60.6 0 18.1 0 36.1 0.1 12 0 24.1 0 6.8-0.1 13.7 0 6.2 0 12.5 0 2.2-0.1 4.5 0c12.9 0 25.1-0.3 34.9-9.7 5-5.2 6.8-9.9 7.4-17q0.1-1.3 0.2-2.6c1-12.6 0.9-25.3 0.9-37.9q0-5.9 0-11.7 0-10.2 0-20.4 0-15.2 0-30.4 0-27.1 0-54.2 0-23.8 0-47.5 0-1.6 0-3.2 0-6.4 0-12.8 0-59.9 0-119.9-0.1-53.2 0-106.5 0-59.9 0-119.7 0-6.4 0-12.8 0-1.5 0-3.2 0-23.7 0-47.4 0-27 0-53.9 0-15.1 0-30.2 0-10.1 0-20.1 0-5.8 0-11.5 0-6.2 0-12.4 0-1.8 0-3.6c-0.1-12.9-1.3-23.5-9.9-33.5-8.4-8.3-20.9-7.6-31.9-7.6q-2.3 0-4.7 0-6.4 0-12.8 0-7 0-14 0-12.2 0-24.4 0-18.2 0-36.4 0-32.5 0-65 0-28.4 0-56.8 0-1.9 0-3.8 0-7.7 0-15.3 0-53.4 0-106.8 0c-1 0-1 0-2 0q-16.4 0-32.7 0-64.8 0-129.6 0-16.4 0-32.7 0-1 0-2 0-54.3 0-108.6 0-7.7 0-15.3 0-1.9 0-3.8 0-28.4 0-56.8 0-32.3 0-64.6 0-18.1 0-36.2 0-12 0-24.1 0-6.9 0-13.8 0-6.2 0-12.5 0-2.2 0-4.5 0c-11.4 0-23.8 0.1-31.9 9.3z"/><path class="b" d="m364 315q48.1 0 96.3-0.1 5.6 0 11.3 0 1.1 0 2.3 0 18.3 0 36.6 0 18.8 0 37.6 0 11.6 0 23.2 0 8.9 0 17.8 0 3.6 0 7.3 0 4.9 0 9.9 0 1.5 0 3 0c1.3 0 1.3 0 2.6 0q1.2 0 2.4 0c1.7 0.1 1.7 0.1 2.7 1.1q0.1 2.1 0.1 4.1 0 1.4 0 2.7c0 1.5 0 1.5 0 3q0 1.6 0 3.2 0 5.2 0 10.5-0.1 5.6-0.1 11.2 0 4 0 8 0 14.2 0 28.5 0.1 18.4 0.1 36.9-0.1 10.5 0 21.1 0.1 9.4 0 18.8 0 5 0 9.9 0.1 5.4 0 10.8c0 1.6 0 1.6 0.1 3.2-0.2 7.1-0.2 7.1-3.2 10.1-2.2 1.5-4.5 2.8-7 4q-1.7 1-3.4 2.1c-1.7 0.9-1.7 0.9-3.3 1.9q-0.9 0.5-1.8 1-2.8 1.7-5.6 3.3-3.7 2.2-7.4 4.3-0.9 0.5-1.9 1.1-7.5 4.4-15 8.9-6.5 3.9-13.1 7.8-0.9 0.6-1.9 1.2-1.9 1.1-3.8 2.2c-10.5 6.2-20.9 12.5-31.3 18.8q-15.5 9.5-31.2 18.4-13.5 7.7-26.8 15.8-0.9 0.5-1.8 1-4.3 2.7-8.6 5.3c-12.8 7.8-25.7 15.4-38.7 22.9-12.6 7.2-25.1 14.7-37.5 22.2q-1.4 0.9-2.9 1.8c-1.3 0.9-1.3 0.9-2.7 1.8-2.3 1.2-2.3 1.2-5.2 0.6-3.3-1.5-6.5-3.1-9.7-5q-1-0.5-2.1-1.1c-7.6-4.4-15-9-22.5-13.5-10.6-6.5-21.4-12.8-32.2-19-19.2-11-38.2-22.3-57.1-33.9-8.1-4.9-16.3-9.8-24.4-14.6q-2.8-1.7-5.6-3.4c-7.8-4.7-15.6-9.3-23.5-13.9-21-12.3-41.9-24.9-62.7-37.6q-2.5-1.5-5.1-2.9-1.1-0.7-2.2-1.5 0-1.5 0-3c2-1.6 2-1.6 4.8-3.4q1.5-0.9 3.1-1.9c1.7-1.1 1.7-1.1 3.4-2.1q1.7-1.1 3.5-2.2 3.4-2.2 6.9-4.4 5.4-3.3 10.8-6.8c9.2-5.8 18.4-11.5 27.6-17.2q4.5-2.7 8.9-5.6 0.9-0.6 1.8-1.2 2.3-1.5 4.6-3c3.2-1.5 4.3-1.1 7.6-0.2 2.2 1 2.2 1 4.4 2.2q1.3 0.7 2.6 1.4 1.4 0.7 2.8 1.5 1.4 0.8 2.9 1.6c11.6 6.5 22.9 13.4 34.3 20.3 10.1 6.1 20.4 12.1 30.6 18 9.2 5.3 18.2 10.6 27.3 16 8.8 5.2 17.7 10.4 26.6 15.5 5.4 3.1 10.8 6.3 16.1 9.6q1.5 1 3.2 2 2.9 1.9 5.9 3.8 1.3 0.8 2.7 1.7 1.1 0.7 2.3 1.5c2.9 1.2 4.3 0.9 7.3-0.1 2.2-1 2.2-1 4.3-2.3q1.3-0.8 2.5-1.5 1.4-0.9 2.8-1.7 1.4-0.9 2.9-1.7c8.3-5 16.5-10.1 24.8-15.1q13.9-8.5 27.9-16.6 0.9-0.6 1.9-1.1 7.2-4.3 14.5-8.5 13.5-7.9 26.8-16.2c8.8-5.5 17.7-10.8 26.6-16.2q3.3-2 6.6-4.1 3.6-2.1 7.1-4.2 1.8-1.1 3.6-2.2 1.6-0.9 3.2-1.9c2.6-1.5 2.6-1.5 3.5-3.7 0.3-13.9 0.7-27.7 1-42-54.1 0-108.2 0-164 0 0-29 0-58.1 0-88z"/><path class="c" d="m365.4 74c4 1.1 7.3 2.8 10.8 5q1.1 0.6 2.1 1.3 3.9 2.3 7.7 4.7 5.8 3.6 11.6 7.1 1.8 1.1 3.6 2.2c9.8 5.9 19.6 11.7 29.6 17.4 10.6 6.1 21.1 12.4 31.6 18.7q16.8 10.2 33.8 20 11.8 6.7 23.5 13.7c7 4.2 14.1 8.3 21.2 12.3 9.5 5.5 18.9 11.1 28.2 16.8 11.8 7.2 11.8 7.2 23.9 13.8-1.3 3.2-2.5 4.6-5.5 6.3q-1.1 0.6-2.2 1.2-1.2 0.7-2.4 1.4-2.6 1.5-5.3 2.9-1.3 0.8-2.8 1.6c-4.7 2.7-9.4 5.5-14.2 8.2q-3 1.8-6 3.6-10.1 5.8-20.1 11.7-1.8 1.1-3.7 2.2-1.8 1-3.6 2.1-2.5 1.5-5.1 2.9-3 1.8-6 3.8c-6.3 4.1-6.3 4.1-10.3 4.2-3.3-1.3-6.2-3-9.2-5-8.1-5.2-16.4-10.2-24.8-15.2q-1-0.6-2.1-1.2-16.9-10-33.9-20-10.8-6.3-21.4-12.7-5.7-3.4-11.4-6.7c-9.9-5.8-19.8-11.8-29.6-17.8-1.2-0.8-1.2-0.8-2.4-1.5q-1.3-0.8-2.6-1.7c-2.4-1.6-2.4-1.6-5.3-0.7-3.2 1.4-6.2 3-9.2 4.8-0.9 0.5-0.9 0.5-1.8 1-8.8 5.1-17.4 10.4-26.1 15.6-13.4 8.1-26.8 16.1-40.3 23.9q-10.9 6.4-21.6 12.8-14.6 8.8-29.3 17.3-1.4 0.8-2.7 1.6-2.6 1.4-5.1 2.9-1.2 0.7-2.3 1.3-1.1 0.6-2.1 1.2c-1.6 0.9-1.6 0.9-2.6 2q-0.2 2.6-0.2 5.3 0 1.6-0.1 3.4 0 1.8 0 3.6 0 1.9-0.1 3.8-0.1 5-0.1 9.9-0.1 5.1-0.2 10.1-0.2 10-0.3 19.9-1.3-0.7-2.6-1.5-12.4-7.1-24.8-13.9c-8.3-4.6-16.6-9.3-24.7-14.2-5.2-3.2-10.4-6.2-15.6-9.3q-1.6-0.9-3.2-1.8-7.3-4.3-14.7-8.5-1.2-0.7-2.6-1.5-2.3-1.3-4.7-2.7c-1.1-0.6-1.1-0.6-2.2-1.2-0.9-0.5-0.9-0.5-1.9-1-7.7-5.2-7.7-5.2-8.9-9.8-0.2-3.4-0.3-6.8-0.3-10.2 0-2.1-0.2-4.3-0.3-6.5-0.2-4.3 0.1-7.7 1.5-11.9 3.6-3.6 7.4-5.7 12-8 2.7-1.3 5.2-2.9 7.8-4.5q3-1.8 6-3.5c14.5-8.6 14.5-8.6 28.9-17.4 6.7-4.3 13.5-8.2 20.4-12.1 8-4.5 15.8-9.3 23.6-14.1 11.5-7.1 23.1-13.9 34.8-20.6 9.8-5.6 19.6-11.4 29.3-17.4q14.5-8.8 29.2-17.2 9.4-5.4 18.6-11.1 5.3-3.3 10.6-6.5c0.9-0.5 0.9-0.5 1.8-1.1q3.6-2.2 7.3-4.4 2.7-1.6 5.4-3.3 1.6-0.9 3.3-1.9 3.1-2 6.2-4.1c2.8-1.8 2.8-1.8 6.2-1.8z"/><path class="d" d="m201 326c4.2 1.9 8.1 4.1 12 6.4q1.7 1 3.4 2c6.6 3.8 13.2 7.7 19.7 11.8 18.9 12.1 38.5 23 57.9 34.3 18.8 10.9 37.6 21.8 55.8 33.6q1.1 0.7 2.1 1.4 0.9 0.6 1.8 1.2c1.2 0.6 1.2 0.6 2.3 1.3q1.6 1 3.3 2c6 3 12.2 2.6 18.8 2.5q2.2 0.1 4.3 0.1 5.7 0 11.5 0 6 0 12 0.1 11.4 0 22.8 0 13 0.1 26 0.1 26.6 0.1 53.3 0.2 0.1 2.7 0.1 5.3 0.1 1.5 0.1 3c-0.2 2.7-0.2 2.7-2.3 5.6-3.2 2.3-6.5 4.6-9.9 6.7q-1 0.6-2.1 1.3c-6.4 3.9-13 7.6-19.6 11.3-6.7 3.8-13.3 7.9-19.9 12.1-9.6 6-19.3 11.8-29 17.6q-11.6 6.8-23 13.8-2.7 1.6-5.4 3.2-8 4.9-16 9.9-1.4 0.8-2.8 1.7-2.5 1.6-5 3.2c-3.2 2-5.4 3.3-9.2 3.4-4.4-1.6-8.3-3.8-12.3-6.2q-1.4-0.8-2.8-1.6c-8.1-4.8-16.2-9.7-24.2-14.5-10.8-6.5-21.6-12.7-32.5-19-15.6-8.9-31-18-46.5-27.2q-6.8-4-13.7-8.1-8.1-4.8-16.3-9.6-16.5-9.8-33.1-19.5-13.1-7.7-26.2-15.4-8-4.8-16.1-9.5-1-0.6-2-1.2-4.9-2.9-9.8-5.7-1.8-1.1-3.6-2.1-1.6-1-3.2-1.9-2.9-1.7-5.7-3.6c1.5-4.3 4.2-5.5 8.2-7.6 5.2-2.8 10.1-5.8 15-9.2 12.6-8.5 25.6-16.6 38.7-24.5 4.5-2.7 8.9-5.5 13-8.9 3.5-1.4 6.6-0.8 10.1 0.2z"/><path class="e" d="m364 315q48.1 0 96.3-0.1 5.6 0 11.3 0 1.1 0 2.3 0 18.3 0 36.6 0 18.8 0 37.6 0 11.6 0 23.2 0 8.9 0 17.8 0 3.6 0 7.3 0 4.9 0 9.9 0 1.5 0 3 0c1.3 0 1.3 0 2.6 0q1.2 0 2.4 0c1.7 0.1 1.7 0.1 2.7 1.1q0.1 2.1 0.1 4.1 0 1.4 0 2.7c0 1.5 0 1.5 0 3q0 1.6 0 3.2 0 5.2 0 10.5-0.1 5.6-0.1 11.2 0 4 0 8 0 14.2 0 28.5 0.1 18.4 0.1 36.9-0.1 10.5 0 21.1 0.1 9.4 0 18.8 0 5 0 9.9 0.1 5.4 0 10.8c0 1.6 0 1.6 0.1 3.2-0.2 7.1-0.2 7.1-3.2 10.1-2.2 1.5-4.5 2.8-7 4q-1.7 1-3.4 2.1c-1.7 0.9-1.7 0.9-3.3 1.9q-0.9 0.5-1.8 1-2.8 1.7-5.6 3.3-3.7 2.2-7.4 4.3-0.9 0.5-1.9 1.1-7.5 4.4-15 8.9-6.5 3.9-13.1 7.8-0.9 0.6-1.9 1.2-1.9 1.1-3.8 2.2c-10.5 6.2-20.9 12.5-31.3 18.8q-15.5 9.5-31.2 18.4-13.5 7.7-26.8 15.8-0.9 0.5-1.8 1-4.3 2.7-8.6 5.3c-12.8 7.8-25.7 15.4-38.7 22.9-12.6 7.2-25.1 14.7-37.5 22.2q-1.4 0.9-2.9 1.8c-1.3 0.9-1.3 0.9-2.7 1.8-2.3 1.2-2.3 1.2-5.2 0.6-3.3-1.5-6.5-3.1-9.7-5q-1-0.5-2.1-1.1c-7.6-4.4-15-9-22.5-13.5-10.6-6.5-21.4-12.8-32.2-19-19.2-11-38.2-22.3-57.1-33.9-8.1-4.9-16.3-9.8-24.4-14.6q-2.8-1.7-5.6-3.4c-7.8-4.7-15.6-9.3-23.5-13.9-21-12.3-41.9-24.9-62.7-37.6q-2.5-1.5-5.1-2.9-1.1-0.7-2.2-1.5 0-1.5 0-3c2-1.6 2-1.6 4.8-3.4q1.5-0.9 3.1-1.9c1.7-1.1 1.7-1.1 3.4-2.1q1.7-1.1 3.5-2.2 3.4-2.2 6.9-4.4 5.4-3.3 10.8-6.8c9.2-5.8 18.4-11.5 27.6-17.2q4.5-2.7 8.9-5.6 0.9-0.6 1.8-1.2 2.3-1.5 4.6-3c3.1-1.4 4.4-1.3 7.6-0.2 2.3 2.1 2.3 2.1 4 4-3 1-3 1-5.2 0.1q-0.9-0.6-1.8-1.1-1.5 1-3 2c-1.2 0.4-1.2 0.4-2.4 0.9-3 1.3-5.1 3-7.6 5.1-4.9 3.7-9.9 6.7-15.4 9.5-2.7 1.5-4.5 3.3-6.6 5.5-4 1.9-7.6 3.3-12 4q0 1 0 2c-2.6 1.5-3.9 2-7 2q0 1 0 2c-1.6 1.1-3.3 2-5 3-7.3 4.2-7.3 4.2-12 11q0 1 0 2 1 0 2 0 0 1 0 2 1.3 0.4 2.7 0.9c8.1 2.7 8.1 2.7 9.3 5.1q2.3 1.2 4.7 2.3c3.1 1.5 5.8 3 8.4 5.3 3.5 2.9 6.6 4 10.9 5.4q0 1 0 2 1 0 2 0 0 1 0 2c0.8 0.2 0.8 0.2 1.6 0.3 3 0.9 5.4 2.2 8 3.7q1.5 0.8 2.9 1.6 1.3 0.7 2.5 1.4 1 0.5 2 1 0 1 0 2 0.8 0.2 1.6 0.3c3 0.9 5.6 2.3 8.4 3.7q0 1 0 2c0.9 0.2 0.9 0.2 1.8 0.4 1.8 0.5 3.5 1 5.2 1.6q0 1 0 2 1 0.4 2.1 0.8 1.4 0.6 2.9 1.2 0.9 0.4 1.9 0.7c5 2.1 5 2.1 6.1 4.3 2 0.7 2 0.7 4 1q0 1 0 2 1 0 2 0 0 1 0 2 1.2 0.2 2.4 0.4c2.6 0.6 2.6 0.6 4.6 1.6q0 1 0 2c1.3 0.4 1.3 0.4 2.6 0.8 3.8 1.3 6.9 3.1 10.4 5.2q0 1 0 2 1.5 0 3 0 0 1 0 2c1.1 0.2 1.1 0.2 2.2 0.4 3.8 0.8 6.8 1.6 9.6 4.4 3.2 3.2 7.2 5.1 11.2 7.2q0 1 0 2 1.1 0.2 2.2 0.3c2.9 0.7 5.3 1.8 8.1 3.1 1.3 0.7 1.3 0.7 2.6 1.3 2.1 1.3 2.1 1.3 3.1 3.3q2.5 1.5 5.1 2.9c1.4 0.8 1.4 0.8 3 1.6q5.4 2.8 10.9 5.5 0 1 0 2 1.2 0.2 2.4 0.4c2.6 0.6 2.6 0.6 4.6 1.6q0 1 0 2 0.8 0.2 1.7 0.3c2.7 0.8 4.8 2.1 7.2 3.6 3.3 2.1 6.5 3.7 10.1 5.1q1.5 1.5 3 3c2.6 1.2 2.6 1.2 5 2q0 1 0 2 0.9 0.2 1.8 0.4c1.8 0.5 3.5 1 5.2 1.6q0 1 0 2 3.2 1.6 6.3 3.1c3.9 2 7.8 3.9 11.5 6.1 4.8 2.8 4.8 2.8 10.2 3.8q0.5-1 1-2 1-0.2 2-0.4 1-0.3 2-0.6 0.5-1.5 1-3 2.9-2.1 6-4 1-0.8 1.9-1.7c2.9-1.8 5.7-2 9.1-2.3q0.5-1.5 1-3 2.5-1.1 5-2 2.3-1.4 4.5-2.9c11.8-8.1 11.8-8.1 16.5-8.1q0.5-1.5 1-3c2.4-1.1 2.4-1.1 5-2 3-1.8 3-1.8 4.9-4 2.1-2 3.6-2.9 6.1-4q2.5-1.5 5-3 1.2-0.7 2.4-1.4c2.6-1.6 5-3.3 7.5-5.2 3.7-2.6 6.8-4 11.1-5.4 2.6-1.7 5.1-3.5 7.5-5.3 2.5-1.7 4.7-2.7 7.5-3.7q2.3-1.1 4.6-2.4c1.2-0.6 1.2-0.6 2.3-1.2 2.2-1.3 2.2-1.3 3.7-3.5 2.2-2.9 4.9-2.4 8.4-2.9 2.4-1.7 4.4-3.4 6.4-5.5 3.3-3.2 7.2-5.3 11.3-7.3 4.7-2.2 8.6-5.4 12.7-8.6 2.9-1.8 4.3-1.9 7.6-1.6 2.2-0.1 2.2-0.1 4-1q0.4-0.9 0.9-1.8c1.3-2.6 2.7-3.8 5-5.5 1-0.8 1-0.8 2-1.6 2.1-1.1 2.1-1.1 4.4-0.8q0.8 0.4 1.7 0.7 0.5-1.5 1-3c3-1 3-1 5 0q0.5-1.5 1-3 3.5-1.6 7-3 2-1.5 4-3 1 0 2 0 0-1 0-2c3.8-2 3.8-2 6-2q1-1.5 2-3c2.6-0.2 2.6-0.2 5 0q0-1 0-2 1 0 2 0 0.5-1.5 1-3 3.4-1.6 7-3c1.1-0.6 1.1-0.6 2.3-1.2 1.7-0.8 1.7-0.8 4.7-0.8q0-1 0-2c1.5-1.3 3-2.5 4.5-3.7 3.5-3 4-6.1 4.6-10.5q0.3-1.6 0.5-3.3 0.2-1.2 0.4-2.5 1 0 2 0-0.1-1-0.2-2c-0.9-8.7-1-17.4-0.9-26.2q0-3.7 0-7.4c0-8.7 0.2-17.3 0.6-25.9 0.5-11.5 0.7-22.9 0.8-34.4q0-1.4 0-2.8 0.1-11.6 0.2-23.2 0.1-8.7 0.2-17.4 0-4.1 0.1-8.1 0-2.5 0-5c0-1.1 0-1.1 0-2.2 0.1-5.2 0.1-5.2 1.2-7.4q-1 0.1-2.1 0.3-1.3 0.1-2.7 0.3c-1.4 0.1-1.4 0.1-2.7 0.3-2.5 0.1-2.5 0.1-5.5-0.9q0 1.5 0 3c-6.7 1.1-6.7 1.1-9 0q-4.3-0.1-8.6-0.1c-1.2 0-1.2 0-2.5 0q-5.5 0.1-11 0.1-4 0-8 0.1-1.2 0-2.4 0-1.2 0-2.4 0-1 0-2 0c-2.1-0.1-2.1-0.1-4.5-0.6-5.4-1.1-11-0.9-16.5-1.1q-1.1 0-2.3 0c-27.6-0.8-55.2-0.5-82.9-0.5q-9.5 0-19 0-9.3 0-18.6 0-5.5 0-11 0-6.1 0-12.2 0c-1.8 0-1.8 0-3.6 0-1.7 0-1.7 0-3.3 0q-1.5 0-2.9 0c-2.3 0-2.3 0-4.3 1.1q0-1 0-2c-3.7 1.2-4.8 1.7-7 5-0.2 2.6-0.2 5.1-0.2 7.7q0 1.2 0.1 2.5 0 3.8 0 7.7c0.2 13.8 0 27.6-0.4 41.4q-0.1 2.6-0.1 5.1-0.2 6.3-0.4 12.6 1.2 0 2.4 0 28.9-0.1 57.9-0.1 14 0 27.9-0.1 12.2 0 24.4 0 6.5 0 13 0 6 0 12.1 0 2.2 0 4.5 0 3-0.1 6.1 0 1.7 0 3.4 0c4.4 0.3 8.4 1.2 12.3 3.2q0 8 0.1 16 0 2.7 0 5.4 0 3.9 0 7.8 0 1.2 0 2.4c0 10.1 0 10.1-3.2 13.8-3.5 3.1-7.1 5.9-10.9 8.6q-1 0.8-2 1.6c-2.6 1.8-4.9 2.1-8 2.4 1.2-3.5 1.9-3.8 5-5.6q1.2-0.7 2.4-1.5 1.3-0.7 2.6-1.5 2.5-1.4 5-2.9c1.1-0.7 1.1-0.7 2.3-1.3 1.9-1.1 1.9-1.1 2.7-3.2 0.3-13.9 0.7-27.7 1-42-54.1 0-108.2 0-164 0 0-29 0-58.1 0-88z"/><path class="f" d="m369 75c2.5 1.2 4.8 2.5 7.2 4q1.1 0.6 2.1 1.3 3.9 2.3 7.7 4.7 5.8 3.6 11.6 7.1 1.8 1.1 3.6 2.2c9.8 5.9 19.6 11.7 29.6 17.4 10.6 6.1 21.1 12.4 31.6 18.7q16.8 10.2 33.8 20 11.8 6.7 23.5 13.7c7 4.2 14.1 8.3 21.2 12.3 9.5 5.5 18.9 11.1 28.2 16.8 11.8 7.2 11.8 7.2 23.9 13.8-1.3 3.2-2.5 4.6-5.5 6.3q-1.1 0.6-2.2 1.2-1.2 0.7-2.4 1.4-2.6 1.5-5.3 2.9-1.3 0.8-2.8 1.6c-4.7 2.7-9.4 5.5-14.2 8.2q-3 1.8-6 3.6-10.1 5.8-20.1 11.7-1.8 1.1-3.7 2.2-1.8 1-3.6 2.1-2.5 1.5-5.1 2.9-3 1.8-6 3.8c-6.3 4.1-6.3 4.1-10.3 4.2-3.3-1.3-6.2-3-9.2-5-8.1-5.2-16.4-10.2-24.8-15.2q-1-0.6-2.1-1.2-16.9-10-33.9-20-10.8-6.3-21.4-12.7-5.7-3.4-11.4-6.7c-9.9-5.8-19.8-11.8-29.6-17.8-1.2-0.8-1.2-0.8-2.4-1.5q-1.3-0.8-2.6-1.7c-2.4-1.6-2.4-1.6-5.3-0.7-3.2 1.4-6.2 3-9.2 4.8-0.9 0.5-0.9 0.5-1.8 1-8.8 5.1-17.4 10.4-26.1 15.6-13.4 8.1-26.8 16.1-40.3 23.9q-10.9 6.4-21.6 12.8-14.6 8.8-29.3 17.3-1.4 0.8-2.7 1.6-2.6 1.4-5.1 2.9-1.2 0.7-2.3 1.3-1.1 0.6-2.1 1.2c-1.6 0.9-1.6 0.9-2.6 2q-0.2 2.6-0.2 5.3 0 1.6-0.1 3.4 0 1.8 0 3.6 0 1.9-0.1 3.8-0.1 5-0.1 9.9-0.1 5.1-0.2 10.1-0.2 10-0.3 19.9-1.3-0.7-2.6-1.5-12.4-7.1-24.8-13.9c-8.3-4.6-16.6-9.3-24.7-14.2-5.2-3.2-10.4-6.2-15.6-9.3q-1.6-0.9-3.2-1.8-7.3-4.3-14.7-8.5-1.2-0.7-2.6-1.5-2.3-1.3-4.7-2.7c-1.1-0.6-1.1-0.6-2.2-1.2-0.9-0.5-0.9-0.5-1.9-1-7.7-5.2-7.7-5.2-8.9-9.8-0.2-3.4-0.3-6.8-0.3-10.2 0-2.1-0.2-4.3-0.3-6.5-0.2-4.3 0.1-7.7 1.5-11.9 3.6-3.6 7.4-5.7 12-8 2.7-1.3 5.2-2.9 7.8-4.5q3-1.8 6-3.5c14.5-8.6 14.5-8.6 28.9-17.4 6.7-4.3 13.5-8.2 20.4-12.1 8-4.5 15.8-9.3 23.6-14.1 14.3-8.8 28.7-17.2 43.3-25.4q0.5 1.5 1 3-1.5 0.5-3 1-0.5 1.5-1 3c-1.8 1.2-1.8 1.2-4.1 2.4q-1.2 0.7-2.4 1.3-4.3 2.2-8.7 4.2c-1.9 1.1-1.9 1.1-3.7 3-2.3 2.3-4.6 3.6-7.5 5.2q-1.3 0.7-2.7 1.4-2.9 1.5-5.7 2.9c-3.9 2-7.6 4.3-11.3 6.7q-2.1 1.3-4.2 2.6-0.9 0.6-1.9 1.2c-5.1 3.1-5.1 3.1-8.8 3.1-0.5 1.5-0.5 1.5-1 3-2.3 1.8-2.3 1.8-5.2 3.7-1.5 0.9-1.5 0.9-2.9 1.9-3 1.4-4.7 1.7-7.9 1.4q0 1 0 2-1.1 0.4-2.2 0.8c-2.9 1.1-2.9 1.1-5.1 3.1-3.3 2.6-6.9 4.3-10.7 6.1-4.1 1.9-4.1 1.9-7.6 4.6-1.7 1.7-3.1 2-5.4 2.4q0 1 0 2c-3.7 3-7.5 5.6-12.1 6.9-3.8 1.4-6.2 3.8-9.2 6.5-1.7 1.6-1.7 1.6-3.7 2.6-1.1 3.1-1.1 6.1-1.1 9.4q0 1.6 0 3.1 0 1.6 0 3.3 0 1.6 0.1 3.2 0 4 0 8 1 0 2 0c0.7 0.9 0.7 0.9 1.4 1.9 1.7 2.3 3.1 3.2 5.7 4.5 4.3 2.3 8.5 4.8 12.7 7.4 2.3 1.3 2.3 1.3 5.2 2.2q0 1 0 2 1.4 0.5 2.9 0.9c3.1 1.1 3.1 1.1 5.1 2.1q0 1 0 2 1.5 0.3 3.1 0.7c3.7 1 6.2 2.8 9.2 5.2 1.9 1.2 3.5 1.7 5.7 2.1q0 1 0 2 1 0.4 2.1 0.7c3.5 1.6 6.7 3.5 10 5.5q2 1.2 4 2.4 0.9 0.6 2 1.2 4.3 2.6 8.6 5.2 1.4 0.8 2.8 1.7c2.2 1.2 4.1 1.8 6.5 2.3q0 1 0 2 3 1 6 2c0.7-3 1-5.6 1-8.7 0-3.3 0-3.3 1-5.3q0-3.8-0.2-7.6 0-2.4-0.1-4.7-0.1-3.7-0.2-7.4c-0.6-13.7-0.6-13.7 2.2-17.7 2-1.6 3.9-2.6 6.3-3.6q1.1-0.6 2.3-1.2 2-1 4-1.8c2-1 2-1 3.7-4 3.6-0.7 3.6-0.7 7-1q0.5-1.5 1-3 3.5-1.5 7-3 1.5-1.5 3-3c6.1-4.2 12.4-7.8 19-11 3.4-1.8 6.1-3.9 9-6.5 3.9-3.5 7.5-5.9 12.4-7.9 3.4-1.5 6-3.2 8.9-5.4 2.4-1.7 5-2.9 7.7-4.2q1.3-0.8 2.6-1.6c2.3-1.3 3.9-1.9 6.4-2.4 3.5-1.3 6.4-2.8 9.5-4.8q1.2-0.8 2.4-1.6 2.6-1.7 5.2-3.3 1.2-0.8 2.4-1.6 1.1-0.8 2.3-1.5c2.4-1.3 4.5-1.8 7.2-2.2q0-1 0-2 3.7-2.1 7.5-4.1 1-0.5 2.1-1.1c5.3-2.8 8.5-3.2 14.4-1.8 2.1 1.1 2.1 1.1 3.7 2.4 2.6 2.1 5 3.5 8.3 4.6q0 1 0 2 1.7 0.4 3.4 0.8 1.8 0.6 3.6 1.2 0.5 1.5 1 3 3 0.5 6 1 0 1 0 2 1 0.1 2.1 0.2c3.7 1 6.5 2.8 9.7 4.8q2 1.2 4 2.4c1 0.7 1 0.7 2.1 1.3 3.5 2.1 7 4.1 10.6 6.1q1 0.6 2 1.1 0.9 0.5 1.8 1.1c9.8 5.4 9.8 5.4 13.7 8 3.3 1.9 6.3 3.7 9.9 5.1 2.1 0.9 2.1 0.9 3.1 2.9q3 1.1 6 2 0 1 0 2 1 0.4 2.1 0.8c9.3 3.9 9.3 3.9 10.9 7.2 2.5 0.7 2.5 0.7 5 1q0 1 0 2c2.7 1.1 5.3 2.1 8 3q0 1 0 2 2 0 4 0 2.1 1.9 4 4c2.6 1.8 2.6 1.8 5.5 3.3q1.4 0.8 2.8 1.6c3 1.2 3.8 1.2 6.7 0.1 1.5-0.4 1.5-0.4 3-0.8 3.2-1.3 4.7-2.7 7-5.2 3.2-2.2 4.3-2.2 8-2q0.4-0.9 0.8-1.9c1.4-2.5 2.5-3.1 5.2-4.2 2.6-1.2 4-1.9 6-3.9q1.5 0 3 0 0.5-1.5 1-3 2.5-1.1 5-2 2.5-1.5 5-3 3.4-1.9 6.9-3.8 2.5-1.4 5-3c2.1-1.2 2.1-1.2 5.1-1.2q0.5-1.5 1-3c2.5-1.4 5.1-2.4 7.8-3.5 2.5-1.3 2.5-1.3 3-4.2 0.1-1.1 0.1-1.1 0.2-2.3q-0.9-0.5-1.8-1c-3.4-1.9-6.8-3.8-10.1-5.8-2-1.4-2-1.4-4.1-1.2q0-1 0-2-1.5-0.5-3-1 0-1 0-2-1.1-0.2-2.3-0.4c-2.7-0.6-2.7-0.6-5.7-1.6q0-1 0-2-1.2-0.3-2.4-0.7c-6.8-2.5-12.8-6.4-18.8-10.2-5.5-3.4-11.1-6.5-16.8-9.5-3.8-2-7.4-4.2-11-6.6q0-1 0-2-1.2-0.3-2.4-0.7c-4.7-1.7-9.1-4-13.6-6.3q-1.5-0.8-3.1-1.6c-7.8-4.1-7.8-4.1-8.9-6.4q-2.3-1.4-4.7-2.6c-4.4-2.3-8.5-4.7-12.7-7.3-5.4-3.4-11-6.5-16.7-9.5-3.7-2-7.3-4.3-10.9-6.6-2.9-1.8-5.7-3.4-8.7-4.8-3.9-1.9-7.3-4.2-10.8-6.5-5.9-4-12.1-7.6-18.5-10.7q0-1 0-2-1-0.4-2.1-0.8c-3.5-1.4-6.6-3.3-9.9-5.2q0-1 0-2-0.9-0.2-1.7-0.4c-2.4-0.6-4.4-1.5-6.5-2.7-1.1-0.5-1.1-0.5-2.2-1.1q-0.8-0.4-1.6-0.8 0-1 0-2c-6.6-0.4-6.6-0.4-12 3-1.9 0.6-1.9 0.6-4 1-3.5 1.2-3.5 1.2-6.4 3.4-4.7 4.7-11.2 7.1-17.6 8.6q0 1 0 2-1.1 0.6-2.2 1.2-1.5 0.8-3 1.6-1.4 0.8-2.9 1.6-2.8 1.6-5.6 3.3c-2.2 1.2-3.9 1.9-6.3 2.3q0 1 0 2c-3.5 0.5-3.5 0.5-7 1 1.4-4.1 3.2-4.6 6.9-6.7q0.9-0.5 1.8-1 1.9-1.1 3.9-2.2 5-2.9 10-5.8 0.9-0.5 1.9-1.1 7.4-4.3 14.6-8.8 0.9-0.6 1.9-1.2 4.1-2.6 8.2-5.4 1.4-1 2.9-2c1.2-0.8 1.2-0.8 2.4-1.7 3.6-1.6 5.7-1.1 9.5-0.1z"/><path class="g" d="m201 326c4.2 1.9 8.1 4.1 12 6.4q1.7 1 3.4 2c6.6 3.8 13.2 7.7 19.7 11.8 18.9 12.1 38.5 23 57.9 34.3 18.8 10.9 37.6 21.8 55.8 33.6q1.1 0.7 2.1 1.4 0.9 0.6 1.8 1.2c1.2 0.6 1.2 0.6 2.3 1.3q1.6 1 3.3 2c6 3 12.2 2.6 18.8 2.5q2.2 0.1 4.3 0.1 5.7 0 11.5 0 6 0 12 0.1 11.4 0 22.8 0 13 0.1 26 0.1 26.6 0.1 53.3 0.2 0.1 2.7 0.1 5.3 0.1 1.5 0.1 3c-0.2 2.7-0.2 2.7-2.3 5.6-3.2 2.3-6.5 4.6-9.9 6.7q-1 0.6-2.1 1.3c-6.4 3.9-13 7.6-19.6 11.3-6.7 3.8-13.3 7.9-19.9 12.1-9.6 6-19.3 11.8-29 17.6q-11.6 6.8-23 13.8-2.7 1.6-5.4 3.2-8 4.9-16 9.9-1.4 0.8-2.8 1.7-2.5 1.6-5 3.2c-3.4 2.1-5.4 3.3-9.4 3.3-3-1.1-5.5-2.3-8.2-3.9q-1.3-0.8-2.6-1.6-1-0.8-2-1.5 0-1 0-2c3 0.6 5.3 1.6 7.9 3.1 2.6 1.3 3.8 1.9 6.7 1.9 3.1-1.3 5.7-3 8.4-5q1.6-1 3.3-2.1c2.7-1.8 2.7-1.8 4.7-3.9 2.6-0.1 2.6-0.1 5 0q0-1 0-2 1 0 2 0 0-1 0-2c2.6-0.7 5.3-1.3 8-2q0-1.5 0-3 0.8-0.1 1.6-0.3c4.1-1.2 8.4-3 10.7-6.8q0.3-0.9 0.7-1.9c3-2 3-2 5.4-2.5 2.9-0.6 4.6-1.5 7-3.2q1.1-0.8 2.3-1.6c2.1-1.6 4-3.2 5.9-5 3.2-2.8 6.2-3.7 10.4-4.7 1.5-1 1.5-1 3-2q1.5 0.5 3 1 0-1 0-2 2.5-1.5 5-3c0.7-0.8 0.7-0.8 1.5-1.6 2-1.8 4-2.5 6.5-3.4 1.5-1 1.5-1 3-2q2 0 4 0 0-1 0-2 1 0 2 0c0.3-0.9 0.3-0.9 0.6-1.9 2-3 4-3 7.4-4.1 2.4-1.5 4.7-3.3 7-5 9.5-6.6 9.5-6.6 14.3-7.4q0.8-0.3 1.7-0.6c1.2-2.4 1.2-2.4 2-5q1-1 2-2 0 1 0 2 1 0 2 0-0.5-3-1-6c-3.5-0.8-6.5-1-10.1-0.5-4.9 0.5-9.8 0.7-14.7 0.8q-1.4 0-2.8 0.1-2.9 0-5.9 0.1-4.3 0.1-8.7 0.2c-22.9 0.5-45.8 0.4-68.7 0q-3.6 0-7.3 0-5.3-0.1-10.7-0.2-1.6 0-3.2 0c-6.8-0.1-12.6-1.2-18.9-3.5q0-1 0-2-3-1.5-5.9-2.9c-4.3-2.1-8.3-4.3-12.1-7.1q0-1 0-2-1.1-0.2-2.2-0.3c-3.1-0.8-5.1-2-7.8-3.7q-2.5-1.1-5-2 0-1 0-2-1.1-0.4-2.2-0.8c-2.8-1.2-5.3-2.6-7.9-4.2-2.9-1.8-5.8-3.5-8.9-5q0-1 0-2-3.9-1.9-7.7-3.8-2.2-1.1-4.3-2.1-1.1-0.6-2.2-1.1c-7.1-3.5-7.1-3.5-9.8-6q0-1 0-2c-1 0.2-1 0.2-2 0.3-4.4-0.4-7.6-2.6-11-5.3q-1-1.5-2-3c-2.5-1.4-5.1-2.7-7.7-4q-1-0.5-2.1-1c-4.3-2.2-8.7-4.1-13.2-6q0-1 0-2c-2.3-0.7-4.6-1.3-7-2q0-1 0-2-2.5-1-5-2 0-1 0-2c-3.9-1.5-3.9-1.5-8-2q-1.5-1.5-3-3c-1-0.5-1-0.5-2-1q0-1 0-2-2.5-0.5-5-1 0-1 0-2c-1.4-0.2-1.4-0.2-2.8-0.3-3.4-0.7-4-1.3-6.2-3.7-2.1-0.7-2.1-0.7-4-1q-0.5 1-1 2c-2 0.9-4.1 1.5-6.2 2.2-2 0.7-2 0.7-2.8 2.8-1.7 1-3.5 2-5.2 3-1.7 0.9-3.2 2-4.8 3q-1 0.4-2.1 0.8c-6.3 2.6-11.9 6.1-17.3 10.1-5.7 4.1-5.7 4.1-9.6 4.1q0 1 0 2-0.8 0.5-1.7 0.9c-4.6 2.6-9.2 5.2-13.6 8.2-1.7 0.9-1.7 0.9-4.7 0.9-1.3 2.2-1.3 2.2-2 5 1 2.9 2 4.5 4.8 6 1.7 0.7 3.4 1.4 5.2 2q0 1 0 2c2 0.7 4 1.3 6 2q0 1 0 2 1.1 0.2 2.3 0.3c2.9 0.8 4.3 1.9 6.7 3.7q3 1.1 6 2 0 1 0 2c3 1 3 1 6 2q0 1 0 2 0.8 0.1 1.6 0.2c3.9 1.3 7.2 3.7 10.6 5.9 2.9 1.8 5.4 3.4 8.8 3.9q0 1 0 2 2.9 1.5 5.9 2.9c4.5 2.2 8.8 4.6 13.1 7.1q0 1 0 2c2 0.7 4 1.3 6 2q0 1 0 2 3 0 6 0 0 1.5 0 3 1.2 0.4 2.4 0.9c2.6 1.1 2.6 1.1 4.6 3.1q2.5 1 5 2 2.1 1 4.3 2 1 0.5 2 1c1.7 1 1.7 1 2.7 3q2.7 1.3 5.5 2.5c5.4 2.3 5.4 2.3 6.5 4.5q2.5 1.1 5 2 0 1 0 2c0.8 0.2 0.8 0.2 1.6 0.4 5.8 1.7 10.1 4.3 14.9 7.8 3.7 2.6 7.6 4.7 11.5 6.8q2.5 1.4 5.1 2.8 1.1 0.6 2.2 1.3 0.9 0.4 1.7 0.9 0 1 0 2 1.1-0.1 2.3-0.2c3.3 0.2 3.6 0.9 5.7 3.2 2.6 1.2 2.6 1.2 5 2q0 1 0 2 0.8 0.1 1.6 0.3c3.2 1 5.7 2.6 8.5 4.4 4.9 3.1 9.8 5.9 15.1 8.3 1.8 1 1.8 1 2.8 3q3 1.6 6 3 3.2 1.7 6.3 3.4 1.6 0.9 3.2 1.8c2.8 2 2.9 2.6 3.5 5.8-7.4-3.6-14.5-7.6-21.5-11.9q-13.2-8-26.6-15.7-1.6-0.9-3.2-1.8-3.3-1.9-6.5-3.8c-15.6-8.9-31-18-46.5-27.2q-6.8-4-13.7-8.1-8.1-4.8-16.3-9.6-16.5-9.8-33.1-19.5-13.1-7.7-26.2-15.4-8-4.8-16.1-9.5-1-0.6-2-1.2-4.9-2.9-9.8-5.7-1.8-1.1-3.6-2.1-1.6-1-3.2-1.9-2.9-1.7-5.7-3.6c1.5-4.3 4.2-5.5 8.2-7.6 5.2-2.8 10.1-5.8 15-9.2 12.6-8.5 25.6-16.6 38.7-24.5 4.5-2.7 8.9-5.5 13-8.9 3.5-1.4 6.6-0.8 10.1 0.2z"/><path class="h" d="m204 452c6.4 0.4 11.2 3.6 16.6 6.8q1.5 0.8 3 1.7c7.6 4.4 14.9 8.9 22.3 13.5 10.1 6.3 20.5 12.2 30.9 18.1q7.5 4.4 15 8.8 1.5 0.8 3 1.7 10.8 6.3 21.6 12.6 2.7 1.6 5.4 3.2 8.7 5.1 17.3 10.2 4 2.4 8 4.8 1.9 1.1 3.9 2.2 2.6 1.6 5.3 3.2 1.5 0.9 3 1.8c3 1.6 5.3 2.4 8.7 2.4-1 2-1 2-2 4-4.4-0.4-7.2-2.2-10.7-4.6-2.4-1.5-4.8-2.8-7.2-4.1-10-5.4-19.8-11.1-29.2-17.2-3.9-2.5-7.6-4.5-11.9-6.1q0-1 0-2-1.1-0.4-2.2-0.8c-2.7-1.2-5.1-2.5-7.6-4.1-3-1.8-6-3.5-9.1-5-3.3-1.6-6.3-3.5-9.4-5.5-5.7-3.7-11.6-6.7-17.7-9.6q-3-1.5-6-3 0-1 0-2-1.5 0-3 0 0-1 0-2-2 0-4 0 0-1 0-2-0.8-0.4-1.6-0.8c-2.4-1.2-2.4-1.2-5.1-3-6.8-4.7-6.8-4.7-14.4-7.7-1.9-0.5-1.9-0.5-3.3-1.9-1.7-1.7-3.2-2.6-5.3-3.8q-1.1-0.5-2.2-1.1-2.2-1.2-4.4-2.4-1-0.6-2.1-1.1-1-0.6-2-1.1c-1.6-1.1-1.6-1.1-3.6-4.1z"/><path class="i" d="m584 205q2 1 4 2c-1.3 6.4-1.3 6.4-4.4 8.9q-1.6 0.8-3.2 1.7-1.9 1-3.8 2-1.1 0.5-2.2 1.1c-4.8 2.6-9.4 5.3-14 8-1.6 0.9-1.6 0.9-3.1 1.9q-7.6 4.4-15.1 8.9-1.4 0.9-2.8 1.7-2.5 1.6-5.1 3.2-1.1 0.7-2.3 1.4-1 0.6-2 1.2c-2.3 1.2-4.4 1.6-7 2q-1.4 0.3-2.8 0.6-1.1 0.2-2.2 0.4-0.5 1.5-1 3c-1.8 0.7-1.8 0.7-4.1 1.2q-1.1 0.2-2.2 0.5-0.8 0.1-1.7 0.3c1.6-1.8 2.5-2.9 4.9-3.4 2.9-0.8 4.1-2.5 6.1-4.6 3.2-2.2 4.3-2.2 8-2q0.4-0.9 0.7-1.9c1.5-2.5 2.6-3.1 5.3-4.2 2.6-1.2 4-1.9 6-3.9q1.5 0 3 0c0.5-1.5 0.5-1.5 1-3q2.5-1.1 5-2 2.5-1.5 5-3 3.4-1.9 6.9-3.8 2.5-1.4 5-3c2.1-1.2 2.1-1.2 5.1-1.2q0.5-1.5 1-3c2.2-1.2 2.2-1.2 4.9-2.3 4.3-2 4.3-2 6.7-6 0.2-1.3 0.2-1.3 0.4-2.7z"/><path class="j" d="m350 418q1.4 0.5 2.8 1c3.1 1.1 3.1 1.1 6.2 1q1 0.5 2 1 0 1 0 2c45.5 0.3 91.1 0.7 138 1-4.2 2.1-6.8 2.2-11.3 2.1-10-0.2-19.9 0.2-29.9 0.5-21.3 0.8-42.5 0.5-63.7 0.1q-3.6 0-7.3 0-5.3-0.1-10.7-0.2-1.6 0-3.2 0c-6.8-0.1-12.6-1.2-18.9-3.5q0-1 0-2-2-1-4-2 0-0.5 0-1z"/><path class="k" d="m375.2 316.8c1.9 0 1.9 0 3.9 0q2.1 0 4.3 0 2.2 0 4.5 0 6.2 0 12.3 0 6.4 0 12.8 0 12.2 0 24.4 0.1 13.8 0 27.6 0 28.5 0 57 0.1 0 0.5 0 1c-7.5 1-14.9 1.1-22.5 1.1q-2 0-4 0-4.3 0-8.6 0-6.8 0-13.6 0-14.3-0.1-28.7-0.1-15.6 0-31.2-0.1-6.7 0-13.5 0-3.2 0-6.4 0-3.8 0-7.7 0-1.7 0-3.5 0c-1.4 0-1.4 0-3 0-2.3-0.1-2.3-0.1-4.3 1.1q0-1 0-2c-3.7 1.2-4.8 1.7-7 5-0.2 2.7-0.2 5.3-0.2 8.1q0 1.2 0.1 2.4 0 2.6 0 5.2 0.1 6.8 0.1 13.6 0 1.4 0 2.8c0 12-0.4 23.9-1 35.9q-0.5 0-1 0-0.1-14-0.2-28.1 0-6.5 0-13-0.1-6.3-0.1-12.6 0-2.4 0-4.8 0-3.3 0-6.7-0.1-1.9-0.1-3.8 0.2-1.5 0.4-3c3.5-2.4 5-2.2 9.2-2.2z"/><path class="l" d="m614 323q0.5 0 1 0 0 25.6 0.1 51.1 0 11.9 0 23.8 0 10.3 0 20.7 0 5.5 0 10.9c0 13.9 0 27.8-0.5 41.7 0 1.5 0 1.5-0.1 3.1q0 1.4-0.1 2.9 0 1.2-0.1 2.4c-0.3 2.7-1.2 4.9-2.3 7.4q-0.6 2.5-1 5-0.5 0-1 0c-0.1-4.2 0-7.9 1-12q1 0 2 0-0.1-1-0.2-2c-0.9-8.7-1-17.4-0.9-26.2q0-3.7 0-7.4 0-13 0.6-26c0.8-17.7 0.8-35.4 1-53.1q0.1-7.1 0.2-14.3 0.2-14 0.3-28zm-5 169c0 3 0 3 0 3z"/><path class="m" d="m615 388q0.5 0 1 0 0.3 21 0.5 41.9 0 9.8 0.2 19.5 0.1 9.4 0.2 18.8 0 3.6 0.1 7.2 0 5 0 10 0.1 1.5 0.1 3c0 2.8-0.1 5-1.1 7.6-2.7 2.6-5.7 4.3-9 6q-1.4 1-2.9 1.9c-2.1 1.1-2.1 1.1-5.1 0.1 1.4-3.4 2.8-4.7 5.9-6.6 4.7-3.2 5.5-6.7 6.6-12.1 0.5-2.3 0.5-2.3 1.5-3.3q0.2-2.1 0.3-4.3 0.1-1.4 0.1-2.8 0.1-1.6 0.1-3.2 0.1-1.7 0.2-3.3c0.5-15.1 0.6-30.1 0.8-45.1q0.1-6 0.2-12 0.2-11.6 0.3-23.3z"/><path class="n" d="m500 463c0.5 1.5 0.5 1.5 1 3-3.3 2.8-6.1 5.1-10 7q-1.6 1.2-3.3 2.4c-2.5 1.8-5 3.3-7.9 4.7-2.4 1.1-3.8 1.9-5.8 3.9-2.4 2.4-4.9 3.6-7.9 5-7.5 3.6-14.8 8.1-21.7 12.7q-1.2 0.7-2.4 1.3-1.5-0.5-3-1c1.2-3.7 2.3-4 5.6-5.9q1.5-0.8 3-1.7 1.5-0.9 3.1-1.8 3.4-1.9 6.7-3.8c1.6-0.9 1.6-0.9 3.3-1.9 4.9-2.8 9.6-5.7 14.4-8.7q12.3-7.7 24.9-15.2z"/><path class="o" d="m603.9 314.9c1.8 0 1.8 0 3.7 0q1.6 0 3.3 0 1.5 0 2.9 0c2.2 0.1 2.2 0.1 3.2 1.1q0.1 2.4 0.1 4.9 0 1.6 0 3.2c0 1.7 0 1.7 0 3.4q0 1.8 0 3.6 0 3.8 0 7.5 0 5.7 0 11.4c0 12.7-0.1 25.3-1.1 38q-0.5 0-1 0c-0.3-23.1-0.7-46.2-1-70-32.7-0.5-32.7-0.5-66-1q0-0.5 0-1c37.3-1.1 37.3-1.1 55.9-1.1z"/><path class="p" d="m250 237q1 0.5 2 1c-0.1 2.3-0.1 2.3-1 5-2.5 1.9-2.5 1.9-5.8 3.7q-0.9 0.4-1.8 0.9-2.8 1.5-5.7 3-1.8 1-3.7 2-3.5 1.9-7 3.8c-3 1.6-3 1.6-5.8 3.4q-1.1 0.6-2.2 1.2-1-0.5-2-1 0 0.8 0 1.7 0 8.6 0.1 17.3 0 3.2 0 6.5 0 4.6 0 9.3 0 1.4 0 2.9 0 1.3 0 2.7 0 1.2 0 2.4c-0.1 2.2-0.5 4.1-1.1 6.2q-1 0-2 0 0-2.9-0.1-5.9 0-1.6 0-3.3c0.1-2.8 0.1-2.8 1.1-4.8q0-3.8-0.2-7.6 0-2.4-0.1-4.7-0.1-3.7-0.2-7.4c-0.6-13.7-0.6-13.7 2.2-17.7 2-1.6 3.9-2.6 6.3-3.6q1.1-0.6 2.3-1.2 2-1 4-1.8c2-1 2-1 3.7-4 3.6-0.7 3.6-0.7 7-1q0.5-1.5 1-3 3.5-1.5 7-3 1-1.5 2-3z"/><path class="q" d="m503 400q4.5-0.1 9.1-0.1 1.2-0.1 2.5-0.1c6 0 11 0.5 16.4 3.2q0 8 0.1 16 0 2.7 0 5.4 0 3.9 0 7.8 0 1.2 0 2.4c0 10.1 0 10.1-3.2 13.8-3.5 3.1-7.1 5.9-10.9 8.6-1 0.8-1 0.8-2 1.6-2.6 1.8-4.9 2.1-8 2.4 1.2-3.5 1.9-3.8 5-5.6q1.2-0.7 2.4-1.5 1.3-0.7 2.6-1.5 2.5-1.4 5-2.9 1.1-0.6 2.3-1.3c1.9-1.1 1.9-1.1 2.7-3.2q0.1-2 0.1-4.1c0-1.2 0-1.2 0-2.5q0-1.4 0-2.8 0-1.4 0-2.8 0-4.5 0-8.9 0-3-0.1-6.1 0-7.4 0-14.8c-3.8-0.6-7.6-1.1-11.4-1.3q-1.1-0.1-2.3-0.1-1.1-0.1-2.2-0.2-1.2 0-2.4-0.1-2.8-0.2-5.7-0.3 0-0.5 0-1z"/><path class="r" d="m488 565c3.7-0.3 3.7-0.3 7 0q-0.5 1-1 2-1 0-2 0 0 1 0 2-1.4 0.6-2.9 1.1c-4.1 1.7-7.5 4.1-11 6.7-2.1 1.2-2.1 1.2-6.1 1.2q-0.5 1.5-1 3-3 1-6 2-1.5 1.5-3 3-1.5 0-3 0-0.5 1-1 2-1-0.5-2-1 0 1.5 0 3-2 0-4 0-0.5 1.5-1 3c-3 2-3 2-7 2-0.1 0.9-0.1 0.9-0.2 1.9-0.8 2.1-0.8 2.1-3 3.1-2.8 1-5.7 1.9-8.6 2.6q-1.5 0.4-3 0.8c-1.1 0.3-1.1 0.3-2.2 0.6 2.6-2.7 4.6-4.5 8-6q2.5-1.5 5-3 1.2-0.7 2.4-1.4c2.6-1.6 5-3.3 7.5-5.2 3.7-2.6 6.8-4 11.1-5.4 2.6-1.7 5.1-3.5 7.5-5.3 2.5-1.7 4.7-2.7 7.5-3.7q2.3-1.1 4.6-2.4 1.2-0.6 2.3-1.2c2.2-1.3 2.2-1.3 3.6-3.5q0.8-1 1.5-1.9z"/><path class="s" d="m361 422c48.5 0.3 97 0.7 147 1 0 11 0 11-2.3 14.1-2.7 1.9-2.7 1.9-5.7 2.9q0-1 0-2 1-0.5 1.9-1.1c3.3-3 2.9-6.6 3.1-10.9-3.1-1-5.3-1.1-8.6-1.1q-1.8-0.1-3.6-0.1-1.9 0-3.9 0-2 0-4.1 0-4.4 0-8.8 0-7-0.1-14-0.1-19.8-0.1-39.6-0.2-11 0-21.9-0.1-7 0-13.9 0-4.3-0.1-8.6-0.1-3 0-6 0-1.7 0-3.5 0-1.5 0-3.1 0c-2.4-0.3-2.4-0.3-4.4-2.3z"/><path class="t" d="m522 318c26.4 0 52.8 0 80 0q0 1.5 0 3c-6.8 1.1-6.8 1.1-9 0q-4.3-0.1-8.6-0.1c-1.2 0-1.2 0-2.5 0q-5.5 0.1-11 0.1-4 0-8 0.1-1.2 0-2.4 0c-4 0-7.6-0.2-11.5-1.1q-3.2-0.2-6.4-0.3-1.8-0.1-3.6-0.1-1.9-0.1-3.8-0.2c-1.9 0-1.9 0-3.8-0.1q-4.7-0.2-9.4-0.3 0-0.5 0-1z"/><path class="u" d="m427 507q1 1.5 2 3-1 0.5-2.1 1.1c-5.3 2.8-10.2 5.7-14.9 9.5-2.9 2-5.9 3.7-9 5.3-2.2 1.2-2.2 1.2-5 3.1q-1.5 0-3 0 0 1 0 2c-18.1 10-18.1 10-21 10 1.3-3.9 2.9-4.4 6.4-6.5q0.8-0.5 1.7-1 2.7-1.7 5.5-3.3 1.9-1.1 3.7-2.3c11.9-7.1 23.8-14 35.7-20.9z"/><path class="v" d="m525 547q1 0 2 0c-1.5 4.1-3.9 5.4-7.6 7.6-0.9 0.5-0.9 0.5-1.8 1q-2.8 1.6-5.6 3.2-2 1.2-4 2.3-5 2.9-10.1 5.8-7.6 4.3-15.2 8.7-1.5 0.9-3.1 1.8c-11.6 6.7-23.1 13.7-34.6 20.6-0.5-1.5-0.5-1.5-1-3 1.7-0.7 1.7-0.7 3.4-1.4 3.6-1.2 3.6-1.2 4.6-3.6q2 0 4 0 0-1.5 0-3 0.8-0.2 1.7-0.3 1.1-0.3 2.2-0.5 1.1-0.2 2.3-0.5 0.9-0.3 1.8-0.7 0.5-1.5 1-3 3-1.1 6-2 0.5-1 1-2 2.5-1.1 5-2.1c2.1-1 3.7-2.1 5.6-3.5 3-2.3 5.5-3.1 9.4-3.4q0-1 0-2c1.9-2.7 3.2-3.1 6.4-3.9 3.6-0.8 3.6-0.8 5.5-3.1 3.1-2.9 6-3.2 10.1-4q0-1 0-2c2.5-0.5 2.5-0.5 5-1q0-1 0-2 1.2-0.4 2.4-0.9c2.7-0.8 2.7-0.8 3.6-3.1z"/><path class="w" d="m146 203q0.5 1 1 2c1.5 0.5 1.5 0.5 3 1-2 0.7-4 1.3-6 2q0 1 0 2c-3.7 3-7.5 5.6-12.1 6.9-3.8 1.4-6.2 3.8-9.2 6.5-1.7 1.6-1.7 1.6-3.7 2.6-1 2.9-1.1 5.5-1.1 8.5q0 1.3 0 2.6 0 1.3 0 2.6 0 1.4 0.1 2.7 0 3.3 0 6.6c-1 0.5-1 0.5-2 1 0-8.3 0-16.5 0-25q2-1 4-2 0.2-1.2 0.4-2.4c0.6-2.6 0.6-2.6 3-4.5q1.6-0.9 3.2-1.9c1.7-1 1.7-1 3.4-2q1.8-1 3.6-2 1.8-1.1 3.6-2.1 4.4-2.6 8.8-5.1z"/><path class="x" d="m343 86c0.5 1 0.5 1 1 2-2 4-8 6.1-12 8q0 1 0 2-1.1 0.6-2.2 1.2-1.5 0.8-3 1.6c-1.4 0.8-1.4 0.8-2.9 1.6q-2.8 1.6-5.6 3.3c-2.2 1.2-3.9 1.9-6.3 2.3q0 1 0 2c-2.3 0.3-4.6 0.7-7 1 1.3-4 3.7-4.9 7.2-6.8q0.9-0.6 1.8-1.1 3.1-1.8 6.1-3.5 2.9-1.7 5.9-3.4 1.9-1.1 3.8-2.2 6.7-3.8 13.2-8z"/><path class="y" d="m551 183c8.1 4.3 16 8.9 23.8 13.7q3.3 2 6.5 3.9 1.4 0.9 2.9 1.8c2.9 1.6 5.8 3.1 8.8 4.6-0.6 1.9-0.6 1.9-2 4-3.1 1.3-3.1 1.3-6 2q1-3 2-6-0.8-0.3-1.7-0.7c-5-2.2-9.7-4.6-14.5-7.3-1.7-1.2-1.7-1.2-3.8-1q0-1 0-2-1.5-0.5-3-1 0-1 0-2-1.5 0-3 0-2.5-2.5-5-5-1.4-0.8-2.8-1.7-1.1-0.6-2.2-1.3 0-1 0-2z"/><path class="z" d="m-90-49q1 0.5 2 1-1.4 1.7-2.8 3.3c-0.8 0.9-0.8 0.9-1.6 1.9-1.6 1.8-1.6 1.8-3.2 3.3-1.6 1.7-2.2 3.1-3 5.3q-0.4 1-0.8 2c-1.7 5.9-1.8 11.8-1.9 18q0 1.4-0.1 2.8-0.1 4.4-0.2 8.8 0 3-0.1 6-0.2 7.3-0.3 14.6c-2.4-2.4-2.2-3.7-2.3-7.1q0-1 0-2 0-1.1 0-2.2 0-2.3 0-4.6 0.1-3.4 0-6.9c0-30 0-30 10-40.2q1.1-1 2.3-2 1-1 2-2z"/><path class="A" d="m217 260q1 0 2 0c0 18.8 0 37.6 0 57-3-2-3-2-3.8-4.9-0.2-2.9 0.1-4.4 0.8-7.1q0.2-2.3 0.2-4.6 0-1.3 0.1-2.7c0-1.5 0-1.5 0-2.9q0-1.5 0.1-3 0.1-4.8 0.2-9.6 0-3.2 0.1-6.4 0.2-7.9 0.3-15.8z"/><path class="B" d="m-104 16c3.1 3.1 2.9 6.6 3.1 10.9q0 1.5 0 3 0 1.7 0 3.5 0 1.8 0 3.7c0 1.8 0 1.8 0 3.8q0 4.9 0 9.9 0 5.1-0.1 10.2 0 10 0 20-0.5 0-1 0-0.4-10.5-0.9-21-0.1-3.6-0.2-7.2c-1.1-25.3-1.1-25.3-0.9-36.8z"/><path class="C" d="m124 369q0.5 1 1 2c-0.9 2.1-0.9 2.1-2 4q1 0 2 0 0.6 1.1 1.2 2.2c2.6 4.1 6 7.1 10.8 8.3 1.7 0.3 3.3 0.4 5 0.5q0.5 1.5 1 3 2.4 2.1 5 4c-4.5-0.6-7.6-2.3-11.4-4.6q-0.9-0.5-1.8-1.1-2.8-1.7-5.6-3.4-1.9-1.1-3.8-2.3-4.7-2.8-9.4-5.6c1.8-4.2 3.8-5.2 8-7z"/><path class="D" d="m528 417q0.5 0 1 0 0.5 6.2 0.8 12.5 0.1 2.1 0.3 4.2c0.9 11.8 0.9 11.8-1.6 15.5-1.7 1.6-3.4 2.7-5.5 3.8q-1.3 0.8-2.6 1.6-1.2 0.7-2.4 1.4-1.2 1-2.4 2.1c-3 2.2-5 2.6-8.6 2.9 1.2-3.5 1.9-3.8 5-5.6q1.2-0.7 2.4-1.5 1.3-0.7 2.6-1.5 2.5-1.4 5-2.9 1.1-0.6 2.2-1.3c2-1.1 2-1.1 2.8-3.2q0.2-3.2 0.3-6.3 0.1-1.9 0.1-3.8 0.1-2 0.2-4 0-2 0.1-4 0.2-5 0.3-9.9z"/><path class="E" d="m222 255q1 1.5 2 3c-2.4 1.6-2.4 1.6-5 3q-1-0.5-2-1 0 0.8 0 1.7 0 8.6 0.1 17.3 0 3.2 0 6.5 0 4.6 0 9.3 0 1.4 0 2.9 0 1.3 0 2.7 0 1.2 0 2.4c-0.1 2.2-0.5 4.1-1.1 6.2q-1 0-2 0 0-2.9-0.1-5.9 0-1.6 0-3.3c0.1-2.8 0.1-2.8 1.1-4.8q0-3.8-0.1-7.7-0.1-2.3-0.2-4.7 0-3.7-0.2-7.4-0.1-3.6-0.1-7.1-0.1-1.1-0.2-2.2c0-2.2 0-2.2 0.8-5.9 2.2-2.2 4.3-3.4 7-5z"/><path class="v" d="m569 522q1 0.5 2 1c-8.4 5.2-16.9 10.4-25.4 15.5q-1.8 1.1-3.6 2.2-2.7 1.6-5.4 3.2-1.5 0.9-3.1 1.9-1.2 0.6-2.5 1.2-1-0.5-2-1 2.5-1 5-2 0-1 0-2c2.6-3.9 6.8-4.1 11-5q0-1.5 0-3 1.7-0.4 3.4-0.9 1.8-0.5 3.6-1.1 0.5-1 1-2 3-1 6-2 0.5-1 1-2 2.5-1.1 5-2 1.1-0.6 2.2-1.2 0.9-0.4 1.8-0.8z"/><path class="F" d="m295 210q1 0.5 2 1-0.5 1.5-1 3-2 0-4 0 0 1.5 0 3c-6.5 3-6.5 3-11 3-0.4 0.9-0.4 0.9-0.7 1.9-1.7 2.7-2.9 3-5.9 3.9-1.3 0.3-1.3 0.3-2.5 0.7q-0.9 0.2-1.9 0.5c2-3 2-3 4.8-4.4 3.5-1.7 5.5-3.8 8.2-6.6 3.8-2.6 7.7-4.4 12-6z"/><path class="G" d="m-104 653q1.5 0 3 0c0.4 21 0.4 21-2 30q-0.5 0-1 0c0-9.9 0-19.8 0-30z"/><path class="H" d="m558 525q1 0 2 0c-0.2 1.9-0.2 1.9-1 4-2.3 1.1-2.3 1.1-5 2q-1 0.8-2 1.6c-2.5 1.7-4 1.6-7 1.4q0 1.5 0 3c-3.2 2.2-4.3 2.2-8 2 3.1-4.5 6.1-6.7 11-9q1.5 0.5 3 1 0.5-1.5 1-3c3-1 3-1 5 0q0.5-1.5 1-3z"/><path class="I" d="m395 526c1 3 1 3 0 5q-2.5 1.5-5.1 2.9-1.4 0.8-3 1.6-1.4 0.7-2.9 1.5-1.2 0.6-2.4 1.3c-5.3 2.7-5.3 2.7-7.6 2.7 1.2-3.7 2.2-4 5.5-5.9q1.3-0.8 2.7-1.6 1.4-0.8 2.9-1.7 1.4-0.8 2.8-1.7 3.6-2.1 7.1-4.1z"/><path class="J" d="m303 110q1 1.5 2 3-1 0-2 0 0 1 0 2-1.6 0.6-3.3 1.3c-2.2 0.9-3.5 1.5-5.2 3.2-3.1 3.1-7.2 4.5-11.5 4.5 1.2-3.6 2-3.9 5.3-5.7q1.2-0.7 2.5-1.5 1.4-0.7 2.8-1.5c1.3-0.8 1.3-0.8 2.7-1.5q3.3-1.9 6.7-3.8z"/><path class="K" d="m128 216q1 0.5 2 1-1.6 1.7-3.3 3.4-0.9 0.9-1.8 1.9c-1.9 1.7-1.9 1.7-4.1 2.7-2 0.8-2 0.8-2.4 2.8-0.4 2.3-0.5 4.4-0.5 6.7q0 1.3 0 2.6 0 1.3 0 2.6 0 1.4 0.1 2.7 0 3.3 0 6.6c-1 0.5-1 0.5-2 1 0-8.3 0-16.5 0-25q2-1 4-2c0.8-2.6 0.8-2.6 1-5q0.5 1 1 2 1.5 0 3 0 0-1 0-2 1.5-1 3-2z"/><path class="L" d="m124 490q0.5 1 1 2-0.5 1-1 2-1.5 0-3 0 0.5 3 1 6 1 0.3 1.9 0.6 1.3 0.3 2.5 0.7 1.3 0.4 2.5 0.8c1.1 0.4 1.1 0.4 2.1 0.9q0.5 1.5 1 3c2.5 1.2 2.5 1.2 5 2-3 1-3 1-5 0.2q-3.6-2.2-7.2-4.5-1.2-0.7-2.5-1.5-1.2-0.7-2.5-1.5-1.1-0.6-2.2-1.3-0.8-0.7-1.6-1.4 0-1.5 0-3c1.8-1.4 1.8-1.4 4-2.7q1.1-0.6 2.3-1.3 0.8-0.5 1.7-1z"/><path class="M" d="m446 220c2.8 0.5 5.3 1.1 8 2q0.5 1 1 2 3 1.1 6 2 0 1 0 2 1 0.4 2.1 0.8c3.5 1.4 6.6 3.3 9.9 5.2q0 1 0 2c-4-0.6-6.9-1.8-10.3-3.9q-1.3-0.8-2.7-1.6-1-0.8-2-1.5 0-1 0-2-2.5-0.5-5-1 0-1 0-2-1.2-0.2-2.4-0.3c-2.6-0.7-2.6-0.7-4.6-3.7z"/><path class="N" d="m267 587c4.5 1 4.5 1 9 2q0 1.5 0 3c1.1 0.4 1.1 0.4 2.2 0.8 2.6 1.1 5 2.4 7.4 3.8 1.3 0.7 1.3 0.7 2.6 1.5q1.3 0.7 2.6 1.5 1.3 0.8 2.7 1.6 3.2 1.9 6.5 3.8c-3 1-3 1-5.7-0.2q-1.5-0.9-3.1-1.8-0.9-0.5-1.7-1-1.8-1.1-3.6-2.1-2.7-1.6-5.5-3.2c-9.6-5.6-9.6-5.6-13.4-9.7z"/><path class="O" d="m200 326q0.5 1.5 1 3-0.8 0-1.7 0c-5.5 0.4-9 1.6-13.5 4.8-1.9 1.3-3.6 1.8-5.8 2.2 3-7.7 12.2-12.6 20-10z"/><path class="P" d="m276 590q1.5 0 3 0 0.5 1 1 2 2.5 1.5 5.1 2.9c1.4 0.8 1.4 0.8 3 1.6q5.4 2.8 10.9 5.5 0 1 0 2 1.2 0.2 2.4 0.4c2.6 0.6 2.6 0.6 4.6 1.6q-0.5 1-1 2c-2.2 0.3-2.2 0.3-5 0q-1.7-1.8-3.4-3.5c-3.3-3.1-7.5-5-11.4-7.2q-2.6-1.4-5.2-2.9-1.2-0.6-2.3-1.2-0.9-0.6-1.7-1.2 0-1 0-2z"/><path class="Q" d="m-90-49q1 0.5 2 1-1.4 1.7-2.8 3.3c-0.8 0.9-0.8 0.9-1.6 1.9-1.6 1.8-1.6 1.8-3.2 3.3-5.5 5.9-5.5 16-6.4 23.5q-0.5 0-1 0c-0.7-11.6 1.5-20.9 9-30 2.3-1.9 2.3-1.9 4-3z"/><path class="R" d="m302 390q2.4 0.2 4.9 0.4 1.3 0.1 2.7 0.2c2.4 0.4 2.4 0.4 4.4 2.4q-0.5 1-1 2 2.4 1.2 4.8 2.4 1.3 0.7 2.7 1.4c2.5 1.3 2.5 1.3 5.5 2.2q0 1 0 2-2.5 0-5 0 0-1 0-2-1.1-0.4-2.2-0.8c-2.8-1.2-5.3-2.6-7.9-4.2-2.9-1.8-5.8-3.5-8.9-5q0-0.5 0-1z"/><path class="S" d="m503 430q1 1 2 2c-0.1 2-0.1 2-1 4q-2 1-4 2c-0.8 2.1-0.8 2.1-1 4q-1.6 0.2-3.3 0.4c-2.6 0.4-5.1 0.9-7.7 1.6 2.2-3.5 4.1-4.7 8-6 1.1-0.2 1.1-0.2 2.2-0.3 2.1-0.6 2.1-0.6 3-3.1q0.4-1.3 0.8-2.6 0.5-1 1-2z"/><path class="T" d="m492 151q3 1 6 2 0 1 0 2 0.8 0.1 1.7 0.3c5.8 1 10.7 2.8 15.3 6.7q0 1 0 2c-3.5-0.7-6.3-2.1-9.4-3.9-3.1-1.8-5.7-3.1-9.2-4.2-2.4-0.9-2.4-0.9-3.8-3q-0.3-0.9-0.6-1.9z"/><path class="U" d="m356 83c-0.9 0.4-0.9 0.4-1.8 0.8-2.3 1.1-2.3 1.1-3.9 3-3.3 3.1-7.1 5.5-11.3 7.2q-1.5-0.5-3-1c3.6-3 3.6-3 7-3q0.1-1.1 0.2-2.3c0.8-2.7 0.8-2.7 2.9-4.6 3.7-1.4 6.1-0.9 9.9-0.1z"/><path class="V" d="m178 456q0.5 1.5 1 3c-4.8 4.8-8.1 7.9-15 8 1.4-4.1 4-5.1 7.6-7.2q0.9-0.5 1.8-1.1 2.3-1.4 4.6-2.7z"/><path class="W" d="m557 227c0 2 0 2-1.4 3.9-3.1 2.5-5.8 3.3-9.5 4.4-2.4 0.7-2.4 0.7-5.1 2.7q-1.5-0.5-3-1c2-2 2-2 5-2q0.5-1.5 1-3 2.5-1.1 5-2 1.3-0.8 2.6-1.6c2.4-1.4 2.4-1.4 5.4-1.4z"/><path class="X" d="m195 328q1 0.5 2 1c-1 2-1 2-2.8 2.8q-2.2 0.7-4.4 1.4c-2 0.7-2 0.7-2.8 2.8-1.7 1-3.5 2-5.2 3-1.7 0.9-3.2 2-4.8 3 0-3.2 0.7-5.1 2-8q0.5 1 1 2c0.9-0.6 0.9-0.6 1.9-1.2q4.1-2.4 8.3-4.5c1.3-0.7 1.3-0.7 2.6-1.4q1.1-0.4 2.2-0.9z"/><path class="Y" d="m594 507q1 0.5 2 1-3.7 2.4-7.5 4.8-1 0.6-2.1 1.3c-4.7 2.9-9.4 5.5-14.4 7.9q0-1.5 0-3 1.7-0.7 3.4-1.4c3.6-1.2 3.6-1.2 4.6-3.6q2.5-1 5-2 3.5-2 7-4.1c1-0.4 1-0.4 2-0.9z"/><path class="Z" d="m248 356c4.8 0.5 7.9 1.8 11.9 4.4q1.4 1 2.9 1.9c1.1 0.8 1.1 0.8 2.2 1.7q0 1 0 2c-13-4.1-13-4.1-17-10z"/><path class="a0" d="m114 224q0.5 0 1 0c0 9.6 0 19.1 0 29q2 1 4 2c0.8 2.1 0.8 2.1 1 4-4.9-2.9-4.9-2.9-6-4q-0.1-3.4-0.1-6.9 0-1 0-2.1 0-3.3 0-6.6 0-2.2 0.1-4.4 0-5.5 0-11z"/><path class="a1" d="m439 473c-2 3-2 3-4.9 3.9-3.4 1.2-4.2 2.2-6.1 5.1q-1 0-2 0 0 1 0 2c-4.5 1.5-4.5 1.5-9 3 3-3.3 6.3-5.5 10-8q2.7-2.3 5.4-4.7c2.4-1.9 3.8-2.7 6.6-1.3z"/><path class="a2" d="m320 200q-0.5 1-1 2-1.8 0.2-3.7 0.3c-3.3 0.3-5 1-7.5 3.3-2.8 2.4-2.8 2.4-5.7 2.7-1-0.1-1-0.1-2.1-0.3 2.4-3.5 4.2-4.2 8-6q1.2-0.9 2.4-1.8c3.5-1.7 5.9-1 9.6-0.2z"/><path class="a3" d="m400 195c5.1 1.3 9.1 3.8 13.5 6.6 2.5 1.4 4.9 2.4 7.5 3.4q0 1 0 2 2.5 1 5 2c-3 1-3 1-5.3 0q-1.4-0.8-2.8-1.7-1.4-0.8-2.9-1.7-1.6-1-3.1-1.9-1.6-0.9-3.1-1.9c-7.7-4.5-7.7-4.5-8.8-6.8z"/><path class="a4" d="m142 388c3.9 0.5 5.9 1.6 9 4q3 1.1 6 2 0 1 0 2c2 0.7 4 1.3 6 2q-0.5 1-1 2-2-0.5-4-1 0-1 0-2-1 0-2 0 0-1 0-2c-1.9 0.1-1.9 0.1-3.9 0.1-2.2 0.1-2.2 0.1-4.1-0.1-2.2-2.2-4.1-4.6-6-7z"/><path class="a5" d="m444 120q2.6 1.4 5.3 2.8 1.4 0.7 2.9 1.5c2.7 1.6 4.7 3.4 6.8 5.7-3.3 0.6-5.3 0.5-8.1-1.5-5.7-4.8-5.7-4.8-6.9-8.5z"/><path class="a6" d="m614 490c1 3.1 1.3 5 0 8-2.6 2-2.6 2-5.9 3.8q-1.6 0.9-3.2 1.9c-2.9 1.3-2.9 1.3-5.9 0.3q0.5-1 1-2 1.4-0.5 2.9-0.9c3-1.1 4.1-1.7 6.1-4.1q0.8-0.7 1.6-1.4c1.6-1.8 2.4-3.5 3.4-5.6z"/><path class="a7" d="m338 408c4.6 1.6 8.3 4 12.3 6.6q1 0.7 2 1.3 2.3 1.5 4.7 3.1-0.5 1-1 2-2.2-1.2-4.4-2.4c-1.3-0.6-1.3-0.6-2.5-1.3-2.1-1.3-2.1-1.3-3.1-3.3q-2.5-1.1-5-2 0-1 0-2-1.5 0-3 0 0-1 0-2z"/><path class="a8" d="m149 394c2.3 0.3 4.6 0.7 7 1q0 1 0 2 1 0 2 0 0 1 0 2 1.4 0.1 2.9 0.3c3.1 0.7 3.1 0.7 4.5 2.8q0.3 0.9 0.6 1.9c-4.4-1.3-8-3-11.9-5.6q-1.4-0.9-2.9-1.8-1.1-0.8-2.2-1.6 0-0.5 0-1z"/><path class="a9" d="m581 202c4.2 1.3 8.1 2.9 12 5-0.6 1.9-0.6 1.9-2 4-3.1 1.3-3.1 1.3-6 2q1-3 2-6c-2-1-4-2-6-3q0-1 0-2z"/><path class="aa" d="m410 101c4.5 1.3 8.3 3.2 12.4 5.6q1.6 1 3.2 1.9 1.2 0.8 2.4 1.5c-4.9 1.6-9-1.5-13.4-3.7q-1.3-0.6-2.6-1.3 0-1 0-2-1 0-2 0 0-1 0-2z"/><path class="ab" d="m355 540c3.4 0.5 5.1 1.1 8 3 2.6 0.2 2.6 0.2 5 0q-1 2-2 4c-4.5-0.5-7.4-2.3-11-5q0-1 0-2z"/><path class="ac" d="m160 195c0 3 0 3-1.7 5.1-3.4 2.8-7 3.9-11.3 4.9 1.4-4.1 3.3-4.6 7.1-6.7q1.6-0.9 3.3-1.9 1.3-0.7 2.6-1.4z"/><path class="ad" d="m313 393c3.7 1.4 7 3 10.3 5q1.3 0.8 2.7 1.6 1 0.7 2 1.4 0 1 0 2-1 0-2 0 0-1 0-2-1.2-0.1-2.5-0.2c-4.5-1-7.7-3.2-11.5-5.8q0.5-1 1-2z"/><path class="ae" d="m528 245c-2.1 2.3-4.1 3.8-7 5q-1.5 0-3 0-0.5 1.5-1 3c-1.8 0.7-1.8 0.7-4.1 1.2q-1.1 0.2-2.2 0.5-0.8 0.1-1.7 0.3c1.6-1.8 2.5-2.9 4.9-3.4 2.9-0.8 4.1-2.5 6.1-4.6 3.2-2.2 4.3-2.2 8-2z"/><path class="af" d="m256 138q0.5 1.5 1 3-1.5 0.5-3 1-0.5 1.5-1 3c-2.3 0.3-4.6 0.7-7 1 1.2-3.7 2.2-3.9 5.6-5.7q1.2-0.6 2.5-1.3 0.9-0.5 1.9-1z"/><path class="ag" d="m516 453q1.5 1 3 2c-4 3.7-6.4 5.6-12 6 1.2-3.5 2-3.9 5.1-5.7q1.1-0.6 2.2-1.3 0.8-0.5 1.7-1z"/><path class="ah" d="m269 228q-0.5 1.5-1 3c-2.3 0.3-4.6 0.7-7 1 3.5-4 3.5-4 8-4zm-10 4c2 1 2 1 2 1zm-1 1q0.5 1.5 1 3c-3 2-3 2-5.2 1.6q-0.9-0.3-1.8-0.6c2-1.3 4-2.6 6-4z"/><path class="ai" d="m419 204c3.9 0.7 6.8 2.5 10.2 4.4q1.6 1 3.2 1.9c2.6 1.7 2.6 1.7 3.6 3.7-9.8-1.3-9.8-1.3-13.1-4.5-1.9-2.5-1.9-2.5-1.9-4.5q-1-0.5-2-1z"/><path class="aj" d="m187 179q0.5 1.5 1 3-2.4 1.5-4.8 3c-1.4 0.8-1.4 0.8-2.7 1.7-2.5 1.3-2.5 1.3-5.5 1.3 1.3-4 2.9-4.3 6.6-6.2q1.5-0.8 3-1.6 1.2-0.6 2.4-1.2z"/><path class="ak" d="m199 447c2.3 2.1 2.3 2.1 4 4q-1.5 0.5-3 1-1.5-1-3-2c-3.1-0.2-3.1-0.2-6 0 1.6-4.7 3.6-4.4 8-3z"/><path class="al" d="m551 183c11.7 6.2 11.7 6.2 16 10-2.7 0.3-2.7 0.3-6 0-2.6-2.3-2.6-2.3-5-5q-1.4-0.8-2.8-1.7-1.1-0.6-2.2-1.3 0-1 0-2z"/><path class="am" d="m275 372c5 0.5 8.1 1.9 12 5q0.5 1.5 1 3c-4.5-1.7-8.7-3.8-13-6q0-1 0-2z"/><path class="an" d="m245 144q0.5 1 1 2 1.5 0.5 3 1c-3.2 2-6.4 3.7-10 5 0.2-2.3 0.2-2.3 1-5 2.6-1.8 2.6-1.8 5-3z"/><path class="ao" d="m281 123q0.5 2 1 4c-3.4 2.3-4.7 3-9 3 1.5-4.4 4-4.9 8-7z"/><path class="ap" d="m437 501q0.5 2 1 4c-4 2-4 2-8 4q0-2 0-4c2.3-1.3 4.6-2.6 7-4z"/><path class="aq" d="m278 375c3.1 1.2 6.1 2.5 9 4q0.5-1 1-2c2.5 2 2.5 2 5 4q-0.5 1-1 2c-2.9-0.6-5.4-1.6-8.1-2.9q-1-0.5-2.1-1c-1.8-1.1-1.8-1.1-3.8-4.1z"/><path class="ar" d="m208 308c2.3 0.3 4.6 0.7 7 1q0.5 3 1 6c-3-1.6-5.9-3.3-9-5q0.5-1 1-2z"/><path class="as" d="m485 242q1 0 2 0 0 1 0 2 2 0 4 0c2.1 1.9 2.1 1.9 4 4q1 1 2 2c-2.3 0-4.6 0-7 0q0-1.5 0-3c-2.5-1-2.5-1-5-2q0-1.5 0-3z"/><path class="at" d="m489 147q2.8 1.4 5.7 2.8c1.6 0.7 1.6 0.7 3.2 1.5 3 1.6 5.5 3.5 8.1 5.7-2.8-0.5-5.3-1.1-8-2q0-1 0-2-1.7-0.4-3.4-0.8c-3.6-1.2-3.6-1.2-4.8-3.3q-0.4-0.9-0.8-1.9z"/><path class="au" d="m444 120q2.1 2.5 4 5 1.5 1.5 3 3c-5-1.9-9.4-4-13-8 3-1 3-1 6 0z"/><path class="av" d="m343 86q0.5 1 1 2c-1.4 2.8-3.3 3.3-6.1 4.6q-1.3 0.7-2.7 1.4-1.1 0.5-2.2 1 0-1.5 0-3c2.2-1.6 2.2-1.6 5-3.2q1.4-0.8 2.8-1.6 1.1-0.6 2.2-1.2z"/><path class="aw" d="m357 640c4.5-0.2 7.8 0.4 12 2q-1.5 1.5-3 3c-3.8-1.1-6.5-1.9-9-5z"/><path class="ax" d="m326 620c2.3 0.7 4.6 1.3 7 2q0 1 0 2 0.9 0.2 1.8 0.4c1.8 0.5 3.5 1 5.2 1.6q0 1 0 2 1 0.5 2 1c-3.9-0.6-6.8-1.7-10-4q0-1 0-2-1.2-0.2-2.4-0.4-1.3-0.3-2.6-0.6-0.5-1-1-2z"/><path class="ay" d="m301 607c3.9 0.6 6.4 1.7 9.6 3.9q1.2 0.7 2.3 1.5c1.9 1.4 3.5 2.9 5.1 4.6-4-1.5-7.6-3.4-11.3-5.6q-1.6-0.9-3.3-1.8-1.2-0.8-2.4-1.6 0-0.5 0-1z"/><path class="az" d="m193 325c2.3 0.3 4.6 0.7 7 1q0.5 1.5 1 3c-3.3 0-6.6 0-10 0q1-2 2-4z"/><path class="aA" d="m192 540c2.3 0.4 4 1 6 2q0.5 2.5 1 5c-3-1.6-5.9-3.3-9-5q1-1 2-2z"/><path class="aB" d="m362 74q2.5 0 5 0 0.5 1.5 1 3c-2.4 1.4-3.5 2.1-6.3 1.6q-0.8-0.3-1.7-0.6 1-2 2-4z"/><path class="aC" d="m542 539c-3.3 3.7-6.6 5.8-11 8q-1-0.5-2-1 2.5-1 5-2 0-1 0-2c2.3-3.2 4.2-3.3 8-3z"/><path class="aD" d="m416 513q1 1.5 2 3c-4 2.5-4 2.5-8 5 0.2-2.3 0.2-2.3 1-5 2.6-1.8 2.6-1.8 5-3z"/><path class="aE" d="m582 213c-5.3 4.9-5.3 4.9-8.9 5.3-1-0.1-1-0.1-2.1-0.3 3.2-3.5 6.2-6.6 11-5z"/><path class="aF" d="m506 430q1 0 2 0c-0.3 3.9-0.6 5.6-3.4 8.4-2.6 1.6-2.6 1.6-4.6 1.6q0-1 0-2 0.9-0.6 1.9-1.3c2.5-2 3.1-3.7 4.1-6.7z"/><path class="aG" d="m137 386q2.5 0 5 0 0.5 1.5 1 3 2.4 2.1 5 4c-3.9-0.6-6.8-1.7-10-4q-0.5-1.5-1-3z"/><path class="aH" d="m266 132q0.5 1.5 1 3c-3 1.9-5.5 3.4-9 4 1.5-4.4 4-4.9 8-7z"/><path class="aI" d="m293 118q1 0.5 2 1c-4 3-7 4.5-12 5 1-3 1-3 2.8-4.2 2.2-0.8 2.2-0.8 6.2-0.8q0.5-0.5 1-1z"/><path class="aJ" d="m415.2 486.4c0.9 0.3 0.9 0.3 1.8 0.6q-2 0.5-4 1 0 2.5 0 5-2.5 0-5 0c2.5-7.4 2.5-7.4 7.2-6.6z"/><path class="aK" d="m200 326c3.4 1.3 3.4 1.3 7 3 0.9 2.2 0.9 2.2 1 4q-2 0-4 0c-4-4.2-4-4.2-4-7z"/><path class="aL" d="m487 146q1 0 2 0 1.6 2.5 3 5c1 1.5 1 1.5 2 3-3.8-1.8-7.4-3.9-11-6q1-0.5 2-1 1 0.5 2 1 0-1 0-2z"/><path class="aM" d="m125 502c3 0.5 3 0.5 6 1q0.5 1.5 1 3c2.5 1.2 2.5 1.2 5 2q-1.5 0.5-3 1c-2.3-1.2-2.3-1.2-4.7-2.9q-1.2-0.8-2.4-1.7-1-0.7-1.9-1.4 0-0.5 0-1z"/><path class="aN" d="m173 460c-1.5 3.8-3.4 5.2-7 7q-1 0-2 0c1.3-3.9 4.6-7 9-7z"/><path class="aO" d="m584 205q2 1 4 2-1 2.5-2 5-1.5-0.5-3-1-0.1-2.5 0-5 0.5-0.5 1-1z"/><path class="aP" d="m453 464q2.5 0.4 5 1c-2.1 2.3-4.1 3.7-7 5 0.9-4.9 0.9-4.9 2-6z"/><path class="aQ" d="m265 368q0.8 0.2 1.7 0.4 3.5 0.9 7 1.7 1.2 0.2 2.5 0.5 0.9 0.2 1.8 0.4-1.5 0.5-3 1 0 1 0 2c-4-1.4-6.8-3.3-10-6z"/><path class="i" d="m557 226q3 0 6 0c-2.5 3-5.5 4.4-9 6q-1-1-2-2 2.5-0.5 5-1 0-1.5 0-3z"/><path class="aR" d="m412 612q1.5 0.5 3 1-1.5 1-3 2 0 1.5 0 3c-3 1-3 1-5.2 0.1q-0.9-0.6-1.8-1.1 1.4-1 2.9-1.9c2.9-1.8 2.9-1.8 4.1-3.1z"/><path class="aS" d="m130 213q0.5 1.5 1 3c-2 0.7-4 1.3-6 2q0 1 0 2-1.5 0-3 0c1.5-4.4 4-4.9 8-7z"/><path class="aT" d="m302 212q-1.9 1.3-3.9 2.5-1 0.7-2.2 1.4c-1.9 1.1-1.9 1.1-3.9 1.1q0-1.5 0-3 2 0 4 0 0-1 0-2c3.8-1.1 3.8-1.1 6 0z"/><path class="aU" d="m506 157q2 0.9 3.9 1.8c1.1 0.5 1.1 0.5 2.3 1 1.8 1.2 1.8 1.2 2.8 4.2-3.9-0.6-6.2-2.4-9-5q0-1 0-2z"/><path class="aV" d="m384 88c4.8 0.4 6.9 1.3 10 5-4.2 0-6.4-1.8-10-4q0-0.5 0-1z"/><path class="aW" d="m368 75q0.5 1.5 1 3 1 0.2 2 0.5 1 0.2 2 0.5 0.5 1.5 1 3-1 0-2 0 0-1 0-2c-2.3 0-4.6 0-7 0q0-1.5 0-3 1.5 0 3 0 0-1 0-2z"/><path class="aX" d="m156 518c2.4 0.6 4.7 1.2 7 2q0 1 0 2 1 0 2 0-0.5 1-1 2c-3.9-1.3-5.8-2.5-8-6z"/><path class="aY" d="m472 451q2 1 4 2c-1 1.5-1 1.5-2 3-2.6 0.2-2.6 0.2-5 0 1.9-3.9 1.9-3.9 3-5z"/><path class="aZ" d="m491 249c2.3 0.3 4.6 0.7 7 1q1 2.5 2 5-2-0.9-3.9-1.9-1.1-0.5-2.3-1c-1.8-1.1-1.8-1.1-2.8-3.1z"/><path class="b0" d="m375 180c2.3 0.3 4.6 0.7 7 1q0 1 0 2 1 0.5 2 1-1.5 0.5-3 1c-3.2-1.9-3.2-1.9-6-4q0-0.5 0-1z"/><path class="b1" d="m471 137c3.8 1.4 7.4 3.2 11 5-3.1 1-4 0.9-7 0q0-1 0-2-2-0.5-4-1 0-1 0-2z"/><path class="b2" d="m383 628q2.5 0 5 0 0.5 1.5 1 3c-1 0.5-1 0.5-2 1-2.6-0.9-2.6-0.9-5-2q0.5-1 1-2zm-3 3q0 1.5 0 3-1-0.5-2-1 1-1 2-2z"/><path class="b3" d="m243 570c0.9 0.5 0.9 0.5 1.8 0.9 2 1 3.9 1.6 6.2 2.1q0 1 0 2-2.5 0.5-5 1c-3-3.8-3-3.8-3-6z"/><path class="b4" d="m219 460c4.8 0.9 4.8 0.9 7 2q0 1.5 0 3c-2.9-0.8-2.9-0.8-6-2q-0.5-1.5-1-3z"/><path class="b5" d="m186 451q1 1.5 2 3c-2.6 1-5.3 2-8 3 1.2-3.7 2.6-4.2 6-6z"/><path class="b6" d="m503 430q1 1 2 2c-0.2 2-0.2 2-1 4-1.5 1-1.5 1-3 2 0-3.8 0.2-4.9 2-8z"/><path class="b7" d="m329 402c4 2 4 2 8 4q0 1 0 2-2.5-0.5-5-1-0.5-1.5-1-3-1 0-2 0 0-1 0-2z"/><path class="b8" d="m132 364q0.5 1.5 1 3c-4.8 3-4.8 3-7 3 1.2-3.7 2.6-4.2 6-6z"/><path class="b9" d="m349 183c-2.4 2.5-3.7 3.9-7 5q-1-1-2-2c3.1-2.7 4.9-3.3 9-3z"/><path class="ba" d="m227 155q0.5 1.5 1 3c-2.4 1.6-2.4 1.6-5 3q-1-0.5-2-1c3.8-3.9 3.8-3.9 6-5z"/><path class="bb" d="m504 559q1 0.5 2 1c-2.8 2.1-2.8 2.1-6 4-2.2-0.4-2.2-0.4-4-1q1.9-1 3.9-2.1 1-0.5 2.2-1.1 0.9-0.4 1.9-0.8z"/><path class="bc" d="m183 534c3.1 1.2 6.1 2.5 9 4q0 1 0 2c-2.9-0.6-5.4-1.4-8-3q-0.5-1.5-1-3z"/><path class="bd" d="m545 534q2.5 0.5 5 1c-2.7 2.3-4.6 3.9-8 5q0.5-1.5 1-3 1 0 2 0 0-1.5 0-3z"/><path class="be" d="m145 511c4.2 0.5 6.2 3 9 6-3.7-0.3-4.8-0.8-7.3-3.6q-0.8-1.2-1.7-2.4z"/><path class="bf" d="m255 455c3.5 0.6 6 2.1 9 4-2.7 1.4-4.1 0.9-7 0-1.3-2.1-1.3-2.1-2-4z"/><path class="bg" d="m350 418c4.4 1.2 7 2.5 10 6-3-0.5-3-0.5-6-1q0-1 0-2-2-1-4-2 0-0.5 0-1z"/><path class="bh" d="m167 404c2.3 0.7 4.6 1.3 7 2q0.5 2 1 4c-2.6-1.3-5.3-2.6-8-4q0-1 0-2z"/><path class="bi" d="m226 344c4.4 0.5 6.8 3.2 10 6q-1.5 0.5-3 1 0-1 0-2c-2.5-1-2.5-1-5-2q0-1 0-2-1-0.5-2-1z"/><path class="bj" d="m537 240q-1.7 1.3-3.4 2.5c-0.9 0.7-0.9 0.7-1.9 1.4-1.7 1.1-1.7 1.1-3.7 1.1 1.1-2.9 1.7-3.8 4.5-5.3 2.5-0.7 2.5-0.7 4.5 0.3z"/><path class="bk" d="m303 110q1 1.5 2 3-1 0-2 0 0 1 0 2-2 0.5-4 1 0-2 0-4 2-1 4-2z"/><path class="bl" d="m426 482q0 1 0 2c-4.5 1.5-4.5 1.5-9 3 4.8-5 4.8-5 9-5z"/><path class="bm" d="m139 480q0.5 1 1 2 1 0.5 2 1c-4.6 3-4.6 3-8 3 1.4-3.2 2-4 5-6z"/><path class="bn" d="m249 453c5.5 0.5 5.5 0.5 7.9 3.1 0.5 0.9 0.5 0.9 1.1 1.9-4.3-0.5-6.2-1.7-9-5z"/><path class="bo" d="m125 368q0.5 1 1 2 1 0.5 2 1c-1 1.5-1 1.5-2 3q0 1.5 0 3-1.5-1-3-2c0.7-2.3 1.3-4.6 2-7z"/><path class="bp" d="m222 255q1 1.5 2 3c-2.5 1.5-2.5 1.5-5 3q0-2 0-4 1.5-1 3-2z"/><path class="bq" d="m115 253c1.9 0.8 1.9 0.8 4 2 0.8 2.1 0.8 2.1 1 4-2.5-1.3-2.5-1.3-5-3q0-1.5 0-3z"/><path class="br" d="m232 247q3 0 6 0 0 1 0 2c-1.8 1.1-1.8 1.1-4 2q-1.5-0.5-3-1 0.5-1.5 1-3z"/><path class="bs" d="m250 237q1 0.5 2 1-0.5 2.5-1 5-1.5 0.5-3 1c0.9-5.9 0.9-5.9 2-7z"/><path class="av" d="m120 219q0.5 1 1 2-2 2-4 4-1.5-0.5-3-1c3.8-3.9 3.8-3.9 6-5z"/><path class="bt" d="m566 221q0 1.5 0 3-2 0-4 0 0 1 0 2-2-0.5-4-1c5.8-4 5.8-4 8-4z"/><path class="bu" d="m429 112c4.4 1.2 7 2.5 10 6q-2.2-0.6-4.4-1.3-1.3-0.4-2.5-0.8c-1.1-0.4-1.1-0.4-2.1-0.9q-0.5-1.5-1-3z"/><path class="bv" d="m394 94c2.3 0 4.6 0 7 0q-1 1-2 2 1.5 1.5 3 3-3-1-6-2 0-1 0-2-1-0.5-2-1z"/><path class="bw" d="m-90-49q1 0.5 2 1c-1.6 2-3.3 4-5 6q-0.5-2-1-4 2-1.5 4-3z"/><path class="bx" d="m160 523c3 0.5 3 0.5 6 1q0.5 2 1 4c-2.3-1.3-4.6-2.6-7-4q0-0.5 0-1z"/><path class="D" d="m155 277c4.3 0.5 6.2 1.7 9 5-4.3-0.5-6.2-1.7-9-5z"/><path class="by" d="m471 237c3 1 5.9 2 9 3q0 1 0 2c-4.3-0.5-6.2-1.7-9-5z"/><path class="bz" d="m313 199c2.3 0.3 4.6 0.7 7 1q-0.5 1-1 2c-2.3 0-4.6 0-7 0q0.5-1.5 1-3z"/></svg>