<svg version="1.2" xmlns="http://www.w3.org/2000/svg" viewBox="0 0 3324 1012" width="3324" height="1012"><style>.a{fill:#1b2f61}.b{fill:#253158}.c{fill:#1e2e59}.d{fill:#213365}.e{fill:#1d2a53}.f{fill:#222f59}.g{fill:#222d58}.h{fill:#172c61}.i{fill:#1f2c54}.j{fill:#f6fbfe}.k{fill:#eefdfe}.l{fill:#0e1530}.m{fill:#10162f}.n{fill:#0d1237}.o{fill:#151b3b}.p{fill:#272d48}.q{fill:#111737}.r{fill:#151638}.s{fill:#181f43}.t{fill:#151b34}.u{fill:#1d203c}.v{fill:#1c223a}.w{fill:#262b45}.x{fill:#121836}.y{fill:#1f233a}.z{fill:#121c3e}.A{fill:#1b233e}.B{fill:#161a31}.C{fill:#101a39}.D{fill:#151934}.E{fill:#142045}.F{fill:#13193e}.G{fill:#10132d}.H{fill:#131e3d}.I{fill:#171a3b}.J{fill:#121628}.K{fill:#161e3c}.L{fill:#0f102e}.M{fill:#22213f}.N{fill:#0d1530}.O{fill:#121c40}.P{fill:#131836}.Q{fill:#0a1538}.R{fill:#101632}.S{fill:#0c0d28}.T{fill:#151b35}.U{fill:#11162f}.V{fill:#1a1a3b}.W{fill:#11172f}.X{fill:#12142c}.Y{fill:#181833}.Z{fill:#0b123c}.a0{fill:#131d3f}.a1{fill:#131a37}.a2{fill:#1e243f}.a3{fill:#0c1635}.a4{fill:#161a37}.a5{fill:#0f1732}.a6{fill:#141c3d}.a7{fill:#101430}.a8{fill:#131b41}.a9{fill:#252c51}.aa{fill:#151c38}.ab{fill:#131c40}.ac{fill:#0a1332}.ad{fill:#1c2038}.ae{fill:#0d1a41}.af{fill:#0f1736}.ag{fill:#20223e}.ah{fill:#131735}.ai{fill:#111534}.aj{fill:#151e41}.ak{fill:#222843}.al{fill:#191d35}.am{fill:#14193b}.an{fill:#181832}.ao{fill:#25283f}.ap{fill:#0e1839}.aq{fill:#17203c}.ar{fill:#223160}.as{fill:#364879}.at{fill:#131c39}.au{fill:#161f44}.av{fill:#4c5168}.aw{fill:#252b49}.ax{fill:#181937}.ay{fill:#01113c}.az{fill:#1a2442}.aA{fill:#282d4b}.aB{fill:#142047}.aC{fill:#131a33}.aD{fill:#1f2136}.aE{fill:#141c40}.aF{fill:#161b3a}.aG{fill:#121c41}.aH{fill:#0f1d44}.aI{fill:#131b3b}.aJ{fill:#18183a}.aK{fill:#171e32}.aL{fill:#191c3f}.aM{fill:#1e2842}.aN{fill:#2a304d}.aO{fill:#030f42}.aP{fill:#1d2139}.aQ{fill:#171a39}.aR{fill:#11152e}.aS{fill:#101739}.aT{fill:#2d334e}.aU{fill:#141d3c}.aV{fill:#171b32}.aW{fill:#111b3f}.aX{fill:#11172a}.aY{fill:#0b1123}.aZ{fill:#353b57}.b0{fill:#10183a}.b1{fill:#171e3d}.b2{fill:#101a3c}.b3{fill:#151937}.b4{fill:#141730}.b5{fill:#111526}.b6{fill:#0f1a42}.b7{fill:#1b284d}.b8{fill:#061235}.b9{fill:#11152b}.ba{fill:#17193f}.bb{fill:#142757}.bc{fill:#12193f}.bd{fill:#21233d}.be{fill:#111b38}.bf{fill:#0c1035}.bg{fill:#161b47}.bh{fill:#10224c}.bi{fill:#111a3a}.bj{fill:#0c1334}.bk{fill:#1f2642}.bl{fill:#11162e}.bm{fill:#121a3b}.bn{fill:#151a34}.bo{fill:#222a3e}.bp{fill:#1b1e34}.bq{fill:#161f48}.br{fill:#0c1b44}.bs{fill:#172141}.bt{fill:#112450}.bu{fill:#122250}.bv{fill:#121329}.bw{fill:#0e182d}.bx{fill:#1a1c3d}.by{fill:#242441}.bz{fill:#1e1e3c}.bA{fill:#050b25}.bB{fill:#0a173d}.bC{fill:#2a2f48}.bD{fill:#0e132b}.bE{fill:#1a2032}.bF{fill:#192248}.bG{fill:#0b1028}.bH{fill:#141935}.bI{fill:#0f1534}.bJ{fill:#1a2d57}.bK{fill:#0e1d46}.bL{fill:#131b38}.bM{fill:#080d26}.bN{fill:#151932}.bO{fill:#1b1c3e}.bP{fill:#111f46}.bQ{fill:#162753}.bR{fill:#0e1737}.bS{fill:#191936}.bT{fill:#142756}.bU{fill:#0e183a}.bV{fill:#0d183f}.bW{fill:#0a0e1f}.bX{fill:#101d44}.bY{fill:#172342}.bZ{fill:#0e183b}.c0{fill:#13182b}.c1{fill:#10193a}.c2{fill:#1b274b}.c3{fill:#161e3e}.c4{fill:#161734}.c5{fill:#1a1b3e}.c6{fill:#212f5f}.c7{fill:#222240}.c8{fill:#121630}.c9{fill:#222443}.ca{fill:#1b1b39}.cb{fill:#142143}.cc{fill:#192041}.cd{fill:#0b102d}.ce{fill:#18254a}.cf{fill:#121939}.cg{fill:#1b1c2d}.ch{fill:#171c3e}.ci{fill:#18203f}.cj{fill:#0f1531}.ck{fill:#182241}.cl{fill:#1b1d39}.cm{fill:#152551}.cn{fill:#16182d}.co{fill:#1f233b}.cp{fill:#0b0b1f}.cq{fill:#0b1432}.cr{fill:#19234b}.cs{fill:#17214a}.ct{fill:#090c25}.cu{fill:#070f29}.cv{fill:#101838}.cw{fill:#21233f}.cx{fill:#1a213e}.cy{fill:#12122a}.cz{fill:#151b31}.cA{fill:#131b3d}.cB{fill:#131c41}.cC{fill:#191e40}.cD{fill:#0e193c}.cE{fill:#111731}.cF{fill:#0f1330}.cG{fill:#1d223c}.cH{fill:#16192f}.cI{fill:#131a3e}.cJ{fill:#131528}.cK{fill:#1c2447}.cL{fill:#2c2c45}.cM{fill:#09122e}.cN{fill:#111b45}.cO{fill:#121937}.cP{fill:#171932}.cQ{fill:#1d2540}.cR{fill:#10182f}.cS{fill:#0f193d}.cT{fill:#0e0e2f}.cU{fill:#14193a}.cV{fill:#111936}.cW{fill:#202641}.cX{fill:#17203e}.cY{fill:#151b2d}.cZ{fill:#131628}.d0{fill:#131936}.d1{fill:#0d1945}.d2{fill:#0f1c3f}.d3{fill:#090f22}.d4{fill:#0d1334}.d5{fill:#1d2545}.d6{fill:#292841}.d7{fill:#202342}.d8{fill:#171a34}.d9{fill:#232443}.da{fill:#101f40}.db{fill:#0e0f35}.dc{fill:#202443}.dd{fill:#181e3e}.de{fill:#081947}.df{fill:#181c3c}.dg{fill:#141b42}.dh{fill:#1b1c3a}.di{fill:#1e1c32}.dj{fill:#2e3866}.dk{fill:#111835}.dl{fill:#191f3c}.dm{fill:#141b35}.dn{fill:#192245}.do{fill:#161933}.dp{fill:#23223a}.dq{fill:#192a53}.dr{fill:#0f142a}.ds{fill:#222842}.dt{fill:#0a1132}.du{fill:#141b32}.dv{fill:#1c2244}.dw{fill:#101228}.dx{fill:#171e39}.dy{fill:#10214c}.dz{fill:#171c33}.dA{fill:#25294c}.dB{fill:#1b1c35}.dC{fill:#0a0e28}.dD{fill:#0d122d}.dE{fill:#1d1c39}.dF{fill:#141835}.dG{fill:#1f1e3e}.dH{fill:#081334}.dI{fill:#121e40}.dJ{fill:#090b25}.dK{fill:#0a1228}.dL{fill:#1b2649}.dM{fill:#142147}.dN{fill:#33344f}.dO{fill:#111733}.dP{fill:#242640}.dQ{fill:#151335}.dR{fill:#112045}.dS{fill:#161f3e}.dT{fill:#162855}.dU{fill:#0b132a}.dV{fill:#122452}.dW{fill:#0e152f}.dX{fill:#191f39}.dY{fill:#0d122e}.dZ{fill:#313558}.e0{fill:#181d35}.e1{fill:#1a1a30}.e2{fill:#1a2240}.e3{fill:#14192a}.e4{fill:#131729}.e5{fill:#111636}.e6{fill:#071133}.e7{fill:#0d2150}.e8{fill:#0b0e1b}.e9{fill:#23293d}.ea{fill:#0f1c41}.eb{fill:#2b304d}.ec{fill:#1c2445}.ed{fill:#121a2b}.ee{fill:#111339}.ef{fill:#1f2142}.eg{fill:#11162c}.eh{fill:#0c1539}.ei{fill:#121c44}.ej{fill:#162049}.ek{fill:#192342}.el{fill:#242b45}.em{fill:#0c1438}.en{fill:#10132e}.eo{fill:#1d2642}.ep{fill:#0d0f26}.eq{fill:#0b1131}.er{fill:#090d2a}.es{fill:#0d1736}.et{fill:#08112d}.eu{fill:#1a284d}.ev{fill:#16203e}.ew{fill:#191c2b}.ex{fill:#14182d}.ey{fill:#131f49}.ez{fill:#252a47}.eA{fill:#0e112b}.eB{fill:#1a1e34}.eC{fill:#141b38}.eD{fill:#111e3b}.eE{fill:#1b1a3b}.eF{fill:#152247}.eG{fill:#0c183a}.eH{fill:#10204c}.eI{fill:#171823}.eJ{fill:#0d2154}.eK{fill:#0a0c1c}.eL{fill:#192347}.eM{fill:#151c35}.eN{fill:#191a38}.eO{fill:#0e152b}.eP{fill:#0e1734}.eQ{fill:#23253d}.eR{fill:#1f223b}.eS{fill:#0f142b}.eT{fill:#0f1a3b}.eU{fill:#13214b}.eV{fill:#1b203c}.eW{fill:#151b33}.eX{fill:#0a122f}.eY{fill:#080f20}.eZ{fill:#0e1022}.f0{fill:#0f214f}.f1{fill:#0e142d}.f2{fill:#1c294b}.f3{fill:#131d42}.f4{fill:#1e274c}.f5{fill:#1f2b4d}.f6{fill:#0d1226}.f7{fill:#bed2ea}.f8{fill:#252841}.f9{fill:#43485d}.fa{fill:#26385b}.fb{fill:#121a3f}.fc{fill:#151e46}.fd{fill:#111c3b}.fe{fill:#17213f}.ff{fill:#1f2239}.fg{fill:#262d40}.fh{fill:#1d253e}.fi{fill:#181b32}.fj{fill:#0d163a}.fk{fill:#18264c}.fl{fill:#101337}.fm{fill:#121b39}.fn{fill:#031036}.fo{fill:#0d173f}.fp{fill:#0c0d1d}.fq{fill:#182248}.fr{fill:#162145}.fs{fill:#3c4871}.ft{fill:#111b3b}.fu{fill:#1c284e}.fv{fill:#080b22}.fw{fill:#1a192a}.fx{fill:#141827}.fy{fill:#272b4b}.fz{fill:#1c223b}.fA{fill:#1c1d25}</style><path class="a" d="m520 447q56.8 0 113.6-0.1 6.8 0 13.5 0 1.3 0 2.7 0 21.6 0 43.2 0 22.2 0 44.5 0 12.4 0 24.9 0c67.4-0.1 67.4-0.1 94.6 1.1q0.1 43.9 0.2 87.9 0 5.2 0 10.4 0 1 0 2 0 16.8 0 33.5 0.1 17.1 0.1 34.3 0 9.6 0 19.3 0 9 0 18.1 0 3.3 0.1 6.7 0 4.5 0 9.1 0 1.3 0 2.6c-0.1 6.4-1 12.1-5.1 17.3-6.3 5.2-13 9.8-19.8 14.2q-4.3 2.8-8.5 5.6c-20 13.1-40.3 25.7-61.1 37.6q-6.9 3.9-13.7 8.1c-3.2 1.9-6.6 3.7-10 5.5-10.5 5.7-20.9 11.6-31.1 17.6-23.3 13.8-46.9 26.9-70.5 40.1q-1.5 0.9-3.1 1.8-8.1 4.5-16.2 9c-9.9 5.5-19.8 11.1-29.4 17.1-5.4 3.4-10.9 6.7-16.4 10-8.2 5-16.3 10-24.2 15.4q-1.1 0.8-2.3 1.5-2.2 1.6-4.4 3.1c-5.5 3.7-10.8 7.3-17.6 7.1-3.8-1.2-7-2.9-10.4-5-5.9-3.5-12-6.6-18.2-9.7-7.7-3.8-15.3-7.8-22.9-11.8-1.1-0.6-1.1-0.6-2.2-1.2-12.3-6.5-24.3-13.3-36.3-20.4q-4.9-2.9-9.8-5.8c-24-14-47.9-28.1-71.6-42.6-8.9-5.4-17.8-10.7-26.8-16q-1-0.6-2-1.2-1-0.6-2.1-1.3-2-1.1-4-2.3c-1-0.6-1-0.6-2-1.2-19.1-11.3-38-22.8-56.9-34.3q-1.8-1.1-3.6-2.2c-45.7-27.8-45.7-27.8-54.2-36.9 1.4-3.6 3.1-5 6.4-6.9q1.4-0.8 2.8-1.5 6.8-3.8 13.7-7.4 3.1-1.5 6.1-3.1 4.3-2.2 8.7-4.5c14.8-7.6 28.9-15.9 42.7-25.2q1.3-1 2.7-1.9c5.2-3.5 10-7.1 14.7-11.2 3-1.7 4.8-1.7 8.2-1.3 2.5 1.1 2.5 1.1 5.1 2.6q1.4 0.8 2.8 1.7 1.5 0.9 3.1 1.9c1.6 0.9 1.6 0.9 3.2 1.9q3.3 2 6.6 4 5.9 3.5 11.9 7c7.1 4.2 14.1 8.3 21 12.7 10.5 6.6 21.2 12.9 31.9 19.2q3.3 1.9 6.5 3.8c15.8 9.4 31.8 18.4 47.9 27.2q1.4 0.8 2.9 1.6c12.7 7 25.6 13.8 38.6 20.5q2.5 1.3 5.1 2.6c8.1 4.2 16.2 8.4 24.6 12 1.7 0.7 1.7 0.7 3.4 1.4 5.3 1.4 9.6 0.8 14.6-1.7 1.6-1.1 1.6-1.1 3.2-2.2q0.9-0.5 1.8-1.1c4.1-2.8 8.1-5.8 12.1-8.7q1.1-0.8 2.2-1.7 1.1-0.8 2.3-1.6c6.8-5 13.9-9.2 21.2-13.4 5.4-3.1 10.5-6.3 15.6-9.8 6.5-4.4 13.2-8.4 19.9-12.4q8-4.8 15.9-9.8 1-0.6 2-1.2 1.9-1.2 3.8-2.4c16.8-10.5 33.8-20.6 51.2-29.9 5.9-3.2 11.6-6.6 17.2-10.2 5.1-3 10.3-5.7 15.6-8.3q3.4-1.8 6.8-3.7 1.1-0.6 2.2-1.3c5.4-3.4 6.8-6.5 8.2-12.5 1-5.6 1-11.1 0.9-16.7q0-1.9 0-3.8 0-5-0.1-9.9 0-5-0.1-10.1 0-9.8-0.1-19.7-1.1 0.1-2.2 0.2c-7.6 0.7-15.1 1.1-22.7 1.3-1.9 0.1-1.9 0.1-3.8 0.2-16.4 0.5-32.7 0.7-49.1 0.9q-1.3 0-2.6 0-43.7 0.5-87.5 0.6-4.4 0-8.8 0-7 0-13.9 0-2.6 0-5.1 0-3.5 0.1-7.1 0-1.9 0-3.9 0c-3.1-0.2-4.8-0.4-7.3-2.2-8.7-19.7-4.1-49.4-4.1-70.7q0-6.6 0.1-13.3 0-13 0-26z"/><path class="b" d="m2947.5 339.7c1.2 0 1.2 0 2.4 0 46.9 0.2 90.9 14.5 127.1 44.3q1.3 1.1 2.7 2.2c4 3.4 4 3.4 5.3 4.8q0 1 0 2 1 0 2 0c25.6 24 40.7 59.1 47 93 0.3 1.7 0.3 1.7 0.7 3.5 3.2 19.5 2.3 40.2-1.7 59.5q-0.3 1.3-0.5 2.6c-6.2 29.7-18.8 55.2-39.5 77.4q-2 2.3-4.1 4.7c-3.7 4.1-7.6 7.8-11.9 11.3q-0.7 0.6-1.5 1.2c-8.7 7.2-17.6 13.4-27.5 18.8q-0.9 0.5-1.9 1.1c-48.8 26.3-104.7 27.2-157.1 12-46.3-14-78.9-43-101.6-85.3-12-23.5-18.8-49.4-18.7-75.8q0-1.9 0-3.8c0.1-11.3 1.2-22.1 3.3-33.2q0.2-1.1 0.4-2.3c7.9-40.8 32.7-79.8 66.3-104.3 20.5-13.7 42.7-23 66.5-29.1q1.1-0.3 2.3-0.7c13.2-3.2 26.4-4 40-3.9z"/><path class="c" d="m1464 344c205.7 0 205.7 0 240 22q0.9 0.5 1.7 1.1c13.7 8.9 25.4 20.2 34.3 33.9 1 1.5 1 1.5 2 3 18.1 27.7 17.3 59.1 11.2 90.5-6.1 27.9-24.1 52.1-46.2 69.5q-3 2.4-5.9 4.8c-1.4 1.1-1.4 1.1-2.7 2.2q-1.2 1-2.4 2c-1.2 0.9-1.2 0.9-2.4 1.8-1.9 2.2-1.9 2.2-1.6 5.5 1.2 4.3 2.9 7.4 5.4 11.1q0.6 1.1 1.3 2.1 2.1 3.3 4.3 6.5 0.7 1 1.4 2.1c7.9 11.9 16.5 23.1 25.5 34.3q2.3 2.9 4.7 5.9 1.3 1.7 2.7 3.5 0.7 0.9 1.4 1.8 4.2 5.4 8.7 10.5c13.4 15.5 13.4 15.5 13.6 23.9-4.7 4.7-22.7 2.2-29.2 2.2q-2 0-4 0-4 0-8.1 0-5.2 0-10.4 0-5 0-10 0-1.8 0-3.7 0.1c-13.9-0.1-13.9-0.1-18.8-4.1q-0.8-1-1.8-2.1-1-1.3-2-2.5c-3.4-4.4-6.6-8.9-9.7-13.5q-1-1.5-2.1-3-2.1-3.1-4.2-6.2-2.6-3.8-5.3-7.7-7.7-11.2-15.3-22.6c-9.2-13.9-9.2-13.9-18.7-27.7q-0.6-0.8-1.3-1.8c-2.4-3.4-4.3-5.2-8.4-6.1-9.1-0.7-18.4 0.4-27.5 0.9q-3.5 0.2-6.9 0.4-2.3 0.2-4.6 0.3-6.1 0.4-12.1 0.7-1.3 0-2.6 0.1-2.4 0.1-4.8 0.2c-3.5-0.1-3.5-0.1-6.5 1.4q-0.1 4.2-0.1 8.5 0 1.3 0 2.7 0 4.4 0 8.8 0 3.1 0 6.1 0 8.1 0 16.2 0 8.2 0.1 16.4 0 16.2 0 32.3c-25.2 4.4-52.9 2-78 2-0.3-112.2-0.7-224.4-1-340z"/><path class="d" d="m527 140c5.5 2 10.7 4.5 16 7q1.4 0.7 2.8 1.3 11.2 5.3 22.2 10.7c1.3 0.6 1.3 0.6 2.7 1.3 11.6 5.6 22.9 11.7 34 18.1 6.9 4 13.8 7.8 20.7 11.6q1 0.5 1.9 1 14 7.7 28 15.3c7.8 4.2 15.4 8.5 23.1 12.8 6.8 3.9 13.7 7.7 20.6 11.4 16.8 9 33.3 18.5 49.7 28.1 7.7 4.5 15.4 8.8 23.1 13 11 6.1 21.7 12.5 32.2 19.4 1.1 0.7 1.1 0.7 2.1 1.4 6.8 4.4 13.4 8.9 19.9 13.6-1.2 3.7-2 3.8-5.4 5.5q-1.4 0.7-2.9 1.5-1.5 0.7-3 1.5-3.2 1.6-6.3 3.2-1.6 0.9-3.3 1.7c-12.5 6.4-24.5 13.2-36.1 21.2-4.6 3.2-9.3 6.3-14 9.4q-3.2 2.1-6.3 4.2c-21.7 14.5-21.7 14.5-27.7 13.8-4.1-1.7-7.7-4.2-11.4-6.6-7-4.5-14.2-8.5-21.5-12.4q-1.9-1-3.7-1.9-3.8-2.1-7.6-4.1c-16.9-8.9-33.7-18-50.3-27.5q-6.5-3.8-13-7.5-7.7-4.4-15.5-8.9-14.4-8.3-29-16.4-1.8-1-3.7-2c-18.6-11.5-18.6-11.5-39.3-14.7-4.7 1.8-9.1 4.2-13.6 6.6q-1.9 1.1-3.8 2.1c-11.1 5.9-22 12.2-32.8 18.6-4.6 2.7-9.2 5.4-13.9 8q-9 5.2-18 10.6c-5.2 3.1-10.5 5.9-15.9 8.6-3.7 1.8-7.2 3.9-10.8 5.9-5.1 3-10.4 5.9-15.6 8.8q-19.5 10.8-38.8 22.1-4.2 2.5-8.5 5-2.7 1.6-5.4 3.2-1.2 0.7-2.4 1.4-3.3 2-6.5 4.1-1 0.6-2 1.3c-6 4.2-6.8 9.8-8 16.7-0.4 4.3-0.5 8.7-0.5 13q0 1.8 0 3.6-0.1 5.7-0.1 11.3-0.1 5.7-0.1 11.4-0.1 3.5-0.1 7.1 0 1.5 0 3.2-0.1 1.4-0.1 2.8c-0.1 2.6-0.5 5-1.1 7.6-11.9-2.1-21.9-9.4-31.7-16.1-5.1-3.4-10.2-6.8-15.4-10.2q-1.4-0.9-2.9-1.9-10.3-6.7-20.7-13.2c-20.2-12.9-39.3-26.6-56.4-43.5q-0.8-0.8-1.6-1.6c-7.9-7.9-7.9-7.9-8.7-13.6 2.3-15.9 27-33.6 38.9-42.4 6.3-4.6 12.9-8.5 19.5-12.5q1.2-0.7 2.5-1.5 16.2-9.7 32.6-19c6.2-3.5 12.4-7.2 18.5-10.8 9.3-5.5 18.7-10.8 28.2-16 10.6-5.9 21-12 31.4-18.1q16.9-9.9 34-19.5 5.4-3 10.7-6 16.8-9.6 33.9-18.8 16.9-9.2 33.6-18.8 4-2.3 7.9-4.5c11.1-6.2 21.7-12.8 32.2-20 4.1-2.7 7.8-2.1 12.5-1z"/><path class="e" d="m1817 344c83.2 0 166.3 0 252 0 2 4.1 2.4 7 2.6 11.4q0.1 1.1 0.1 2.2c0.4 8.7 0.5 17.4 0.4 26.1q0 4.3 0 8.5 0 2.6 0 5.3 0 1.3 0 2.6c0 5.8 0 5.8-1.1 6.9-14.4 1.7-29.1 1.2-43.6 1.3q-5.4 0-10.8 0-13.8 0.1-27.5 0.2-14.7 0.1-29.5 0.2-5.4 0-10.7 0c-17.7 0.1-35.3 0.5-52.9 1.3-1 3.1-1.1 5.1-1.1 8.3 0 1.7 0 1.7 0 3.3q0 1.8 0 3.6c0 1.9 0 1.9 0 3.7q0 3.9 0 7.8 0 5.9 0 11.7 0 3.8 0 7.6c0 1.7 0 1.7 0 3.5 0 6.3 0.3 12.3 1.1 18.5 3.8 0.9 7.3 1.1 11.2 1.1q1.8 0 3.8 0 2 0 4.1 0 2.1 0 4.3 0 5.9 0 11.8 0 6.2 0 12.3 0 11.7 0 23.3 0 13.3 0 26.6 0 27.3-0.1 54.6-0.1c1.7 4.1 2.5 7.8 3 12.3q0.2 1 0.3 2.1 0.3 2.2 0.5 4.4 0.4 3.3 0.8 6.7c2.5 21.5 2.5 21.5 2.5 31.7q0 1.6 0 3.3c-0.1 2.5-0.1 2.5-1.1 3.5-5.9 1-11.8 1.2-17.8 1.3q-1.2 0-2.5 0.1-4.2 0.1-8.3 0.2-1.5 0-2.9 0c-24.8 0.5-49.5 0.5-74.3 0.5q-9 0-18.1-0.1-17.5 0-35.1 0 0 13.8-0.1 27.5 0 6.4 0 12.8 0 6.2 0 12.3 0 2.4 0 4.7 0 3.3 0 6.6 0 1.9 0 3.8c0.1 2.9 0.4 5.5 1.1 8.3 20.7 0.1 41.4 0 62-0.4q1.6-0.1 3.2-0.1 12.8-0.3 25.6-0.6 11.2-0.2 22.4-0.5 1.5 0 3.1 0c21.9-0.5 43.8-0.5 65.7-0.4q0.1 11 0.1 22 0 5.1 0.1 10.2 0 5.9 0 11.7 0 1.9 0 3.7 0 1.7 0 3.5 0 1.5 0 3c-0.2 3.2-1.1 5.9-2.2 8.9-3.2 0.7-6.2 1.1-9.6 1.1q-1.3 0-2.7 0-1.4 0-2.9 0-1.5 0-3.1 0-5.3 0-10.5 0-3.7 0-7.5 0-9.1 0-18.2 0-7.3 0-14.7 0c-1.1 0-1.1 0-2.2 0q-2.1 0-4.2 0-20.1 0-40.1 0-17.2 0-34.4 0-20 0-39.9 0-2.2 0-4.3 0-1 0-2.1 0-7.4 0-14.8 0-9.9 0-19.9 0-3.6 0-7.3 0-4.9 0-9.9 0-1.5 0-3 0-1.3 0-2.6 0-1.2 0-2.4 0c-1.7-0.1-1.7-0.1-2.7-1.1q-0.1-2.7-0.1-5.4 0-1.8 0-3.6 0-1.9 0-4 0-2 0-4.1 0-5.8 0-11.6 0-6.2 0-12.4 0-10.8 0-21.6 0-15.6 0-31.2 0-25.3 0-50.6 0-24.6 0-49.1 0-1.6 0-3.1 0-12 0.1-24 0-58.6 0-117.3z"/><path class="f" d="m1259.6 338.7q1.4 0 2.8 0c45.5 0.2 96.5 15.3 129.6 48.3q1.2 1.2 2.4 2.4c4.3 4.4 4.3 4.4 5.6 6.6-0.3 5.9-4.1 9.9-8 14-2.3 1.9-4.8 3.5-7.3 5.2-10.3 6.8-21 14.6-29.4 23.8-2.5 2.5-3.4 3-6.9 4.2-6.8-0.4-11-5.4-15.4-10.2q0-1 0-2-0.8-0.4-1.7-0.8c-2.5-1.3-4.7-2.8-6.9-4.5-24.1-16.9-57.6-19.7-86-16.2-25.5 4.5-49 18.8-64.1 39.8-13 19.2-18.7 40.4-18.6 63.5q0 1.9 0 3.8c0.1 8.8 0.8 16.8 3.3 25.4q0.5 1.9 1 3.8c7.2 27 24.2 47.1 48 61.2 28.8 15.7 63.9 15.2 94.9 6.1 8.5-2.9 8.5-2.9 14.2-9.6 2.3-4.7 2.4-8.8 2.3-13.9q0-1.4 0-2.8 0-4.4-0.1-8.9 0-3.1 0-6.2-0.1-8.1-0.1-16.2-0.2-13.1-0.2-26.2-0.1-4.5-0.1-9.1 0-2.8-0.1-5.6 0-1.2 0-2.5c0-2.1 0.1-4.1 0.2-6.1 2.6-2.6 3.7-2.3 7.3-2.3q1.7 0 3.4 0c1.9 0 1.9 0 3.7 0q1.9 0 3.8 0 4 0 8 0 4.1 0.1 8.1 0 5.9 0 11.8 0c1.8 0 1.8 0 3.6 0 7.8 0.1 15.8 0.2 23.3 2.3 2.1 3.2 2.2 4 2.2 7.6q0 1.4 0 2.8 0 1.5 0 3 0 1.4 0 2.8c0 4.9-0.3 9.8-0.7 14.7-0.7 8.4-0.6 16.9-0.6 25.3q0 4.2 0 8.3c0 10 0.2 20 0.7 30.1 0.4 7.5 0.6 15.1 0.7 22.7 0 1.8 0 1.8 0 3.6 0 8-0.1 16.1-6 22.2-4.7 3.6-10.2 6-15.5 8.6-3.4 1.6-6.8 3.4-10.2 5.2-22.7 12-46.3 18.9-71.6 23.1q-1.1 0.2-2.2 0.4c-48.8 8.6-103.1-3.4-143.7-31.5-5.2-3.7-10.3-7.6-15.1-11.9q-0.7-0.6-1.5-1.3c-7-6.1-13.5-12.6-19.5-19.7q-1.2-1.4-2.4-2.8c-11.2-14-19.5-29.1-24.6-46.2q-0.6-1.8-1.1-3.6c-2.5-8.4-4.4-16.8-5.9-25.4q-0.3-1.3-0.5-2.7c-1.8-9.9-1.9-19.6-1.9-29.6q0-1.3 0-2.7c0-14.5 1.2-28 5.4-42q0.4-1.3 0.8-2.7c5.1-18.1 13.1-35.1 24.2-50.3 0.7-0.9 0.7-0.9 1.3-1.9 17.7-24.5 38.3-41.3 65.7-54.1q1.7-0.8 3.5-1.6c13.1-5.9 26.8-9.9 40.8-13.1q1.3-0.3 2.6-0.7c14.3-3.1 28.1-4 42.7-3.9z"/><path class="g" d="m2161.4 342.8q1.4 0 2.9 0c14.2 0 14.2 0 19.5 4.8 2.7 3.8 4.5 8.1 6.3 12.5 0.5 1.3 0.5 1.3 1.1 2.7q1.3 3 2.5 6 2 4.9 4 9.7 7.4 17.9 14.7 35.8 22.8 56.7 48 112.3c6.1 13.3 11.6 26.8 16.8 40.4q0.3 1 0.7 1.9 1 2.6 2 5.2c0.9 2.4 1.9 4.6 3.1 6.9 6.1-12.8 11.8-25.7 17-38.8 7.4-18.5 15.5-36.7 23.6-54.9q3.4-7.5 6.7-15 4.5-10.1 9-20.1 2.2-5 4.4-10 9.9-22.4 20.5-44.6c6.6-14.2 13.3-28.3 19.1-42.9 0.7-1.6 0.7-1.6 1.3-3.3q0.6-1.4 1.2-3c1.2-2.4 1.2-2.4 4.2-4.4 3.1-0.2 3.1-0.2 7-0.2q1.1 0 2.2 0 3.5 0 7.1 0 2.4 0 4.9 0 6.4 0 12.8 0.1 6.6 0 13.2 0 12.9 0 25.8 0.1c-1.8 6.1-3.7 12.1-6.1 18q-0.5 1.1-0.9 2.2-1.4 3.5-2.9 7-0.5 1.3-1 2.5c-6 14.7-12.2 29.2-18.5 43.7q-3.9 9-7.7 17.9-5.7 13.4-11.6 26.6c-5.7 13-11.4 26.1-16.8 39.2-0.7 1.6-0.7 1.6-1.3 3.2q-1.3 2.9-2.5 5.9-3.3 8.1-7.1 16c-3.8 8-7.2 16.2-10.6 24.5q-1 2.3-2 4.7-1.5 3.7-3 7.3-3.4 8.2-6.8 16.3-1.8 4.4-3.7 8.9-0.5 1.1-0.9 2.2-5.5 13-10.6 26-0.5 1.3-1 2.6-2.4 6.1-4.7 12.2c-3.4 8.7-7.2 17.1-11.4 25.4-3.1 6.1-5.8 12.3-8.6 18.5q-0.6 1.3-1.2 2.8-0.5 1.2-1.1 2.4c-1 2-1 2-3 4-2.4 0.2-2.4 0.2-5.5 0.2q-1.7 0-3.5 0.1-1.9-0.1-3.8-0.1-2 0-4 0-4.1 0-8.2 0-5.3 0-10.5 0-5 0-10.1 0-1.8 0-3.7 0c-23.6-0.2-23.6-0.2-29.7-3.2-1.4-2-1.4-2-2.5-4.5q-0.7-1.3-1.3-2.7-0.6-1.4-1.2-2.8-0.5-1.2-1.1-2.5-1.7-3.8-3.3-7.8-0.6-1.5-1.3-3c-3.5-8.7-7-17.5-10.4-26.3-8.2-21-17-41.7-25.9-62.4-11.6-27-23.1-54.1-34-81.5-14.6-36.8-30.1-73.2-46.6-109.2-12.5-27.3-12.5-27.3-12.4-34.3 46.3-1.1 46.3-1.1 62.4-1.2z"/><path class="h" d="m291.7 458.7q1.3 0.6 2.7 1.2 1.3 0.5 2.6 1.1 2.5 1 5 2c13.4 5.6 25.7 12.1 38 19.7 6.8 4.2 13.6 8.2 20.5 12.3 9.8 5.8 19.5 11.6 29.2 17.6 8.1 5.1 16.3 9.9 24.5 14.7 18.9 11 37.5 22.4 55.8 34.4q3.1 2 6.3 4.1 1.1 0.7 2.2 1.4 2.1 1.3 4.3 2.7 5.2 3.4 10.3 6.9c6.7 4.6 13.1 8.7 20.9 11.2q1.5 0.5 3 1c5.1 0.3 10.2 0.2 15.3 0.2q1.3 0 2.5 0c12.2 0 24.4-0.3 36.5-0.6q1-0.1 2.1-0.1 5.3-0.2 10.6-0.4 1.1 0 2.2 0 2.2-0.1 4.4-0.2c26.7-0.8 53.5-1.1 80.3-1q1.3 0 2.7 0 16.7 0 33.4 0.1-0.2 2.1-0.4 4.3-0.1 1.1-0.2 2.3c-1.9 12-12.8 20.1-21.9 26.8-7 5.1-14.4 9.6-21.8 14q-4.5 2.7-8.9 5.3-18.6 11.1-37.4 21.9-10.5 6-21 12.2-1.3 0.8-2.7 1.6-5 3-9.9 5.9c-14 8.3-28.2 16.3-42.4 24.2q-1.2 0.6-2.5 1.3-1 0.6-2.1 1.2-2.4 1.4-4.8 2.8c-6.6 2.6-13.4 1.3-19.9-1.2q-1.2-0.4-2.4-0.9c-22.5-8.9-43.7-22.1-64.7-34q-4.7-2.7-9.5-5.3c-9.8-5.5-19.5-10.9-29.1-16.6-5.9-3.5-11.9-6.9-17.9-10.3q-14.4-8.1-28.5-16.5-1.7-1-3.4-2-5.8-3.5-11.6-7-1.5-0.9-3-1.8-24.6-14.9-49-30.2-1.2-0.8-2.5-1.6c-35.4-22.2-35.4-22.2-51.2-32.9q-5.7-3.8-11.5-7.5-10.2-6.5-20.1-13.4c-1.1-0.8-1.1-0.8-2.2-1.5-7.6-5.4-7.6-5.4-9.5-8.1-0.1-4 0.6-5.5 3.3-8.5q1.4-1.2 3-2.4c0.8-0.6 0.8-0.6 1.6-1.3 4.6-3.6 9.5-6.6 14.5-9.6 4-2.4 7.8-5.2 11.5-7.9 7.7-5.7 15.6-11.1 23.5-16.4q1.9-1.3 3.9-2.6c25.1-17 25.1-17 35.4-12.6z"/><path class="i" d="m2577 343c0 90.4 0 180.8 0 274 75.7 2.4 75.7 2.4 152-2q3.2-0.1 6.5-0.1 1.6 0.1 3.2 0.1c1.1 0 1.1 0 2.3 0 3.9 7.8 3.2 17.4 3.2 25.9q0 1.5 0 3.1 0 3.1 0 6.2 0 4.9 0 9.7 0 3 0 6.1 0 1.4 0.1 2.9-0.1 1.3-0.1 2.7 0 1.2 0 2.4c-0.2 2-0.2 2-2.2 5-5 1.8-9.8 2.4-15 2.6q-1.2 0.1-2.4 0.1c-10 0.5-20.1 0.5-30.1 0.5q-3.3 0-6.6 0-8.9 0.1-17.8 0.1-9.3 0-18.6 0.1-17.5 0.1-35.1 0.1-14.1 0.1-28.1 0.1-1 0-2 0-5 0.1-10 0.1-41.1 0.1-82.3 0.3 0.1-1.9 0.2-3.8c0.7-12.6 0.7-12.6 1.1-25.2q0-1.3 0.1-2.6 0-4.2 0.1-8.4c0.1-1.5 0.1-1.5 0.1-3 0.6-28.2 0.7-56.4 0.9-84.5q0.1-8.2 0.1-16.3c0.3-33.7 0.4-67.4 0.4-101.2q0-3.2 0-6.4 0-20.3-0.1-40.6 0-7.4-0.1-14.7 0-3.4 0-6.7 0-4.6 0-9.2 0-1.3 0-2.7c0-4.3 0-7.8 2.2-11.7 23.3-11.6 52-3 78-3z"/><path class="j" d="m3024 434c1 0.8 1 0.8 2 1.7 17 15.4 26.1 44.7 27.2 67.1q0.1 5 0.1 10.1-0.1 3.1 0 6.3c0 11.2-1.2 21.8-4.9 32.5-0.3 1.1-0.3 1.1-0.7 2.3-4.5 12.5-10.7 24.2-19.7 34q-1.1 1.2-2.2 2.5c-16.8 17.9-42.6 29.3-67.1 30.6-30.8 1-56.3-8.9-79.1-29.6-19.7-18.6-31.9-46.8-32.8-73.7-0.7-31.1 8.2-57.8 29.2-80.8q1.1-1.2 2.2-2.5c37.9-40.6 105.7-34.5 145.8-0.5z"/><path class="k" d="m1550.6 411.9q1.2 0 2.5 0c1.2-0.1 1.2-0.1 2.5-0.1q4.2 0 8.5 0 2.9 0 5.9 0 6.1 0 12.3 0 7.9 0 15.8 0 6.1 0 12.2 0 2.9 0 5.8 0c31.7-0.2 31.7-0.2 39.7 6.8 15.2 17.6 20.7 35.6 19.2 58.4-1.8 13.9-8.3 25.1-19 34-16.4 12-37.1 14.3-56.8 14.4q-2.4 0-4.8 0.1-6.3 0-12.5 0.1-6.4 0.1-12.8 0.1-12.6 0.2-25.1 0.3 0-22.1-0.1-44.1 0-10.3 0-20.5 0-9.9 0-19.8 0-3.8 0-7.6 0-5.2 0-10.5 0-1.6 0-3.2c0-1.4 0-1.4 0-2.9q0-1.2 0-2.5c0.2-4.1 3.3-3 6.7-3z"/><path class="l" d="m1392 618q1 0.5 2 1c0.6 22.2 0.6 22.2-4.2 28.6-4.7 4.6-11.1 7.2-17 10.1-3.4 1.6-6.8 3.4-10.2 5.2-22.7 12-46.3 18.9-71.6 23.1q-1.1 0.2-2.2 0.4c-48.8 8.6-103.1-3.4-143.7-31.4-5.2-3.8-10.2-7.7-15.1-12q-1.4-1.2-2.9-2.4-1.4-1.2-2.8-2.4-1.2-1.1-2.5-2.2c-1.8-2-1.8-2-1.8-6q2 0 4 0 0.5 1 1 2 1.5 0.5 3 1 0.5 3 1 6 1.5 0 3 0 0.5 1.5 1 3c1.9 1.4 1.9 1.4 4.1 2.6 2.2 1.2 2.2 1.2 3.9 2.4q0 1 0 2 3 1.5 6.1 3 1 0.5 2.1 1 1 0.5 2.1 1c1.7 1 1.7 1 2.7 3 2 1.1 2 1.1 4.6 2.1 4.2 1.9 8.3 3.9 12.4 6 5.6 2.9 10.7 5.5 17 6.6 5.1 0.8 9.7 2.3 13.8 5.4 4.2 2.5 7.7 2.5 12.5 2.7 2.7 0.2 2.7 0.2 5.7 1.2q1-0.5 2-1 0 1 0 2 1.6 0.1 3.2 0.2 2.1 0.1 4.2 0.2 1.1 0.1 2.1 0.2c3.6 0.2 7.2 0.5 10.7 0.9 5.9 0.7 11.8 0.7 17.7 0.7q1.7 0.1 3.4 0.1c7.1 0 13.1-0.8 19.7-3.3q0 1 0 2c2.6-0.7 5.3-1.3 8-2q0-1 0-2 1.7 0.6 3.4 1.2c5.4 1.4 8.9-0.7 13.6-3.2q3-1.1 6-2 1.8-0.6 3.6-1.1c3.4-0.9 3.4-0.9 6-0.8 3.5-0.2 5.6-2 8.4-4.1q1 0.5 2 1 0 0.5 0 1 1.3-0.9 2.6-1.8c3-2 6.1-3.6 9.4-5.2q2.6-1.3 5.1-2.6 2.5-1.2 4.9-2.4 1-0.6 2.1-1.2c2.6-1.1 5-0.8 7.9-0.8q0.4-1 0.9-1.9c1.1-2.1 1.1-2.1 3.1-3.1q1.6 0.2 3.2 0.4c4.3-0.5 4.7-0.9 7.4-4.1q0.8-1.1 1.7-2.2c1.6-1.9 3-3.2 5-4.6 3.5-3.2 4.3-6 4.7-10.5 0.1-4.3 0.1-8.7 0-13z"/><path class="m" d="m3132 540q0.5 0 1 0c0.2 6.7-0.5 12.5-2.1 19.1q-0.4 1.3-0.7 2.7c-6.5 25.7-19.2 47.9-37.2 67.2q-2 2.3-4.1 4.7c-3.7 4.1-7.6 7.8-11.9 11.3q-0.7 0.6-1.5 1.2c-8.7 7.2-17.6 13.4-27.5 18.8q-0.9 0.5-1.9 1.1c-19.9 10.7-45.1 21-68.1 19.9q-1.5-1-3-2c3-1 3-1 6-2q0.5 0.5 1 1 1.5-1 3.1-2.1c3.7-2.1 5.7-1.8 9.9-0.9q0.7-0.7 1.4-1.4c2.1-2.1 3.6-2.3 6.5-2.8q1.2-0.2 2.5-0.5c2.6-0.3 5-0.4 7.6-0.3q0-1 0-2 0.9-0.2 1.8-0.4c4.2-0.9 8.2-1.8 12.2-3.6q0.5 0 1 0 0.8-0.6 1.6-1.3c2.1-1.5 3.8-2.3 6.1-3.3 3.4-1 3.4-1 4.3-3.4 3.4-1.2 3.4-1.2 7-2q1 0.5 2 1 0.3-0.8 0.6-1.7c1.9-3.2 4.6-4.8 7.6-6.8q0.9-0.6 1.7-1.1 4.2-2.8 8.4-5.5c2.7-1.8 2.7-1.8 4.9-4.2 1.8-1.7 1.8-1.7 3.8-1.7 0.5-1.5 0.5-1.5 1-3 1.6-1.6 1.6-1.6 3.7-3.4q1.1-0.9 2.2-1.8 1.9-1.7 3.9-3.2c3.1-2.5 4.4-3.8 5.2-7.6q2.4-2.6 5-5c2.8-3.1 5.4-6.1 7-10q1 0 2 0 0.4-1.1 0.8-2.2c2.6-6.2 6-12.1 9.8-17.7 4.6-7.3 7.5-15.5 8.4-24.1q1-2.5 2-5 1.1-3.3 2.1-6.6c0.9-3.2 1.9-6.3 2.9-9.4z"/><path class="n" d="m520 447q56.8 0 113.6-0.1 6.8 0 13.5 0c1.3 0 1.3 0 2.7 0q21.6 0 43.2 0 22.2 0 44.5 0 12.4 0 24.9 0c63.7-0.1 63.7-0.1 94.6 1.1 0 18.5 0 37 0 56q-0.5 0-1 0-0.3-8.9-0.5-17.7-0.1-3-0.1-6c-0.7-21.4-0.7-21.4 0.6-31.3q-1.8 0.5-3.6 1c-3.6 0.9-6.7 1-10.4 1q-1 1-2 2c-2.6-0.2-5.1-0.5-7.7-0.9-7.8-1-15.4-1.6-23.3-1.1q-0.5 0.5-1 1-2 0.1-4.1 0.1c-1.2 0-1.2 0-2.5 0q-1.3 0-2.6 0-1.3 0-2.7 0-1.2 0-2.5 0c-1.1 0-1.1 0-2.3 0-2.3-0.1-2.3-0.1-4.6-0.6-5.2-1-10.5-0.9-15.7-1.1q-1 0-2.1 0c-22-0.7-44-0.5-66-0.5q-9.4 0-18.8 0-16.8 0-33.5 0-15.2 0-30.4 0-1 0-2 0-5 0-10.1 0-41.5 0.1-83.1 0.1-0.8 1.9-1.6 3.8-0.4 1-0.8 2.1c-1 3.5 0.1 5.8 1.4 9.1q-1 1-2 2c-0.6 2.6-0.6 2.6-1 5q-0.5 0-1 0c0-8.3 0-16.5 0-25z"/><path class="o" d="m2396.9 343.9c1.1 0 1.1 0 2.2 0q3.5 0 7.1 0 2.4 0 4.9 0 6.4 0 12.9 0 6.6 0 13.1 0.1 13 0 25.9 0c-1.8 6.1-3.7 12.1-6.1 18q-0.5 1.1-0.9 2.2-1.4 3.5-2.9 7-0.5 1.3-1 2.5c-6 14.7-12.2 29.2-18.5 43.7q-3.9 9-7.7 17.9-6.4 14.9-13 29.7-5 11.5-9.9 23.1c-2.2 5.1-4.5 10-7 14.9q-1 0-2 0c-1.3-5.7-0.6-9 2.3-14 2.6-4.6 4.4-8.9 5.7-14q1.4-3 3-6c2.4-5.1 4.8-10.2 6.6-15.5 1.4-3.5 1.4-3.5 3-5.1 1.7-1.4 1.7-1.4 1.8-4.1 0.8-4.6 3.3-9 6.6-12.3q-0.5-1.5-1-3c1-2.8 2-5.5 3.2-8.3q0.4-1.1 0.9-2.2c1.5-3.5 3.1-6.9 5-10.3 1.6-2.6 2.6-4.8 3.4-7.6 1.2-3.8 2.7-7.2 4.6-10.8 1-2 1-2 2-5.1 0.9-2.7 1.9-4.5 3.9-6.7q1 0 2 0c1.8-4.8 2.7-9.5 3.4-14.5 0.6-2.5 0.6-2.5 2.6-5.5q1 0 2 0c0.2-0.8 0.2-0.8 0.4-1.7 0.7-2.5 1.6-4.9 2.6-7.3q0.5-1.5 1-3-5.4 0-10.8-0.1-1.5 0-3 0-1.5 0-3 0-1.3 0-2.7 0c-2.5 0-2.5 0-4.8 0.7q-0.8 0.2-1.7 0.4c-0.5-0.5-0.5-0.5-1-1-2.5-0.1-4.9-0.1-7.4-0.1q-1.1 0-2.1 0c-3.9-0.1-3.9-0.1-7.5 1.1q-2.1 0-4.1 0-1.3-0.1-2.5-0.1-2.6-0.1-5.2-0.2c-7.3-0.2-10.8 2-16.1 7-1 1.2-1 1.2-2.1 2.3-0.3-4.7 0.2-7.2 3-11 3-1.5 5.6-1.1 8.9-1.1z"/><path class="p" d="m1465 354c2.2 4.5 2 7.4 1.6 12.3q-0.1 1.1-0.1 2.2-0.3 2.8-0.5 5.5 1 0 2 0 0 0.9 0 1.8 0 51.5-0.1 103.1 0 6.2 0 12.4 0 1.2 0 2.5 0 19.9 0 39.9 0 20.5 0 40.9 0 12.7 0 25.3 0 8.7 0 17.3 0 5 0 10 0 5.5 0 10.9 0 1.6 0 3.2 0 1.4 0 2.9 0 1.3 0 2.5c0.1 2.3 0.5 4.2 1.1 6.3 0.2 3.4 0.2 6.9 0.2 10.3q0 1.4 0 2.8c0 5.4-0.4 9.8-2.2 14.9q1.9-0.2 3.8-0.5c15.3-1.7 31 0.3 46.2 1.5q0 0.5 0 1c-17.3 1.4-34.7 1-52 1 0-108.9 0-217.8 0-330z"/><path class="q" d="m2381 536c-0.6 3.8-1.7 7-3.2 10.6q-0.7 1.6-1.4 3.3c-0.8 1.8-0.8 1.8-1.5 3.7q-0.8 1.9-1.6 3.8-3.6 8.5-7.1 16.9-2.8 6.6-5.5 13.1-0.5 1.1-1 2.3-5.5 13.2-10.7 26.5-0.5 1.2-1 2.5-2.4 6.1-4.7 12.2c-3.4 8.7-7.2 17.1-11.4 25.4-3.1 6.1-5.8 12.3-8.6 18.5-0.6 1.4-0.6 1.4-1.2 2.8q-0.5 1.2-1.1 2.4c-1 2-1 2-3 4-2.7 0.2-2.7 0.2-6.1 0.2q-1.9-0.1-3.8-0.1-2.1 0-4.1-0.1-1 0-2 0-7.2-0.2-14.4-0.5-2.1-0.1-4.3-0.1-5.1-0.2-10.3-0.4c2-2 2-2 5.9-2.2q2.5 0 5 0 1.4 0 2.7 0 4.3 0 8.5 0.1 2.9 0 5.8 0 7 0 14.1 0.1c2.4-4.3 2.4-4.3 3-9q1.4-3 3-6c0.5-1.4 0.5-1.4 1.1-2.8 0.9-2.2 0.9-2.2 2.9-3.2q0.2-1.1 0.4-2.2c0.9-4.5 3.1-8 5.6-11.8q0.5-1.4 0.9-2.9c1.1-3.1 1.1-3.1 2.6-5.4 1.4-2.5 1.9-4 2.4-6.8 1.4-7.2 4.5-13.8 7.8-20.3 1.3-2.6 1.9-4.8 2.3-7.6q1 0 2 0 0.2-0.9 0.4-1.8c1.5-5.7 3.9-10.8 6.6-16 2.5-4.9 4.1-9.6 5.4-15 0.6-2.2 0.6-2.2 2.6-4.2 1.5-3.2 2.8-6.4 3.9-9.8 6.8-20.2 6.8-20.2 13.1-20.2z"/><path class="r" d="m527 140c5.5 2 10.7 4.5 16 7q1.4 0.7 2.8 1.3 11.2 5.3 22.2 10.7c1.3 0.6 1.3 0.6 2.7 1.3 11.6 5.6 22.9 11.7 34 18.1 6.9 4 13.8 7.8 20.7 11.6q0.9 0.5 1.9 1 14.4 7.9 28.9 15.8 8.4 4.5 16.8 9.2 0 1.5 0 3-2.5-0.5-5-1-0.5-1.5-1-3c-1.3-0.2-1.3-0.2-2.7-0.4-3-0.5-5.5-1.4-8.3-2.6q0-1 0-2-1.3-0.4-2.7-0.9c-2.8-0.9-5.6-2-8.3-3.1q0-1 0-2-1.1-0.4-2.2-0.9-1.4-0.5-2.8-1.1-1.4-0.5-2.7-1c-2.3-1-2.3-1-3.3-3q-1.2-0.4-2.5-0.8c-5.4-1.9-10.3-4.8-15.1-7.8-2.1-1.2-4-2.1-6.1-3-3.3-1.4-3.3-1.4-4.3-3.4-2-0.7-2-0.7-4-1q0-1 0-2-1.1-0.4-2.2-0.9c-2.6-1-5.1-2.2-7.6-3.5q-1.3-0.6-2.6-1.3-2.4-1.2-4.8-2.4c-3.2-1.6-6.4-3.2-9.7-4.5-3.1-1.4-3.1-1.4-5.1-3.4q-3.9-2.1-7.8-4-1.1-0.5-2.2-1.1c-2.8-1.4-5.6-2.8-8.6-3.9-3.2-1.3-6.1-2.9-9.1-4.4-4.2-2.1-8.2-4-12.6-5.4q-1.8-0.6-3.7-1.2c-0.5-1-0.5-1-1-2q-1.3 0.4-2.6 0.9-3.2 1-6.3 1.9c-3.1 1.2-5.5 2.8-8.1 4.8-2.3 1.6-4.6 3-6.9 4.3-4 2.4-7.7 5-11.3 7.8-2.2 1.6-4.5 3-6.8 4.3q-1.5 1-3 2-1.4 0.4-2.7 0.8c-3.4 1.2-5.6 2.7-8.4 4.8-2 1.5-4.1 2.9-6.2 4.2q-1 0.6-2 1.3c-1.7 0.9-1.7 0.9-3.7 0.9q-1.3 0.9-2.7 1.8c-2.7 1.8-5.3 3.1-8.3 4.3-2.1 0.9-4.1 1.9-6.1 3-1 0.5-1 0.5-2.1 1.1q-2.1 1.1-4.3 2.2c-1.8 0.9-3.6 1.8-5.5 2.6q-1-0.5-2-1c2.9-3.1 5.6-5.1 9.3-7 1.6-0.9 1.6-0.9 3.2-1.7q1.7-0.9 3.4-1.8 3.6-1.9 7.1-3.8 0.9-0.4 1.8-0.9c8-4.3 15.8-8.8 23.6-13.3q4-2.3 7.9-4.5c11.1-6.2 21.7-12.8 32.2-20 4.1-2.7 7.8-2.1 12.5-1z"/><path class="s" d="m2524 343.9c1.8 0 1.8 0 3.7 0q5.7 0 11.4 0 3.9 0 7.8 0.1 9.6 0 19.1 0c-3.5 1.9-5.8 2.2-9.7 2.2-1.7-0.1-1.7-0.1-3.4-0.1q-1.8 0-3.7 0c-13.1-0.2-26 0.4-39.1 1.7-2.1 0.2-2.1 0.2-5.1 0.2q-1.5 0.5-3 1c-0.8 4.7-1.2 9.3-1.6 14.1q-0.2 1.7-0.3 3.5c-0.2 3.3-0.2 3.3 0.4 6.1 0.6 3.9 0.3 7.5 0.1 11.4-0.6 9.5-0.7 18.9-0.7 28.3q0 1.1 0 2.3 0 7.3 0 14.5 0 6.5 0 13 0.1 17.8 0.1 35.7 0 16.3 0.1 32.7 0 6.4 0 12.8c0 22.2-0.3 44.4-1.1 66.6q-0.5 0-1 0-0.2-37-0.4-74-0.1-17.2-0.2-34.4-0.1-15-0.1-30-0.1-7.9-0.1-15.8-0.1-16.1-0.2-32.1 0-9.1-0.1-18.1 0-6.1 0-12.3 0-2.9-0.1-5.8 0-4 0-8 0-1.2 0-2.4c0-4.1 0.2-7.5 2.2-11.1 7-3.5 17.4-2.1 25-2.1z"/><path class="t" d="m576 283q0.5 1 1 2 2 0 4 0 0 1 0 2 0.9 0.2 1.8 0.4c1.8 0.5 3.5 1 5.2 1.6q0 1 0 2 1 0.1 2 0.2c10.5 2.7 20.2 10.3 29.4 15.8 5.4 3.3 10.6 6 16.6 8q0 1 0 2 0.8 0.2 1.6 0.3c3 0.9 5.6 2.3 8.4 3.7q0 1 0 2 1.6 0.4 3.2 0.9c2.9 0.8 5.2 1.7 7.8 3.1 1.5 0.5 1.5 0.5 3 1q0 1.5 0 3 1.2 0.4 2.5 0.7c4.1 1.5 7.9 3.4 11.8 5.4 4.6 2.8 4.6 2.8 9.7 3.9q0 1 0 2c1 0.4 1 0.4 2.1 0.7 2.3 1 4.3 2.1 6.5 3.4 2.6 1.5 4.5 2.4 7.4 2.9q0 1 0 2 1.3 0.3 2.6 0.7c2.9 1.1 4.4 1.9 6.7 3.7 7.1 5.3 15.1 6.1 23.7 6.6-2.6 3.2-4.1 4.8-8.3 5.6-5.8-1-10.2-3.9-15.1-7.2-7-4.5-14.2-8.5-21.5-12.4q-1.9-1-3.7-1.9-3.8-2.1-7.6-4.1c-16.9-8.9-33.7-18-50.3-27.5q-6.5-3.8-13-7.5-2.6-1.5-5.2-3-5.5-3.1-11-6.2-1.4-0.8-2.9-1.7-2.6-1.5-5.3-3-7.7-4.4-15.1-9.1 1-1 2-2z"/><path class="u" d="m2168 344q2.6-0.2 5.1-0.3c1.5-0.1 1.5-0.1 2.9-0.2 4.1 0.7 6.4 2.4 9 5.5 1.7 2.8 3 5.7 4.3 8.8q0.5 1.3 1.1 2.6c3.8 8.8 7.3 17.7 10.8 26.6 4.8 12.2 9.8 24.2 14.8 36.2q2.1 5 4.1 9.9c8 19.4 16 38.8 24.5 57.9q2.3 5 4.6 10.1 3 6.9 6.1 13.8 0.6 1.5 1.3 3.1 1.4 3.1 2.9 6.1 0.7 1.4 1.5 2.9 0.6 1.3 1.3 2.6c0.7 2.4 0.7 2.4-0.2 4.7q-0.5 0.8-1.1 1.7c-5.9-13.2-5.9-13.2-6.9-15.6q-1.1-2.4-2.2-4.8c-2.4-5.4-4.6-11-6.7-16.6-1.1-2.9-2.6-5.3-4.2-8q-1.5-3.5-3-7-1.2-2.6-2.5-5.3c-3.1-6.5-5.9-13.1-8.4-19.9q-1.4-3.5-2.9-7c-1.2-2.8-1.2-2.8-1.2-4.8q-1 0-2 0c-0.2-1.7-0.2-1.7-0.4-3.4q-0.3-1.8-0.6-3.6c-1-0.5-1-0.5-2-1-1.3-3.9-2-6.9-2-11q-1 0-2 0-0.4-1.1-0.8-2.2c-2.3-6.4-2.3-6.4-4.9-12.8-1.3-3-1.3-3-1.3-6q-1 0-2 0-0.3-0.8-0.6-1.6-1.3-3.7-2.6-7.4-0.5-1.3-1-2.5c-1.7-4.8-3.6-9.3-5.9-13.8-1.5-2.8-2.7-5.7-3.9-8.7q-0.5-1.2-1.1-2.5c-0.5-1.3-0.5-1.3-1.1-2.7q-0.5-1.2-1-2.5c-0.8-2.3-0.8-2.3-0.8-6.3q-1.5 0.5-3 1-0.6-3-1.3-6.1c-0.6-2.3-0.6-2.3-3.7-3.9q0-1.5 0-3c-3.6-0.7-7.3-1.3-11-2q0-0.5 0-1z"/><path class="v" d="m2872 356c-1 2.7-1.7 3.8-4.2 5.4q-1.3 0.6-2.7 1.2c-3.4 1.5-6.1 3.2-9.1 5.4-2.4 1.2-4.8 2.3-7.2 3.4-6.8 3.8-12.6 9-18.2 14.4-1 0.9-1 0.9-2 1.9q-2.8 2.6-5.6 5.3-0.8 0.7-1.5 1.5c-5.5 5.2-5.5 5.2-9.5 11.5q-1.6 1.9-3.3 3.7c-5.3 5.9-9.4 12.3-12.8 19.5-1.5 3.1-3.3 5.9-5.1 8.8-2.8 4.8-4.6 9.4-6.1 14.8-0.8 2.7-2.1 4.8-3.7 7.2-1.6 3.4-2 5.1-2 9-1.5 1.7-1.5 1.7-3 3-0.3-6.8 0.5-11.8 3-18.1 0.5-1.2 0.5-1.2 1-2.4 12.1-31 52.2-95.5 92-95.5z"/><path class="w" d="m2774 472q1.5 1 3 2-0.2 1.3-0.4 2.7-0.3 1.8-0.5 3.6-0.3 1.8-0.6 3.6c-1.4 10.4-1.7 20.7-1.6 31.2q0 3.7 0 7.4c-0.1 15.5-0.1 15.5 3.1 30.5 0.4 1.2 0.4 1.2 0.8 2.4q1.3 4.1 2.6 8.1 0.5 1.4 0.9 2.8c2.9 8.6 6.6 16.6 10.5 24.8 1.2 2.9 1.2 2.9 1.2 5.9q1 0 2 0 0.5 2.5 1 5 1 0 2 0 0.4 1 0.8 2.1c1.2 3 1.2 3 2.8 6.1 1.4 2.8 1.4 2.8 1.4 4.8-3.9-1.5-5.2-3.4-7.2-7q-0.8-1.5-1.7-3-0.9-1.7-1.8-3.4-1-1.7-1.9-3.4c-13.6-25.1-21.8-52.5-21.7-81.2 0-1.9 0-1.9 0-3.8 0.2-14 1.7-27.7 5.3-41.2z"/><path class="x" d="m197 357c2 1 2 1 4 2q0 1 0 2 1 0 2 0c2.1 1.9 2.1 1.9 4 4q0 1 0 2 0.9 0.4 1.8 0.9c3.1 1.5 3.1 1.5 6.2 3.1q0 1 0 2 2 0 4 0 2.1 3 4 6c2.7 2.4 4.5 3.8 8 5q0 1.5 0 3 1.5 0.3 3.1 0.6c3.6 1.1 5.9 2.9 8.7 5.5 2.9 2.5 6.1 4.5 9.3 6.6q0.9 0.6 1.8 1.1 3.9 2.5 7.8 4.8 2.7 1.7 5.3 3.4 0 1 0 2 0.9 0.2 1.8 0.4c1.8 0.5 3.5 1 5.2 1.6q0 1 0 2c1 0.4 1 0.4 2.1 0.8 3.5 1.4 6.6 3.3 9.9 5.2q0 1 0 2 1 0.4 2.1 0.8c3.1 1.3 6 2.7 8.9 4.2q0 1.5 0 3c1.5 0.2 1.5 0.2 2.9 0.4q1.5 0.3 3.1 0.6 0.5 1 1 2c1.5 0.5 1.5 0.5 3 1q0 1 0 2 0.8 0.2 1.6 0.3c4.1 1.2 7.7 3.4 11.4 5.4 3 1.3 4.8 1.6 8 1.3q0 2.5 0 5c-11.9-2.1-21.9-9.4-31.7-16.1-5.1-3.4-10.2-6.8-15.4-10.1q-1.4-1-2.9-2-10.3-6.7-20.7-13.2c-21.2-13.5-43.9-28.1-60.3-47.6q0-1.5 0-3z"/><path class="y" d="m1120 630q2 0 4 0 0.5 1 1 2 1.5 0.5 3 1 0.5 3 1 6 1.5 0 3 0 0.5 1.5 1 3c1.9 1.4 1.9 1.4 4.1 2.6 2.2 1.2 2.2 1.2 3.9 2.4q0 1 0 2 3 1.5 6.1 3 1 0.5 2.1 1 1 0.5 2.1 1c1.7 1 1.7 1 2.7 3 2 1.1 2 1.1 4.6 2.1 4.2 1.9 8.3 3.9 12.4 6 5.6 2.9 10.7 5.5 17 6.6 5.1 0.8 9.7 2.3 13.8 5.4 4.2 2.5 7.7 2.5 12.5 2.7 2.7 0.2 2.7 0.2 5.7 1.2q1-0.5 2-1 0 1 0 2 1.5 0 3 0 0 1 0 2c11.3 1.1 22.5 1.3 33.8 1.6q2.8 0 5.6 0.1 6.8 0.2 13.6 0.3c-3.6 2.2-6.6 2.3-10.8 2.3-1 0-1 0-2.1 0q-3.2 0-6.5 0-1.1 0-2.2 0c-46.5-0.2-91.2-14.6-126.4-45.3q-1.4-1.2-2.9-2.4-1.4-1.2-2.8-2.4-1.2-1.1-2.5-2.2c-1.8-2-1.8-2-1.8-6z"/><path class="z" d="m1755 467c1.6 32.6-11.6 59.1-32.4 83.3-4.8 5.1-10.1 9.4-15.6 13.7q-1.1 0.9-2.2 1.8c-1.8 1.2-1.8 1.2-3.8 1.2 1.3-3 2.8-5 5.2-7.3q0.9-0.9 1.8-1.8 1.9-1.8 3.9-3.7c3.3-3.2 5.8-6.1 8.1-10.2q1.5-1.5 3-3 2.5-3.2 4.8-6.5c0.7-0.9 0.7-0.9 1.4-1.9 3.2-4.6 6-9.4 8.5-14.5 1.3-2.1 1.3-2.1 4.3-4.1 1-2.4 1.8-4.6 2.6-7.1q0.3-1 0.6-2c2.8-8.8 4.8-17.6 4.8-26.9q1 0 2 0c0.1-1.1 0.1-1.1 0.2-2.2q0.1-1.3 0.2-2.7 0.2-1.4 0.3-2.8c0.4-3.3 0.4-3.3 2.3-3.3z"/><path class="A" d="m1122 393c-0.3 1.9-0.3 1.9-1 4q-1.5 0.5-3 1c-1.1 1.7-1.1 1.7-2 4-2.7 5.7-2.7 5.7-4.5 7.4-1.8 1.7-1.8 1.7-2.8 4.7-1.6 4.1-4.1 7.2-6.9 10.6-4.5 5.7-8.2 11.5-10.8 18.3-1.2 3-2.5 5.9-4 8.8-1.8 3.5-2.8 7-3.5 10.9-0.5 2.3-0.5 2.3-1.4 4.9-6.1 18.9-5.6 38.8-5.1 58.4q-1 0-2 0c-0.3-2.3-0.7-4.6-1-7q-0.5 0-1 0c-1.4-37.8 7.4-74.1 30-105q0.7-1 1.4-2 2.4-3.2 4.8-6.4 0.7-1 1.5-2.1c7.9-10.5 7.9-10.5 11.3-10.5z"/><path class="B" d="m1643 631c5.8 2.6 9.2 7.4 12.3 12.9 1.3 3.2 1.3 3.2 3.7 4.1q0 1 0 2 1 0 2 0 0.4 0.9 0.8 1.8 0.5 1.2 1.1 2.5 0.5 1.1 1 2.3 0.6 1.2 1.1 2.4 0.5 1.1 0.9 2.2c1 2.1 1 2.1 4.1 2.8 1.1 1.8 1.1 1.8 2.1 4 1.2 3.2 1.2 3.2 3.9 5q0 1 0 2 1 0 2 0 1 1.5 2 3c2 0.6 2 0.6 4.1 0.7q1.9 0.1 3.9 0.3 0 1 0 2 9.8 0 19.6 0.1 3.4 0 6.7 0c15.5 0 15.5 0 31.1-0.4q1.8-0.1 3.7-0.2c2.9-0.3 2.9-0.3 4.8-1.9 1.5-2.1 1.8-4.1 2.1-6.6q-1 0-2 0 0-1.5 0-3c-2-0.5-2-0.5-4-1-0.5-2-0.5-2-1-4q1.5 0 3 0c1.8 2 1.8 2 3.6 4.7q0.9 1.3 1.8 2.6c3.9 6.4 3.9 6.4 3.1 9.9-0.2 0.9-0.2 0.9-0.5 1.8-9.4 0.8-18.8 1.2-28.2 1.2q-2 0-4 0-4 0-8.1 0-5.2 0-10.4 0-5 0-10 0-1.8 0-3.7 0.1c-13.9-0.1-13.9-0.1-18.8-4.1q-0.8-1-1.8-2.1-1-1.2-2-2.5c-3.4-4.4-6.6-8.9-9.8-13.5q-1-1.5-2-3-6.7-9.7-13.2-19.5-0.8-1.1-1.5-2.3c-3.5-5.2-3.5-5.2-3.5-6.3z"/><path class="C" d="m816 301c4 0.4 6.8 2.7 10 5-1.2 3.7-2 3.8-5.4 5.5q-1.4 0.7-2.8 1.5-1.6 0.7-3.1 1.5-3.2 1.6-6.3 3.2c-1.6 0.9-1.6 0.9-3.3 1.7-12.6 6.5-24.8 13.4-36.5 21.5q-3.6 2.5-7.3 4.9-1.4 0.9-2.8 1.9c-7.8 5.2-15.7 10.2-23.5 15.3q-1.5-1-3-2 1 0 2 0 0.5-1.5 1-3c2.2-1.7 4.5-3.4 6.8-4.9 4.1-2.8 7.8-5.5 11.2-9.1 2.5-1.5 2.5-1.5 5-3q2.1-1.9 4-4c1.5 0.5 1.5 0.5 3 1 0.7-0.7 0.7-0.7 1.4-1.5q0.9-1 1.9-1.9c0.9-1 0.9-1 1.8-2 2-1.7 3.3-2.2 5.9-2.6q0 1 0 2 1.1-1.2 2.3-2.4c2.4-2.3 3.8-3.3 6.7-4.6q1.7-1 3.4-2.1c3.1-1.8 5.9-2.5 9.6-2.9q0-1 0-2 2.4-2.1 5-4 0 1 0 2 1.5 0 3 0 0-1 0-2 1 0 2 0 0-1 0-2c2.6-0.3 5.3-0.7 8-1q0.5-1.5 1-3c2.1-0.7 2.1-0.7 4-1-1-1.5-1-1.5-2-3q-1 1-2 2 0-1.5 0-3c-1-0.5-1-0.5-2-1q0.5-0.5 1-1z"/><path class="D" d="m2116 382c3 2 3 2 3.6 4.5q0.2 1.2 0.4 2.5 1 1 2 2 0.9 1.8 1.8 3.7c0.5 1.1 0.5 1.1 1 2.2q0.5 1.2 1 2.4 0.5 1.2 1.1 2.5c2.5 5.7 4.8 11.5 7 17.3 1 2.7 2.2 5.2 3.5 7.7 2.5 4.8 4.4 9.8 6.2 14.9 2.4 6.3 5 12.5 7.8 18.7 2.7 6.1 5.2 12.2 7.5 18.5 2 5.2 4 10.2 6.3 15.3 1.1 2.5 2 5.1 2.8 7.8q-2 0-4 0-0.5-1.2-1-2.4c-11-27.3-22.2-54.6-33.9-81.7q-0.4-0.9-0.8-1.9c-2.6-5.9-5.2-11.8-7.9-17.7q-0.6-1.3-1.2-2.6-1-2.2-2.1-4.5c-2.2-4.7-2.2-4.7-1.8-7.7q0.3-0.7 0.7-1.5z"/><path class="E" d="m285 273c1 0.5 1 0.5 2 1q-2.5 2-5 4-0.8 0.7-1.7 1.4c-4.9 3.9-10 6.6-15.7 9.2-2.4 1.3-3.7 2.5-5.6 4.4q-2.2 1.2-4.4 2.2c-9.7 4.7-18.3 11.1-26.6 17.8-1.2 1-1.2 1-2.4 1.9-6.9 5.6-13.4 11.4-19.7 17.5q-1.4 1.3-2.9 2.7c-5.9 5.8-5.9 5.8-8.1 13.6q0 2.1 0.1 4.3 1 0 2 0-0.5 2-1 4c-4.9-4.2-4.9-4.2-5.3-7.9 1.4-13.7 22.4-29.4 32.3-37.6 8.2-6.6 17-12.1 26-17.5q1.3-0.8 2.6-1.6 8.4-5 16.8-9.9 3.6-2.1 7-4.1 1.9-1.2 3.9-2.3 1.6-0.9 3.2-1.9 1.2-0.6 2.5-1.2z"/><path class="F" d="m610.8 587.9q3.6 0 7.3 0 9.4 0 18.8 0 9.7 0 19.4 0.1 18.8 0 37.7 0c-3.9 2.2-6.8 2.2-11.3 2.2-1 0-1 0-2.1-0.1q-3.4 0-6.8 0c-18.2-0.9-18.2-0.9-36 1.5-2.2 0.5-3.6 0-5.8-0.6q-2.5-0.1-5.1-0.1c-1.5 0-1.5 0-3 0q-1.7 0-3.3 0-1.7 0-3.5 0c-9 0-17.9 0.2-26.9 0.5-1.9 0.1-1.9 0.1-3.8 0.2q-1.7 0-3.5 0.1-1.5 0-3.1 0.1c-2.7 0.2-5.2 0.7-7.8 1.2q-2.1 0.1-4.3 0.1-1.2-0.1-2.4-0.1-1.3 0-2.7 0c-11.5-0.1-23.1 0.4-34.6 1q0-1 0-2c5.6 0 11.2 0 17 0q0-1 0-2c8-0.8 16-1.3 24-1.6q1.8 0 3.7-0.1c12.7-0.4 25.4-0.4 38.1-0.4z"/><path class="G" d="m1658 350c5.8-0.2 10.5 0.3 16 2q1.1 0.3 2.2 0.7c18 5.7 34.4 16.2 47.8 29.3q1 1 2.1 2c7.9 7.5 15.3 17.1 19.9 27-0.5 1-0.5 1-1 2q-1-0.5-2-1 0 1 0 2-1 0-2 0-0.4-1.6-0.8-3.2c-1.1-3.4-2.3-5.8-4.2-8.8q0-1 0-2-1 0-2 0-0.4-1-0.9-1.9c-0.9-2.3-0.9-2.3-3.1-3.1q0-1.5 0-3-2.5-0.5-5-1-0.5-1.5-1-3-1.5-1.2-3-2.5c-3-2.5-3-2.5-4-5.5-1-0.2-1-0.2-2-0.5-1-0.2-1-0.2-2-0.5-0.5-1.5-0.5-1.5-1-3q-1 0-2 0 0-1 0-2c-1.1-0.4-1.1-0.4-2.3-0.8-2.7-1.2-2.7-1.2-4-2.6-3.6-3.4-8.4-5.3-12.7-7.6q-1.5-0.8-3-1.6c-7.3-3.4-14.8-5.7-22.5-7.7-2.6-0.7-5-1.7-7.5-2.7q0-0.5 0-1z"/><path class="H" d="m1818 488q0.5 0 1 0 0.4 29.9 0.8 59.8 0.2 13.9 0.3 27.8 0.2 12.1 0.4 24.3 0 6.4 0.1 12.8c0.4 30.5 0.4 30.5 0.5 44.8q0 1.4 0 2.8 0 1.3 0 2.6 0 1 0 2.1c-0.1 2.1-0.6 4-1.1 6 0.3 2.3 0.3 2.3 0.9 4.6 1.1 4.3 1.1 4.3 1.1 6.4q-2 0-4 0c0-64 0-128 0-194z"/><path class="I" d="m674 218c5.1 1.5 9.3 3.7 13.9 6.3q2.4 1.4 4.8 2.7 1.3 0.8 2.6 1.5c3.7 2.1 7.5 4.1 11.2 6.1 17.8 9.5 35.2 19.6 52.5 29.9 7.9 4.7 15.9 9.1 24 13.5q-0.5 1.5-1 3c-4.7-2.2-9-4.8-13.4-7.5-2.8-1.6-5.7-3.1-8.6-4.5q-6-3-12-6 0-1 0-2-1.1-0.4-2.2-0.8c-3.8-1.6-7.4-3.7-11.1-5.8-4.6-2.5-4.6-2.5-9.7-3.4q-0.5-1.5-1-3c-2.4-1.6-2.4-1.6-5.4-3.1q-1.7-0.9-3.5-1.8-1-0.5-2-1-4.7-2.5-9.5-5-2.4-1.3-4.9-2.5c-8.4-4.5-17-9-24.7-14.6q0-1 0-2z"/><path class="J" d="m2847 657c5.4 0.9 9.7 2.2 14.5 4.8 6.3 3.3 12.8 5.5 19.5 7.8 3.2 1.1 6.3 2.3 9.4 3.7 5 2 10.2 2.9 15.6 3.7q0 1 0 2 1.3-0.1 2.6-0.1c3.8 0.1 6.7 1 10.4 2.1 5.4 1.2 10.5 2.1 16.1 1.9q1.9 0.1 3.9 0.1c1 1.5 1 1.5 2 3-14.3-1-14.3-1-20.7-1.7q-2.3-0.3-4.7-0.5c-7.1-0.4-13.5-1.9-20.3-4-1.6-0.5-1.6-0.5-3.2-0.9-12.4-3.8-24-8.1-35.5-14.1q-1.3-0.6-2.6-1.3-1.1-0.6-2.3-1.2-1-0.6-2.1-1.1c-1.6-1.2-1.6-1.2-2.6-4.2z"/><path class="K" d="m1466 556q0.5 0 1 0 0.3 12.8 0.5 25.7 0 1.9 0.1 3.8c0.3 17.6 0.5 35.2 0.4 52.8 0 1.1 0 1.1 0 2.2q-0.1 2.8-0.1 5.5c0.1 2.6 0.4 4.6 1.1 7 0.2 3.4 0.2 6.9 0.2 10.3q0 1.4 0 2.8c0 5.4-0.4 9.8-2.2 14.9q1.9-0.2 3.8-0.5c15.3-1.7 31 0.3 46.2 1.5q0 0.5 0 1c-10.9 1.2-21.8 1.1-32.8 1.1q-2.8 0-5.6-0.1-6.8 0-13.6 0 0-24.5 0.2-49.1 0.1-3.4 0.1-6.9 0.1-8.9 0.2-17.9 0.1-9.1 0.1-18.3 0.2-17.9 0.4-35.8z"/><path class="L" d="m2396.9 343.9c1.1 0 1.1 0 2.2 0q3.5 0 7.1 0 2.4 0 4.9 0 6.4 0 12.9 0 6.6 0 13.1 0.1 13 0 25.9 0c-3.1 10.6-3.1 10.6-5 15.1q-0.5 1.2-1 2.4-0.5 1.2-1.1 2.5c-0.5 1.3-0.5 1.3-1 2.6-2.6 6.1-2.6 6.1-4.9 8.4-1.1-3.4-0.8-5-0.2-8.5q0.3-1.4 0.5-2.9c0.7-2.6 0.7-2.6 2.7-5.6q1 0 2 0c0.2-0.8 0.2-0.8 0.4-1.7 0.7-2.5 1.6-4.9 2.6-7.3q0.5-1.5 1-3-5.4 0-10.8-0.1-1.5 0-3 0-1.5 0-3 0-1.3 0-2.7 0c-2.5 0-2.5 0-4.8 0.7q-0.8 0.2-1.7 0.4c-0.5-0.5-0.5-0.5-1-1-2.5-0.1-4.9-0.1-7.4-0.1q-1.1 0-2.1 0c-3.9-0.1-3.9-0.1-7.5 1.1q-2.1 0-4.1 0-1.3-0.1-2.5-0.1-2.6-0.1-5.2-0.2c-7.3-0.2-10.8 2-16.1 7-1 1.2-1 1.2-2.1 2.3-0.3-4.7 0.2-7.2 3-11 3-1.5 5.6-1.1 8.9-1.1z"/><path class="M" d="m2937.4 339.8c1.1 0 1.1 0 2.2 0 26.9-0.2 55.5 0.6 80.4 12.2q0 1 0 2c-4.2 0.3-7-0.3-10.7-2.1-7.2-2.9-14.6-5.2-22.3-4.9q-2.5-0.4-5-1-3.4-0.8-6.8-1.5-2.6-0.6-5.1-1.2c-2.7-0.3-4.9-0.2-7.6 0.1-6.9 0.8-13.8 0.6-20.7 0.5-5.1-0.1-9 0.2-13.8 2.1-2.4-0.4-2.4-0.4-4-1 3.6-5.3 7.3-5.2 13.4-5.2z"/><path class="N" d="m855 679c1.1 2.6 1.1 3.7 0.1 6.3-5.6 7.3-13.3 12-20.9 16.9q-4.5 3-9 6.1-1.2 0.8-2.4 1.7-2.4 1.6-4.7 3.2c-6.6 4.6-6.6 4.6-11.1 3.8q4.5-4.5 9-9 1.3-1.4 2.6-2.8c2.4-2.2 2.4-2.2 5.4-2.2q0.5-1 1-2c1.9-1.7 3.3-2.9 5.9-3.4 2.8-0.8 4-2.3 6-4.4 3.1-3.3 6.2-5.8 10.1-8.2q1.4-1.1 2.7-2.2c2.3-1.8 2.3-1.8 4.3-1.8q0.5-1 1-2z"/><path class="O" d="m355 621c3.5 1.1 6.8 2.3 10 4q0 1 0 2 0.8 0.2 1.7 0.3c2.8 0.8 5 2.1 7.5 3.5q1.5 0.8 3 1.7 1.5 0.9 3.1 1.8 1.5 0.9 3.1 1.8 4.3 2.4 8.6 4.9 2.1 1.2 4.2 2.4 1.4 0.8 2.8 1.6 0 1 0 2 1.1 0.2 2.2 0.3c3.1 0.8 5.2 2 7.9 3.7 2.7 1.7 4.9 3 7.9 4q0 1 0 2 1 0.1 2.1 0.2c3.7 1 6.7 2.8 10 4.8 4.8 2.9 4.8 2.9 9.9 5q0 1 0 2 1 0.4 2.1 0.8c3.1 1.3 6 2.7 8.9 4.2-0.5 1-0.5 1-1 2-4.3-1.3-8-2.9-11.9-5.1q-1.7-0.9-3.4-1.9-1.7-1-3.5-2-1.9-1-3.7-2.1-10.7-5.9-21.2-12.2c-5.9-3.5-11.8-6.8-17.8-10.2-7.1-4-14.2-8-21.2-12.1q-1-0.6-2.1-1.2c-6.7-4-6.7-4-9.2-6.2q0-1 0-2z"/><path class="P" d="m2166 504c1.8 0.6 1.8 0.6 4 2 1.2 2.3 2.1 4.5 2.9 6.9q0.8 2 1.6 4.1 0.4 1 0.8 2.1c4.4 11.8 9.7 23.3 14.9 34.8 1.3 3 2.6 6.1 3.8 9.2 1.2 3.1 2.6 6.1 4.1 9.2 2.4 4.6 3.9 8.5 3.9 13.7-3-1-3-1-4.3-3.2q-0.6-1.5-1.2-3.1c-0.8-1.7-0.8-1.7-1.5-3.4q-0.8-1.9-1.6-3.9-0.9-1.9-1.7-3.9-1.9-4.4-3.7-8.7-3.2-7.7-6.5-15.4-2.3-5.4-4.6-10.8-0.6-1.3-1.1-2.6-1.6-3.8-3.2-7.5-0.5-1.1-1-2.3c-5.6-13.2-5.6-13.2-5.6-17.2z"/><path class="Q" d="m806 714c0.5 1 0.5 1 1 2q-0.5 1-1 2c1 0.5 1 0.5 2 1-7.3 5.3-14.9 10-22.7 14.6q-1.8 1.1-3.5 2.1-15.6 9.2-31.3 17.9-2.6 1.4-5 2.9-1.2 0.7-2.5 1.4-1 0.6-2.1 1.2c-1.9 0.9-1.9 0.9-4.9 0.9q0-1 0-2 1.4-0.6 2.8-1.3c2.7-1.4 4.8-2.8 7.2-4.7q3-2 6-4 1-0.8 2-1.7c2-1.3 2-1.3 5.1-1.8 3.2-0.6 3.8-1.2 5.9-3.5q1.5 0 3 0 0.4-0.9 0.7-1.9c1.6-2.6 2.7-3 5.5-4 3.3-1.4 5.9-2.8 8.7-4.9q1.5-1.1 3.1-2.2 1.5 0.5 3 1 0-1 0-2 2.5-1.8 5.1-3.6c1.9-1.4 3.1-2.8 4.5-4.6 2.4-2.8 3.9-3.8 7.4-4.8z"/><path class="R" d="m206 506q1 1 2 2-0.8 0.6-1.7 1.2c-5 3.8-5 3.8-8.1 9.1-0.1 0.8-0.1 0.8-0.2 1.7q1 0 2 0 2 2 4 4 2.4 1.6 4.9 3c2.9 1.7 5.3 3.2 7.8 5.3 2.8 2.1 4.9 2.4 8.3 2.7q0 2 0 4 2.5 0.5 5 1 0 1 0 2 1 0.4 2.1 0.8c9.3 3.9 9.3 3.9 10.9 7.2q2.4 1.3 4.8 2.4c3.7 1.8 6.7 3.3 9.2 6.6q0 1 0 2c-4.4-0.9-7.8-3.3-11.5-5.7q-2.3-1.6-4.6-3.1c-1.2-0.8-1.2-0.8-2.4-1.6q-3.7-2.4-7.5-4.8c-8.2-5.3-16.4-10.7-24.5-16.4q-1-0.7-2.1-1.4c-7.5-5.3-7.5-5.3-9.4-8-0.1-3-0.1-3 1-6 2.3-2.3 2.3-2.3 5.1-4.4q1.3-1 2.7-2.1 1.1-0.7 2.2-1.5z"/><path class="S" d="m520 447c59.4 0 118.8 0 180 0q0 0.5 0 1-1.3 0-2.7 0-32.6 0.1-65.3 0.3-15.7 0.1-31.5 0.1-13.8 0.1-27.5 0.1-7.3 0.1-14.6 0.1-6.8 0-13.7 0.1-2.5 0-5 0-3.4 0-6.9 0-1.9 0-3.8 0c-3.1 0-3.1 0-5 2.3-2.2 5.6-2 8.6 0 14q-1 1-2 2c-0.6 2.6-0.6 2.6-1 5q-0.5 0-1 0c0-8.3 0-16.5 0-25z"/><path class="T" d="m2774 546q1 0.5 2 1c0.6 2.3 0.6 2.3 1.3 5.5 2.7 12.7 7.4 24.5 13.2 36.1 2.5 5.1 2.5 5.1 2.5 8.4q1 0 2 0 0.5 2.5 1 5 1 0 2 0 0.4 1 0.8 2.1c1.2 3 1.2 3 2.8 6.1 1.4 2.8 1.4 2.8 1.4 4.8-3.9-1.5-5.2-3.4-7.2-7q-0.8-1.5-1.7-3-0.9-1.7-1.8-3.4-1-1.7-1.9-3.4c-19.5-35.9-19.5-35.9-16.4-52.2z"/><path class="U" d="m1120 630q2 0 4 0 0.5 1 1 2 1.5 0.5 3 1 0.5 3 1 6 1.5 0 3 0 0.5 1.5 1 3c1.9 1.4 1.9 1.4 4.1 2.6 2.2 1.2 2.2 1.2 3.9 2.4q0 1 0 2 3 1.5 6.1 3 1 0.5 2.1 1 1 0.5 2.1 1c1.7 1 1.7 1 2.7 3 2 1.1 2 1.1 4.6 2.1 5 2.3 10 4.7 15 7.2 1 0.5 1 0.5 2.1 1q2.6 1.4 5.3 2.7c1 0.5 1 0.5 2 1q0 1 0 2c-19.8-1.9-38.5-17.5-53-30q-1.4-1.2-2.9-2.4-1.4-1.2-2.8-2.4-1.2-1.1-2.5-2.2c-1.8-2-1.8-2-1.8-6z"/><path class="V" d="m1247.6 338.8c1.4 0 1.4 0 2.7 0q4.3 0 8.5-0.1 1.4 0 2.9 0c20.5 0.1 38.8 2.3 58.3 8.3q0 1.5 0 3-0.9-0.2-1.8-0.4-1.1-0.3-2.3-0.5c-1.2-0.3-1.2-0.3-2.3-0.6q-2.7-0.5-5.3-0.9c-3.3-0.6-3.3-0.6-6.4-1.6-13.3-4-26.6-3.4-40.4-3.3q-3.7 0.1-7.4 0.1-9.1 0.1-18.1 0.2c1.9-5.6 6.5-4.2 11.6-4.2z"/><path class="W" d="m2804 616c2 0 2 0 4.4 2.2 5.6 6.1 5.6 6.1 5.6 10.8q1 0 2 0 0 1 0 2 1.4 0.3 2.8 0.7c3.7 1.5 4.5 2.8 6.2 6.3 1.1 1.4 1.1 1.4 4 1q1 0.5 2 1 0 1 0 2 1 0 2 0 1.7 1.8 3.2 3.7c3.3 3.9 6.3 6.1 10.8 8.3q-1 2-2 4c-15.2-9.2-27-20.1-38-34-0.9-1-0.9-1-1.8-2.1-1.2-1.9-1.2-1.9-1.2-5.9z"/><path class="X" d="m3083 393c8.5 2.3 13.9 11.1 18.8 17.9q0.9 1.2 1.8 2.5c22.3 30.9 22.3 30.9 21.4 43.6q-0.5-1.5-1-3-1 0-2 0-0.4-1.2-0.7-2.5c-1.6-4.2-3.7-7.9-5.9-11.8-4.4-7.4-4.4-7.4-4.4-9.7q-1 0-2 0-1-3-2-6-1 0-2 0-1.5-2-3-4-0.5 0-1 0-0.2-1.4-0.4-2.9-0.3-1.5-0.6-3.1-1-0.5-2-1 0-1 0-2-1 0-2 0 0-1.5 0-3-1.5 0-3 0c-0.3-1.1-0.3-1.1-0.7-2.3-1.6-3.3-3.2-3.9-6.3-5.7-3-4.2-3-4.2-3-7z"/><path class="Y" d="m1325 350c22.8 3.1 51.4 20.2 67 37 1.3 2.3 1.3 2.3 2 4q-1.1-1-2.3-1.9c-2.6-2.2-2.6-2.2-5.7-3.1q-0.5-1-1-2-1.5 0-3 0 0-1.5 0-3-2-0.5-4-1 0-1 0-2-1-0.4-2-0.8c-3.6-1.5-7-3.2-10.4-5.1q-1-0.5-2-1c-2.9-1.6-5.7-3.1-8.4-5-4.5-2.9-9.3-5-14.3-7.2q-1.4-0.7-2.9-1.4c-4.3-1.9-8.6-3.8-13-5.5q0-1 0-2z"/><path class="Z" d="m1900 480c45.9 0 91.7 0 139 0-3.9 2-5.1 2.2-9.3 2.1-3.1-0.1-6-0.1-9.2 0.4-5.5 0.8-11 0.4-16.5 0.1-20.3-0.8-40.7-0.7-61.1-0.7q-1.2 0-2.4 0-13.9 0.1-27.7 0.1c-4.4 0-8.5-0.3-12.8-1q0-0.5 0-1z"/><path class="a0" d="m774 330q1 0.5 2 1-1.2 0.9-2.4 1.9c-2.6 1.8-2.6 1.8-3.6 4.1q1.5 0.5 3 1-12.8 8.6-25.8 17-1.7 1.2-3.5 2.3-4.4 2.9-8.7 5.7-1.5-1-3-2 1 0 2 0 0.5-1.5 1-3c2.2-1.7 4.5-3.4 6.8-4.9 4.1-2.8 7.8-5.5 11.2-9.1 2.5-1.5 2.5-1.5 5-3q2.1-1.9 4-4 1.5 0.5 3 1 0.7-0.7 1.5-1.5 0.9-1 1.9-1.9 0.9-1 1.9-2c1.7-1.6 1.7-1.6 3.7-2.6z"/><path class="a1" d="m1817 353q0.5 0 1 0c0.9 3.8 1.1 7.3 1 11.2-0.2 4-0.2 4 1 7.8q0.1 2.7 0.1 5.5 0.1 1.7 0.1 3.5 0 1.8 0 3.8 0 1.9 0 3.9 0 4.1 0 8.2 0 4.2 0 8.4c0.2 29.5 0.2 29.5-2.2 42.7q-0.5 0-1 0c0-31.4 0-62.7 0-95z"/><path class="a2" d="m1083 456q0.5 0 1 0c0.2 2.7 0.1 4.7-0.9 7.2-1.3 3.4-2 6.8-2.6 10.3q-0.4 1.9-0.7 3.9-0.2 1.1-0.4 2.2-0.4 2.6-0.9 5.3c-1.6 8.8-1.7 17.5-1.6 26.4q0 2.2 0 4.3 0 5.2 0.1 10.4-1 0-2 0c-0.3-2.3-0.7-4.6-1-7q-0.5 0-1 0c-0.8-20.8 0.2-40.5 8-60q1 0 2 0 0-1.5 0-3z"/><path class="a3" d="m1465 354c2.2 4.5 2 7.4 1.6 12.3q-0.1 1.1-0.1 2.2-0.3 2.8-0.5 5.5 1 0 2 0 0.1 11.1 0.1 22.2 0 3.8 0.1 7.5c0 13.6 0.1 26.9-2.2 40.3q-0.5 0-1 0c0-29.7 0-59.4 0-90z"/><path class="a4" d="m2524 343.9c1.8 0 1.8 0 3.7 0q5.7 0 11.4 0 3.9 0 7.8 0.1 9.6 0 19.1 0c-3.5 1.9-5.8 2.2-9.7 2.2-1.7-0.1-1.7-0.1-3.4-0.1q-1.8 0-3.7 0c-13.1-0.2-26 0.4-39.1 1.7-2.1 0.2-2.1 0.2-5.1 0.2q-1.5 0.5-3 1c-0.9 5.7-1.3 11.3-1.6 17-0.4 2.8-1 4.6-2.4 7-2.3-2.3-1.2-8.1-1.2-11.2q0-1.5 0-2.9c0-9.1 0-9.1 2.2-12.9 7-3.5 17.4-2.1 25-2.1z"/><path class="a5" d="m235 713q2 1 4 2 1.3 0.7 2.7 1.3c3.4 1.8 6.8 3.6 10.2 5.4q1.7 0.9 3.5 1.9 1.3 0.7 2.6 1.4 0 1 0 2c2 0.7 4 1.3 6 2q0 1 0 2 1.1 0.2 2.2 0.3c5 1.2 9.1 4.5 13.4 7.3 1.4 0.9 1.4 0.9 2.9 1.8q2.8 1.8 5.5 3.6 0 1 0 2 1.1 0.2 2.2 0.3c3.1 0.8 5.3 1.9 8.1 3.6q1.3 0.7 2.6 1.5c2.1 1.6 2.1 1.6 3.1 4.6-4.7-1.7-8.8-4.1-13.1-6.6q-1.2-0.7-2.4-1.4c-15.7-9.2-31.4-18.6-46.8-28.4q-1-0.7-2.1-1.4c-1.6-1-3.1-2.1-4.6-3.2q0-1 0-2z"/><path class="a6" d="m1319 506q1.5 0 3 0-0.5 2-1 4 1.5 0.5 3 1-1 1-2 2c-0.4 3.8-0.3 7.7 0.6 11.4 0.7 4.2-0.1 8.4-0.6 12.6q1 0 2 0c0 18.1 0 36.3 0 55-1 0.5-1 0.5-2 1 0-5.6 0-11.2 0-17q-0.5 0-1 0 0-1.8-0.1-3.6-0.1-6.8-0.3-13.6 0-2.9-0.1-5.8c-0.2-10.1-0.5-20.1-1.3-30.2-0.3-3.5-0.3-7.1-0.3-10.7q0.1-1.7 0.1-3.5 0-1.3 0-2.6z"/><path class="a7" d="m197 357c2 1 2 1 4 2q0 1 0 2 1 0 2 0c2.1 1.9 2.1 1.9 4 4q0 1 0 2 0.9 0.4 1.8 0.9c3.1 1.5 3.1 1.5 6.2 3.1q0 1 0 2 2 0 4 0 2.1 3 4 6c2.7 2.4 4.5 3.8 8 5q0 1.5 0 3 1.6 0.4 3.3 0.9c3.7 1.1 3.7 1.1 6.7 3.1 0.7 3.1 0.7 3.1 1 6-16.2-8.9-33.1-22.8-45-37q0-1.5 0-3z"/><path class="a8" d="m475 165c0.5 1 0.5 1 1 2q1 0.5 2 1c-0.8 0.3-0.8 0.3-1.6 0.7-2.6 1.4-5 3.1-7.5 4.9-9 6.4-9 6.4-11.9 6.4-1.3 0.9-1.3 0.9-2.7 1.8-2.7 1.8-5.3 3.1-8.3 4.3-2.1 0.9-4.1 1.9-6.1 3-1 0.5-1 0.5-2.1 1.1q-2.1 1.1-4.3 2.2c-1.8 0.9-3.6 1.8-5.5 2.6q-1-0.5-2-1c2.9-3.1 5.6-5.1 9.4-7.1q1.6-0.8 3.2-1.7 1.7-0.9 3.5-1.8c11.1-5.9 22.1-12 32.9-18.4z"/><path class="a9" d="m584 588c36.3 0 72.6 0 110 0-4.4 2.2-6.5 2.2-11.3 2.2q-1 0-2.1-0.1-3.4 0-6.8 0c-18.2-0.9-18.2-0.9-36 1.5-2.2 0.5-3.6 0-5.8-0.6q-2.8-0.1-5.6-0.1c-1.6 0-1.6 0-3.3 0q-1.6 0-3.4 0-1.6 0-3.4 0.1-4.1 0-8.3 0 0-0.5 0-1c-7.9-0.3-15.8-0.7-24-1q0-0.5 0-1z"/><path class="aa" d="m1081 560c2.7 3.2 3.9 6.2 5.1 10.3q0.5 1.7 1 3.5c0.7 2.4 1.2 4.7 1.7 7.1 1.2 5.4 4.4 10.1 7.2 14.7 6 10.2 6 10.2 6 14.4q1 0 2 0 1 2 2 4c-1.7-0.1-1.7-0.1-4-1-1.6-2-3-4-4.3-6.2q-0.6-0.9-1.2-1.9c-5.7-9.4-10.4-19-13.9-29.4-0.4-1.1-0.4-1.1-0.8-2.3-1.4-4.2-2.2-7.7-1.8-12.2q0.5-0.5 1-1z"/><path class="ab" d="m268.4 465.3q0.8 0.3 1.6 0.7-0.9 0.6-1.8 1.2c-4.2 2.8-8.3 5.6-12.2 8.8q-1.1 0.7-2.3 1.4c-2.8 1.7-5.4 3.5-8.1 5.5q-4.8 3.5-9.7 7c-2.9 1.9-2.9 1.9-4.9 4.1q-3.3 2-6.7 3.9-1 0.6-1.9 1.1-5.6 3.2-11.4 6c1.5-3.7 3.3-5.1 6.7-7.1 4.4-2.7 8.6-5.6 12.8-8.7 6.8-5.1 13.8-9.9 20.8-14.7q1.9-1.2 3.7-2.5 2.6-1.8 5.2-3.5c1.6-1.1 1.6-1.1 3.1-2.1 2.7-1.4 2.7-1.4 5.1-1.1z"/><path class="ac" d="m653 807c-1.3 3.9-2.6 4.2-6.1 6.1-1.7 0.9-1.7 0.9-3.3 1.8q-1.8 1-3.6 1.9-1.8 1-3.6 2-3.8 2.1-7.6 4.1c-6 3.3-11.9 6.6-17.8 9.9q-1.6 0.9-3.2 1.8-1.5 0.8-3 1.7c-1.3 0.7-1.3 0.7-2.6 1.4-1.8 1.1-3.5 2.2-5.2 3.3q-1.5-0.5-3-1c1.3-1.5 1.3-1.5 3-3q1.5 0 3 0 0.5-1.5 1-3 3-0.5 6-1 0-1 0-2 1-0.5 2-1c6.7-3.1 6.7-3.1 12-8q1.5 0.5 3 1 3-1.9 6-4 1 0 2 0 0.3-1.2 0.6-2.4c1.4-2.6 1.4-2.6 4.3-3.9 3.1-0.7 3.1-0.7 6.1-0.7q1-1.5 2-3c5.1-2 5.1-2 8-2zm-29 12c1 0.5 1 0.5 2 1-1 0.5-1 0.5-2 1q0-1 0-2z"/><path class="ad" d="m2351 427c1.4 3.7 0.6 5.5-1 9q-0.6 2-1.2 4.1c-1.2 3.8-2.9 6.9-5 10.3-3.7 5.9-5.9 12-8.2 18.6-2.4 6.6-5.2 12.8-8.6 19q-1 0-2 0c0.6-5 2.2-9.3 4.3-13.8 0.5-1.1 0.5-1.1 1-2.3q1.6-3.6 3.3-7.2 1-2.3 2.1-4.6 2.1-4.7 4.2-9.3 2.2-5 4.4-10 0.5-1.2 1.1-2.5 1-2.4 2.1-4.8c2.4-5.4 2.4-5.4 3.5-6.5z"/><path class="ae" d="m465 299c-24.4 15.4-24.4 15.4-37.3 21.6-2.7 1.4-2.7 1.4-5.4 3.1-2.3 1.3-2.3 1.3-4.3 1.3q0-1 0-2 1.2-0.4 2.4-0.8c2.7-0.9 2.7-0.9 3.5-3.1 1.7-3.2 3.9-4.4 7.1-6.1 3.7-0.7 3.7-0.7 7-1q1.5-0.5 3-1 0-2 0-4 1.1-0.4 2.2-0.8c2.7-1.2 4.5-2.5 6.8-4.2 2.6-1.7 3.6-2.1 6.7-1.6q1.2 0.3 2.3 0.6 0-1 0-2c3-1 3-1 6 0z"/><path class="af" d="m588 842q2.5 0 5 0c-2.9 3.1-5.8 5.3-9.5 7.4q-1.6 1-3.2 1.9c-1.7 1-1.7 1-3.4 2-8 4.8-16 9.6-23.9 14.7q-1.2 0.8-2.5 1.6-3.3 2.2-6.7 4.3-1.1 0.8-2.3 1.5-2.7 1.8-5.5 3.6-1-1.5-2-3c3-0.5 3-0.5 6-1q0.5-1.5 1-3 1.2-0.1 2.4-0.2 1.3-0.4 2.6-0.8 0.5-0.9 0.9-1.9c1.3-2.5 2.5-3.3 5-4.7 2.2-1.3 4.3-2.5 6.3-4.1 3-2.2 5-3.3 8.8-3.3q0.4-1 0.7-1.9c1.3-2.1 1.3-2.1 3.2-2.6q1.1-0.2 2.1-0.5 0.7-1 1.4-2c2.1-2.6 3.4-2.4 6.6-3q0.8-0.8 1.6-1.6c1.4-1.4 1.4-1.4 5.4-1.4q0-1 0-2z"/><path class="ag" d="m2873 586c3.7 1.6 6.2 3.9 9.1 6.7 11 10.2 23.6 16.8 36.9 23.3q0 1 0 2c-5.4-0.5-9.4-2.5-14.1-4.9q-1.1-0.6-2.2-1.1-2-1.1-4-2.1-2.8-1.5-5.7-2.9 0-1 0-2-2-0.5-4-1 0-1 0-2-1.1-0.3-2.2-0.7c-3.3-1.5-4.6-3.5-6.8-6.3q-1.5-0.5-3-1 0-1.5 0-3-1.5 0-3 0-0.5-2.5-1-5z"/><path class="ah" d="m2220 634q2 0.5 4 1c0.7 3.3 1.3 6.6 2 10q1 0 2 0 0.5 1.4 0.9 2.9c2.2 7 4.6 13.6 8.1 20 1.9 3.9 2.3 7.9 3 12.1 4 0.3 7.9 0.7 12 1q0 1 0 2c-1.8 0.1-1.8 0.1-3.7 0.1q-1 0.1-2.1 0.1c-2.8-0.2-4.7-0.9-7.2-2.2-1.4-2-1.4-2-2.5-4.4q-0.6-1.3-1.2-2.7-0.7-1.4-1.3-2.9-0.6-1.4-1.3-2.9-1.9-4.5-3.8-9.1-0.6-1.5-1.2-3.1-1.3-3-2.5-6-1.2-2.9-2.4-5.8-0.5-1.3-1.1-2.7-0.5-1.1-1-2.3c-0.7-2.1-0.7-2.1-0.7-5.1z"/><path class="ai" d="m2201 587c1.9 0.3 1.9 0.3 4 1 1.1 1.6 1.1 1.6 1.9 3.8q0.4 1.2 0.9 2.4 0.5 1.3 1 2.7 1 2.7 2 5.4 0.6 1.4 1.1 2.9 1.6 4.1 3.4 8.1 0.5 1.3 1.1 2.6 1.1 2.4 2.2 4.8c1.8 4.3 2.8 7.5 2.4 12.3-3-1-3-1-4.3-3.5q-0.6-1.6-1.2-3.2-0.7-1.8-1.4-3.6-0.7-2-1.4-3.9-1.5-3.8-3-7.7-0.7-1.8-1.4-3.7c-2-5.1-4.1-10.1-6.4-15-0.9-2.4-0.9-2.4-0.9-5.4z"/><path class="aj" d="m450 676c4.6 0.6 8.2 2.6 12.3 4.8 5.4 3 10.9 5.8 16.7 8.2q0 1 0 2 1.1 0.2 2.2 0.3c3.1 0.8 5.1 2 7.8 3.7q1.4 0.8 2.8 1.6 1.1 0.7 2.2 1.4 0 1 0 2c3 0.3 5.9 0.7 9 1q0 1.5 0 3 1 0.5 2 1c-5-0.5-8.7-1.6-13.1-4q-1.7-0.9-3.5-1.9-1.8-1-3.6-2-1.9-1-3.7-2-4.7-2.6-9.3-5.1-4.1-2.2-8.1-4.4-6.9-3.8-13.7-7.6 0-1 0-2z"/><path class="ak" d="m2499 370c2.7 3.9 2 7.7 1.7 12.2-0.7 10.8-0.9 21.5-1 32.4 0 1.3 0 1.3 0 2.6q-0.1 8.2-0.2 16.3-0.1 7.1-0.2 14.1-0.2 13.7-0.3 27.4-0.5 0-1 0-0.2-15.1-0.4-30.1-0.1-7-0.2-14-0.2-15.7-0.4-31.4 0-4.2-0.1-8.5 0-5-0.1-10 0-1.3 0-2.8c0-2 0.1-4.1 0.2-6.2q1-1 2-2z"/><path class="E" d="m360 230q1 1.5 2 3-1.1 0.6-2.2 1.1c-6.3 3.3-6.3 3.3-12 7.6-2.7 2.3-5 3.1-8.3 4.2-3.4 1.5-6.4 3.5-9.5 5.5-4.9 3.2-9.6 6.3-15 8.6q-1-0.5-2-1c4.4-5.1 9.7-7.9 15.6-11.1q3.1-1.7 6.2-3.5 1.5-0.8 3.1-1.7c4.7-2.6 9.4-5.3 14-8q1.3-0.7 2.5-1.4 2.8-1.7 5.6-3.3z"/><path class="al" d="m1702 601q1 0 2 0c1.6 2.2 3.1 4.4 4.5 6.7 6.1 9.3 12.8 18 19.8 26.7 8.7 10.8 8.7 10.8 8.7 13.6q-1.5 0-3 0c-0.2-1-0.2-1-0.3-1.9q-0.4-1.1-0.7-2.1c-1.5-0.5-1.5-0.5-3-1q-1-2-2-4-1-0.5-2-1-0.5-1.5-1-3c-1.3-1.3-1.3-1.3-2.6-2.6-2.4-2.4-2.4-2.4-2.4-4.4q-1 0-2 0-1.6-2.5-3-5-1-1-2-2 0-1.5 0-3-1 0-2 0c-2-3-2-3-2-6q-0.9-0.3-1.9-0.6c-2.9-1.9-3.2-4.1-4.1-7.4q-1 0-2 0 0.5-1.5 1-3z"/><path class="am" d="m323 474c4.4 1.3 8 3 11.8 5.5q1.8 1.1 3.5 2.2c0.9 0.5 0.9 0.5 1.8 1.1 3.3 2.1 6.7 4.1 10.1 6q2.1 1.3 4.2 2.5 3.2 1.9 6.4 3.8 3.2 1.9 6.4 3.7 0.9 0.6 1.9 1.2c3 1.7 5.6 3.4 7.9 6q-1.5 0.5-3 1c-2.8-1.5-2.8-1.5-6.1-3.6-5.4-3.5-11-6.6-16.9-9.4q0-1 0-2c-1.1 0.1-1.1 0.1-2.3 0.3-3.6-0.4-4.2-1.6-6.7-4.3-5.1-3.7-10.5-6.9-16-10q-1.5-1-3-2 0-1 0-2z"/><path class="an" d="m3037 360c17 1.9 34.2 18.6 46 30q-0.5 1-1 2c-3.2-2-5.8-3.8-8.5-6.6-2.7-2.6-5.2-3.8-8.5-5.4q-0.5-1-1-2-1.5-0.5-3-1 0-1 0-2c-2.7-1.1-5.3-2.1-8-3q0-1 0-2-2-0.5-4-1 0-1 0-2c-1.3-0.4-1.3-0.4-2.6-0.8-3.3-1.2-6.3-2.6-9.4-4.2q0-1 0-2z"/><path class="ao" d="m2918 683q1.6 0.2 3.2 0.4 2.2 0.3 4.3 0.6 1 0.1 2.1 0.3c6.5 0.8 12.7 0.9 19.2 0.2 5.6-0.6 11.2-0.6 16.8-0.6 1.5 0 1.5 0 3.1 0.1q3.6 0 7.3 0c0.5 1.5 0.5 1.5 1 3-6.4 1.5-12.9 1.2-19.4 1.3q-1.1 0-2.1 0c-12.4 0-24.3-1.2-36.5-3.3q0.5-1 1-2z"/><path class="ap" d="m720 765q2 1 4 2 0-1 0-2 1.5 0 3 0 0 1 0 2-10.1 5.8-20.2 11.7-4.9 2.8-9.7 5.6-4.9 2.8-9.7 5.6-1.9 1-3.8 2.1-2.6 1.5-5.2 3-1.5 0.9-3 1.8c-2.4 1.2-2.4 1.2-4.4 1.2 1-2.5 1.6-3.7 3.9-5.1q1.1-0.4 2.3-0.8c3.1-1.3 5.7-2.6 8.4-4.7 3.3-2.6 6.3-3.5 10.4-4.4q0-1 0-2 1.9-1 3.8-2 1.1-0.6 2.2-1.1c2-0.9 2-0.9 5-0.9q0-1 0-2c1.5-0.7 1.5-0.7 2.9-1.4 3.2-1.3 3.2-1.3 4.1-3.6q2 0 4 0 1-2.5 2-5z"/><path class="aq" d="m1168 362c-3.1 2.8-6 4.5-9.9 6-6 2.8-11.7 6.6-16.6 10.9-2.5 2.1-2.5 2.1-5.5 2.1q-0.5 1.5-1 3-1.5 0-3 0 0 1 0 2c-0.9 0.1-0.9 0.1-1.9 0.2-2.3 0.6-2.3 0.6-3.3 2.9q-0.4 0.9-0.8 1.9c0-4.2 1.6-5.5 4.4-8.6 7-6.5 27.4-24.6 37.6-20.4z"/><path class="ar" d="m2573 506q1 0 2 0c0 17.8 0 35.6 0 54-1 0.5-1 0.5-2 1-0.7-13.5-1.1-26.9-1.1-40.4q0-1.9 0-3.7 0-1.7 0-3.5 0-1.5 0-3c0.1-2.4 0.1-2.4 1.1-4.4z"/><path class="as" d="m2708 617q0 0.5 0 1-1.2 0-2.3 0.1-5.3 0.2-10.6 0.3-1.8 0.1-3.7 0.2-1.8 0-3.6 0.1c-1.6 0-1.6 0-3.3 0.1-2.6 0.1-5.2 0.4-7.8 0.7-5.1 0.6-10.1 0.6-15.2 0.6-1.4 0-1.4 0-2.9 0q-4.6 0-9.2 0-3.1 0-6.2-0.1-7.6 0-15.2 0 0-0.5 0-1c26.6-2.5 53.3-2.2 80-2z"/><path class="at" d="m1466 679q0.5 1 1 2 1.9-0.2 3.8-0.5c15.3-1.7 31 0.3 46.2 1.5q0 0.5 0 1c-10.7 1.2-21.5 1.1-32.3 1.1q-2.7 0-5.4-0.1-6.7 0-13.3 0 0-2.5 0-5z"/><path class="au" d="m417 198c0.5 1.5 0.5 1.5 1 3-1.5 0.8-1.5 0.8-3 1.6-8.3 4.2-8.3 4.2-16 9.2-2.6 1.9-4.9 3.1-7.9 4.2-4 1.9-7.8 4.3-11.5 6.7-1.3 0.6-1.3 0.6-2.6 1.3q-1-0.5-2-1c3.4-3.8 7.2-6.1 11.6-8.6q1.1-0.7 2.3-1.3c6.4-3.8 12.9-7.4 19.5-11 7.5-4.1 7.5-4.1 8.6-4.1z"/><path class="av" d="m1320 534q0.5 0 1 0c0.3 5.3 0.7 10.6 1 16q0.5 0 1 0 0.1 10.1 0.1 20.2 0 3.5 0.1 6.9 0 5 0 9.9 0 1.5 0 3.1 0 1.4 0 2.9 0 1.3 0 2.6c-0.2 2.7-1.1 4.9-2.2 7.4q-0.5 0-1 0c0-22.8 0-45.5 0-69z"/><path class="aw" d="m1565 524.9q1.7 0 3.6 0 1.8 0 3.8 0 1.9 0 3.9 0 5.2 0 10.4 0 5.3 0 10.6 0.1 10.3 0 20.7 0 0 0.5 0 1c-7.4 1.8-14.4 2.3-22 2.3-1.7 0-1.7 0-3.4 0q-3.5 0-7 0-5.3-0.1-10.7 0-3.4 0-6.8 0-1.6 0-3.2 0-1.5 0-3 0-1.3 0-2.7 0c-2.2-0.3-2.2-0.3-5.2-2.3 3.7-0.9 7.2-1.1 11-1.1z"/><path class="ax" d="m1658 350c5.8-0.2 10.5 0.3 16 2q1.1 0.3 2.2 0.7c8.2 2.5 18.6 6.1 24.8 12.3-2.8 1.1-3.8 1.1-6.6-0.1q-1.5-0.8-3-1.6c-8.3-4.4-16.8-7.3-25.9-9.6-2.6-0.7-5-1.7-7.5-2.7q0-0.5 0-1z"/><path class="ay" d="m851 681q0.5 1.5 1 3c-2.5 4.6-5.3 8.5-10.4 10.1-1.3-0.1-1.3-0.1-2.6-0.1q-0.5 1.5-1 3-2.5 0.5-5 1c3.9-4.9 7.9-8.7 12.9-12.4 1.9-1.4 3.5-2.9 5.1-4.6zm-19.3 17.3c1.2 0.4 1.2 0.4 2.3 0.7-2 2-2 2-4.6 3-2.5 0.7-2.5 0.7-3.4 3q-1 0.2-1.9 0.4-1.1 0.3-2.1 0.6-0.5 1-0.9 2-0.6 1-1.1 2c-2.6 0.7-2.6 0.7-5 1 3.3-5.9 3.3-5.9 6-8q1.5 0 3 0 0.5-1 1-2c2.4-2.4 3.3-3.1 6.8-2.7z"/><path class="az" d="m2864 446c1.2 1.6 1.2 1.6 2 4-1.3 2.8-1.3 2.8-3.4 6.1-5.1 8.2-8.3 16.9-11.6 25.9q-0.5 0-1 0 0.2-2.7 0.4-5.4 0.2-1.5 0.3-3c0.3-2.6 0.3-2.6 1.3-4.6q-0.4-0.9-0.8-1.7c-0.2-2.3-0.2-2.3 2.1-5.5q1.3-1.4 2.7-2.8 1 0 2 0c0.3-2.3 0.7-4.6 1-7q1 0 2 0 0-1 0-2 1-1 2-2 0.5-1 1-2z"/><path class="aA" d="m500 583c2.8 0.9 5.6 1.8 8.3 3 7.8 3.2 15 3.7 23.4 3.8 1.9 0 1.9 0 3.9 0q4.7 0.1 9.4 0.2 0 1 0 2-6.2 0.4-12.5 0.7c-2.6 0.2-5.1 0.4-7.7 0.6-9.6 0.8-16.8-3.7-24.8-8.3q0-1 0-2z"/><path class="aB" d="m373 351q-2.6 1.6-5.3 3.3c-0.8 0.5-0.8 0.5-1.7 1q-5.5 3.4-11.1 6.7-1.3 0.8-2.6 1.6-2.6 1.5-5.2 3c-6.5 3.9-12.9 8-17.1 14.4-0.4-3.5-0.1-4.8 1.8-7.8 2.2-2.2 2.2-2.2 5.2-2.2q0-1 0-2c3-2 3-2 7-2q0-1 0-2c1.9-1.3 1.9-1.3 5-3q2.3-1.2 4.5-2.5 1.2-0.6 2.3-1.3c4.9-2.3 4.9-2.3 8.2-6.2 5.4-2.2 5.4-2.2 9-1z"/><path class="aC" d="m1818 596q0.5 0 1 0 0 1.4 0 2.8 0.1 13 0.3 26.1 0.1 6.7 0.1 13.4 0.1 6.5 0.2 12.9 0 2.5 0 5c0.1 8.1 0.2 15.9 2.4 23.8q0 1 0 2-2 0-4 0c0-28.4 0-56.8 0-86z"/><path class="aD" d="m2383 357c2.4 7.3-2.8 16.4-6 23-0.8 1.7-0.8 1.7-1.6 3.5-1.4 2.5-1.4 2.5-3.4 3.5-1.1 1.9-1.1 1.9-2.1 4.1q-0.6 1.1-1.1 2.2-0.4 0.8-0.8 1.7c-0.8-2.3-1.1-3.6-0.4-6q0.5-1 1.1-2.1 0.5-1.1 1.1-2.3 0.6-1.2 1.3-2.5 1.2-2.5 2.5-5.1 0.6-1.2 1.2-2.5c2.2-4.6 4.2-9.3 6.1-14 1.1-2.5 1.1-2.5 2.1-3.5z"/><path class="aE" d="m2388 511q1 0 2 0c1.4 3.7 0.8 5.9-0.6 9.4q-1.1 2.4-2.2 4.8-0.6 1.3-1.1 2.6c-2.8 6.1-2.8 6.1-5.1 7.2q0-2 0-4-1.5 0.5-3 1 0.5-2.5 1-5 1 0 2 0 0.2-0.9 0.4-1.8c0.6-2.2 1.5-4.1 2.6-6.2q0.2-1 0.4-2c0.7-2.5 1.9-4.1 3.6-6zm-1 4c0 3 0 3 0 3z"/><path class="aF" d="m207 326q1.5 0.5 3 1-1.3 1.5-2.6 3-0.8 0.9-1.6 1.9-1.8 2.1-3.7 4.2-1 1.1-1.9 2.1-0.9 1-1.8 2c-2.2 2.8-2.6 5.6-3 9q-0.2 1.9-0.4 3.8 1 0 2 0-0.5 2-1 4c-4.9-4.2-4.9-4.2-5.3-7.9 0.9-8.9 10.4-16.8 16.3-23.1z"/><path class="aG" d="m521 492q0.5 0 1 0c0 2.6 0 5.3 0 8q1 0 2 0c-0.5 2.8-1.1 5.3-2 8q1 0 2 0c0.7 5 1.1 9.1 0 14q0.3 1.5 0.6 3c0.5 3.4-0.1 5-1.6 8q-1 0-2 0c0-13.5 0-27.1 0-41z"/><path class="aH" d="m417 325q0 1 0 2-1.2 0.7-2.5 1.3-4.7 2.5-9.3 5-2 1.1-4 2.1-2.9 1.6-5.8 3.1-1.7 0.9-3.5 1.9c-3 1.6-3 1.6-5.9 3.6q-1.5-0.5-3-1 0.5-1.5 1-3 2 0 4 0 0.5-1 1-2 1 0.5 2 1 0-1 0-2c5.3-4 5.3-4 9-4q2-0.5 4-1 0.2-1 0.3-1.9 0.4-1.1 0.7-2.1c3-1 3-1 5.1-1.5 5.8-1.5 5.8-1.5 6.9-1.5z"/><path class="aI" d="m438 835c2.3 0.7 4.6 1.3 7 2q0 1 0 2 1 0.4 2 0.8c3.8 1.5 7.4 3.4 11 5.2q2.2 1.1 4.5 2.3 1.7 0.8 3.5 1.7 0 1 0 2c1.1 0.2 1.1 0.2 2.2 0.3 3 0.7 5.4 1.8 8.1 3.3q1.3 0.6 2.7 1.3 1 0.6 2 1.1 0 1 0 2c-4.3-0.6-7.5-2.1-11.3-4.2-0.8-0.4-0.8-0.4-1.8-0.9q-1.8-1-3.7-2.1-2.8-1.5-5.6-3c-5.5-3-11.1-6-16.5-9.2q-1.2-0.7-2.4-1.4-0.8-0.6-1.7-1.2 0-1 0-2z"/><path class="aJ" d="m2396.1 344.1c1.8 0.1 1.8 0.1 3.7 0.2 1.9 0.1 1.9 0.1 3.8 0.1 1.9 0.1 1.9 0.1 3.9 0.2q4.8 0.2 9.5 0.4c-2 2-2 2-3.9 2.2q-1.1-0.1-2.2-0.1-1.3-0.1-2.5-0.1-2.6-0.1-5.2-0.3c-5.7-0.1-8.7 0.5-13.2 4.3q-2.6 2.4-5 5c-0.3-4.7 0.2-7.2 3-11 2.8-1.4 5-1 8.1-0.9z"/><path class="aK" d="m1122 393c-0.3 1.9-0.3 1.9-1 4q-1.5 0.5-3 1c-1.3 2.2-2.2 4.4-3.2 6.8-2.4 4.2-5.3 7.9-8.8 11.2q-1 0-2 0-1 2-2 4-0.5-1.5-1-3c1.4-2.3 1.4-2.3 3.4-5.1q1.1-1.4 2.3-2.9 1.1-1.5 2.3-3c1.1-1.4 1.1-1.4 2.2-2.8 8-10.2 8-10.2 10.8-10.2z"/><path class="aL" d="m1577 345q8.9 0 17.9-0.1 3 0 6 0 4.4 0 8.8 0 1.3 0 2.7 0c5.6 0 11 0.4 16.6 1.1q0 1 0 2-5.8 0-11.7 0.1-2.9 0-5.8 0c-7.3 0-14.4-0.2-21.6-0.9-4.3-0.3-8.6-0.3-12.9-0.2q0-1 0-2z"/><path class="aM" d="m1541 625q0.5 0 1 0 0.2 8.3 0.4 16.6 0.1 2.9 0.2 5.7c0.3 11.6 0.5 23.1 0.4 34.7-4.6 0-9.2 0-14 0q0-0.5 0-1c5-0.5 5-0.5 10-1 0.8-6.7 1.2-13.2 1.3-19.9 0-1.6 0-1.6 0.1-3.1q0.1-4.8 0.2-9.6 0-3.2 0.1-6.5 0.2-7.9 0.3-15.9z"/><path class="aN" d="m2498 590q0.5 0 1 0c0.7 11.7 1.1 23.3 1 35-1 0.5-1 0.5-2 1-0.3 2.5-0.5 5-0.6 7.6q-0.1 1-0.1 2.1-0.2 2.7-0.3 5.3-0.5 0-1 0c-0.1-12.8-0.1-25.6 0.4-38.4q0.1-1.6 0.2-3.2 0-1.4 0.1-2.8 0-1.3 0.1-2.6c0.2-2 0.2-2 1.2-4z"/><path class="aO" d="m643.8 587.8c1.7 0 1.7 0 3.4 0 1.8 0 1.8 0 3.6 0q1.9 0 3.8 0 5.9 0 11.8 0.1 4 0 8 0 9.8 0 19.6 0.1c-3.9 2.2-6.8 2.2-11.3 2.2q-1 0-2.1-0.1-3.4 0-6.8 0c-18.2-0.8-18.2-0.8-36.1 1.5-2.4 0.6-3.6-0.4-5.7-1.6 4.1-1.5 7.5-2.2 11.8-2.2z"/><path class="aP" d="m2365 396q1 0.5 2 1c-1.2 6.9-4.1 12.6-7.3 18.7-1.4 2.8-2.6 5.4-3.7 8.3q-1 0-2 0-0.5 2-1 4c-0.3-5.2 0.3-8.5 2.6-13.2q0.8-1.6 1.7-3.3 0.8-1.7 1.7-3.4 0.9-1.8 1.7-3.6 2.1-4.2 4.3-8.5z"/><path class="aQ" d="m1214 345c-1 2-1 2-4.2 3.2q-2 0.7-4 1.3-1 0.3-2 0.6-2 0.7-3.9 1.3-2.6 0.8-5.1 1.7c-3.4 1.1-6.3 1-9.8 0.9q0-1 0-2 4.4-1.5 8.8-2.9 1.2-0.5 2.4-0.9 1.2-0.4 2.5-0.8 1.1-0.4 2.2-0.7c4.5-1.5 8.3-1.8 13.1-1.7z"/><path class="aR" d="m784 280c4.6 1.3 8.2 3.2 12.3 5.9q0.8 0.6 1.7 1.1 2.7 1.8 5.4 3.6 1.8 1.2 3.7 2.5 4.4 2.9 8.9 5.9-0.5 1-1 2c-2.9-0.3-4.6-0.5-6.6-2.7-3.4-3.3-7.3-5.5-11.4-7.9q-2.4-1.4-4.8-2.8c-1.1-0.7-1.1-0.7-2.2-1.3-2.1-1.3-4.1-2.7-6-4.3q0-1 0-2z"/><path class="aS" d="m1956.1 620.9q1.4 0 2.8 0 1.5 0 3.1 0 1.7 0 3.5 0 1.7 0 3.5 0 5.5 0 11.1 0 3.7 0 7.5 0.1 9.2 0 18.4 0 0 0.5 0 1c-6.5 1.1-12.8 1-19.3 0.9-3.7 0-3.7 0-7.5 0.7-3.2 0.4-3.2 0.4-6.2-0.6q-1.2 0.2-2.4 0.4c-5.2 0.8-10.4 1.1-15.6 0.6q-1-1-2-2c1-1 1-1 3.1-1.1z"/><path class="aT" d="m521 467q1 0.5 2 1c0 7.9 0 15.8 0 24q-1 0-2 0c0 10.2 0 20.5 0 31q-0.5 0-1 0 0-10.8-0.1-21.5 0-3.7 0-7.3 0-5.3 0-10.6 0-1.6 0-3.3 0-1.5 0-3.1 0-1.3 0-2.7c0.1-2.6 0.5-5 1.1-7.5z"/><path class="aU" d="m258 561c4.3 0.9 7.4 3 11 5.4 5.3 3.6 5.3 3.6 11 6.6q0 1 0 2c2.5 0.5 2.5 0.5 5 1q0 1.5 0 3c-4.2-1.3-7.5-2.8-11.2-5.2q-1.4-0.9-2.8-1.9-1.4-0.9-2.9-1.9-1.4-1-2.9-1.9-1.4-1-2.8-1.9-1.3-0.9-2.6-1.7-0.9-0.7-1.8-1.5 0-1 0-2z"/><path class="aV" d="m2906 677q0 1 0 2c1.3-0.1 1.3-0.1 2.6-0.1 3.8 0.1 6.7 1 10.4 2.1 5.4 1.2 10.5 2.1 16.1 1.9q1.9 0.1 3.9 0.1 1 1.5 2 3c-14.5-1-14.5-1-20.8-1.8q-2.5-0.2-5.1-0.3c-7.5-0.4-7.5-0.4-10.8-3.5-0.6-1.2-0.6-1.2-1.3-2.4 1-1 1-1 3-1z"/><path class="aW" d="m272 650q0 1.5 0 3-2.9 2.1-6 4-1 1-2 2-1.4 0.5-2.9 0.9c-3 0.9-3 0.9-4.9 2.5-3.4 2.5-7.3 3.4-11.2 4.6q0-1.5 0-3 0.8-0.4 1.6-0.9 3.8-1.9 7.5-3.8 1.3-0.7 2.6-1.4c3.7-1.9 7.3-3.9 10.8-6.2 2.5-1.7 2.5-1.7 4.5-1.7z"/><path class="aX" d="m3024.3 672.8c1.6 0.1 1.6 0.1 3.3 0.1q1.2 0 2.4 0.1c-4.2 2.8-8.7 4.1-13.4 5.7q-1.5 0.5-2.9 1-1.4 0.5-2.8 0.9-1.3 0.5-2.6 0.9c-2.5 0.5-3.9 0.3-6.3-0.5 3.3-4.1 5.9-4.4 11-5q1.1-0.7 2.3-1.5c3.3-1.8 5.3-1.8 9-1.7z"/><path class="aY" d="m816 301c4 0.4 6.8 2.7 10 5-1 3-1 3-2.5 4.1q-1 0.5-2 0.9-1 0.6-2.1 1.1c-1.1 0.5-1.1 0.5-2.3 1.1q-1.1 0.5-2.2 1.1c-5.5 2.7-5.5 2.7-8.9 2.7q0-1.5 0-3 1 0 2 0 0-1 0-2c2.6-0.3 5.3-0.7 8-1q0.5-1.5 1-3c2.1-0.7 2.1-0.7 4-1q-1-1.5-2-3-1 1-2 2 0-1.5 0-3-1-0.5-2-1 0.5-0.5 1-1z"/><path class="aZ" d="m3053 507q0.5 0 1 0 0.6 5.7 1.1 11.5 0.2 1.6 0.4 3.3c0.5 6.3 0.4 11.1-1.5 17.2q-0.2 1.4-0.4 2.8c-0.8 2.9-2.4 4.1-4.6 6.2q0.3-1.4 0.6-2.9c2.6-12.6 3.1-25.2 3.4-38.1z"/><path class="b0" d="m442 546c3.7 0.6 6.3 1.5 9.4 3.5q1.2 0.8 2.5 1.6 1.2 0.8 2.5 1.6c1.2 0.8 1.2 0.8 2.5 1.6q3.6 2.3 7.1 4.7 1.1 0.7 2.2 1.4c1.6 1.2 3.2 2.4 4.8 3.6q0 1 0 2-1.5 0-3 0 0-1 0-2-1.1-0.4-2.2-0.8c-2.8-1.2-5.2-2.6-7.8-4.2q-1-0.5-2-1 0-1 0-2-0.8-0.2-1.7-0.3c-2.8-0.8-4.9-2.1-7.4-3.6q-1.3-0.7-2.7-1.5c-2.2-1.6-2.2-1.6-4.2-4.6z"/><path class="b1" d="m2049 542c-3.1 1.8-5.2 2.2-8.8 2.2q-1.4 0-2.8 0c-1.5 0-1.5 0-3.1 0q-1.5 0-3.1 0-5 0-9.9-0.1-3.4 0-6.8 0-8.2 0-16.5-0.1 0-0.5 0-1 7.3-0.5 14.6-0.9 2.4-0.2 4.9-0.3c10.6-0.7 20.9-0.8 31.5 0.2z"/><path class="b2" d="m450 676c4.6 0.6 8.2 2.6 12.3 4.8 5.4 3 10.9 5.8 16.7 8.2q0 1 0 2c-7.1-0.3-12.4-3.6-18.4-7.1q-1.6-0.8-3.1-1.7-3.8-2.1-7.5-4.2 0-1 0-2z"/><path class="b3" d="m1465 344c19.5 0 38.9 0 59 0q0 0.5 0 1-1.6 0-3.3 0.1-6.2 0.1-12.3 0.3-2.6 0-5.3 0.1-3.8 0.1-7.6 0.2c-1.2 0-1.2 0-2.4 0-3.5 0.1-6.7 0.4-10.1 1.3q-2.5 0-5 0 0-1 0-2c-1.3 0.3-1.3 0.3-2.6 0.6-3.5 0.4-6 0.1-9.4-0.6q-0.5 1-1 2 0-1.5 0-3z"/><path class="R" d="m207 694q1 0 2 0 0 1 0 2 1.1 0.4 2.3 0.9c2.7 1.1 2.7 1.1 5.7 3.1q0 1 0 2 2.5 0 5 0 0.5 1.5 1 3 2.5 1.1 5 2c3.3 2 3.3 2 6 4q0 1 0 2c-6.1-0.9-10.2-4.3-15.2-7.8q-1.4-1-2.8-1.9-1.3-0.9-2.6-1.9-1.2-0.8-2.4-1.7c-2.1-1.8-3-3.2-4-5.7z"/><path class="b4" d="m2024 680c1 0.2 1 0.2 1.9 0.4 4.3 0.8 8.6 0.7 12.9 0.7 1.3 0 1.3 0 2.7-0.1q3.2 0 6.5 0 0-0.5 0-1 2.5 0 5 0 0 0.5 0 1c2.6 0.3 5.3 0.7 8 1q0 0.5 0 1c-17.2 0-34.3 0-52 0q-0.5-1-1-2 1.6 0 3.2 0 2.1 0 4.2 0.1 1.1 0 2.2 0 2.7 0 5.4-0.1 0.5-0.5 1-1z"/><path class="b5" d="m2827 644c3.9 0.6 6.3 1.6 9.4 3.9 3.5 2.4 6.8 4.4 10.6 6.1q-1 2-2 4c-6.4-3.9-12.5-7.9-18-13q0-0.5 0-1z"/><path class="b6" d="m301.2 630.4c0.9 0.3 0.9 0.3 1.8 0.6q-0.8 0.5-1.7 1.1c-7.3 4.8-14.4 9.8-20.8 15.9q-0.7 0.5-1.5 1-1.5-0.5-3-1 1 0 2 0 0.1-0.9 0.3-1.8c0.9-2.8 2-3.5 4.4-5.1q1.1-0.8 2.3-1.6 1.2-0.8 2.4-1.6 1.1-0.8 2.3-1.7c9.2-6.2 9.2-6.2 11.5-5.8z"/><path class="b7" d="m312 259q0 1 0 2c-1.9 1.3-1.9 1.3-4.5 2.8-3.3 1.9-6.6 3.9-9.8 6-3.1 1.9-6.1 3.2-9.7 4.2q0-1.5 0-3c1.6-0.9 1.6-0.9 3.3-1.9q2.2-1.2 4.4-2.4 1.1-0.6 2.2-1.2 1-0.6 2.1-1.2c1-0.6 1-0.6 2.1-1.2q2.4-1.4 4.7-2.9c2.2-1.2 2.2-1.2 5.2-1.2z"/><path class="b8" d="m756 745q1 0.5 2 1c-0.2 1.8-0.2 1.8-1 4-2 1.6-2 1.6-4.6 3q-1.3 0.8-2.7 1.5-1.3 0.8-2.7 1.5c-1.2 0.6-1.2 0.6-2.3 1.3-5.2 2.7-5.2 2.7-8.7 2.7q0-1 0-2 1.4-0.6 2.7-1.3c2.8-1.4 4.9-2.8 7.3-4.7q3-2 6-4 2-1.5 4-3z"/><path class="b9" d="m1158 662c8.8 0.9 17 5.4 25 9q0 1 0 2c-6.4-0.7-11.8-2.6-17.6-5.5q-0.9-0.5-1.8-0.9c-4.5-2.3-4.5-2.3-5.6-4.6z"/><path class="ba" d="m2936.9 341.7c1.3 0 1.3 0 2.6 0q4.1 0.1 8.2 0.1 2.8 0 5.6 0.1 6.9 0 13.7 0.1 0 0.5 0 1c-8.4 1.1-16.8 1.1-25.2 0.9-5.1-0.1-9 0.2-13.8 2.1-2.4-0.4-2.4-0.4-4-1 3.8-3.9 7.8-3.4 12.9-3.3z"/><path class="bb" d="m645 680q-1.6 1.8-3.3 3.5c-0.9 1-0.9 1-1.9 2-1.8 1.5-1.8 1.5-4.8 1.5-2.3 1.3-2.3 1.3-4.6 2.9-4.3 3-4.3 3-6.4 4.1 0.1-2.2 0.1-2.2 1-5 2.1-1.6 4-2.9 6.3-4.2q0.8-0.5 1.7-1c9-5.3 9-5.3 12-3.8z"/><path class="bc" d="m1900 480c16.8 0 33.7 0 51 0q0 0.5 0 1c-13.7 0.6-27.3 1.2-41 1q-1.5 0-3 0-3.5-0.5-7-1 0-0.5 0-1z"/><path class="bd" d="m2215 423c2.6 3.9 4.4 8.1 6.3 12.4 0.5 1.3 0.5 1.3 1.1 2.6q0.6 1.3 1.1 2.6 0.5 1.1 1 2.2c0.6 2.8 0 3.9-1.5 6.2q0-1 0-2-1 0-2 0-0.2-1.7-0.4-3.4-0.3-1.8-0.6-3.6-1-0.5-2-1c-1.3-3.9-2-6.9-2-11q-1 0-2 0 0.5-2.5 1-5z"/><path class="be" d="m1226 412q-0.9 0.4-1.7 0.8-4 1.7-7.9 3.5-1.4 0.5-2.8 1.1c-3.9 1.8-7.6 3.5-11.1 6-1.2 0.8-1.2 0.8-2.5 1.6q-1.5-0.5-3-1c2-3 2-3 5.1-3.7 1.4-0.1 1.4-0.1 2.9-0.3q0-1 0-2 1.2-0.1 2.4-0.2 1.3-0.4 2.6-0.8c1.4-2.5 1.4-2.5 2-5q1 1 2 2 1.1-0.5 2.3-0.9c3.8-1.5 5.8-2.3 9.7-1.1z"/><path class="bf" d="m2522 344c14.5 0 29 0 44 0-4.1 2-5.5 2.2-9.9 2.2-1.7-0.1-1.7-0.1-3.5-0.1q-1.8 0-3.7 0c-8.4-0.2-16.6-0.1-24.9 0.9q-1-1.5-2-3z"/><path class="bg" d="m293 461c6.5 0.5 11.6 2.8 17.4 5.6 1.4 0.6 1.4 0.6 2.8 1.2q3.4 1.6 6.8 3.2 0 1.5 0 3c-4.4-1.7-8.6-3.6-12.9-5.4q-1.1-0.5-2.1-0.9c-4.1-1.8-8.1-3.7-12-5.7q0-0.5 0-1z"/><path class="bh" d="m609 661q2.5 0 5 0 0 1 0 2c-2.2 1.5-2.2 1.5-5.2 3.3q-1.6 0.9-3.2 1.9-1.7 0.9-3.5 1.9-1.7 1-3.4 2c-8.4 4.9-8.4 4.9-10.7 4.9q0-1 0-2c6.8-4 6.8-4 9-4q0-1 0-2 1.4-0.4 2.9-0.9c3.2-0.7 3.2-0.7 4.1-3.1q1.5 0 3 0 1-2 2-4z"/><path class="bi" d="m475 567c3.9 0.6 6.4 1.7 9.6 3.9q1.3 0.8 2.6 1.7 1.3 0.9 2.6 1.8 1.3 0.9 2.7 1.9c4.8 3.3 4.8 3.3 6.5 4.7q0 1 0 2c-5.9-2.1-12.5-4.7-16-10-1.7-1.1-1.7-1.1-3.6-2.1-3.4-1.9-3.4-1.9-4.4-3.9z"/><path class="bj" d="m2497 618q0.5 0 1 0c0.6 7.6 1.1 15.1 0.9 22.7 0 2.3 0 2.3 0.7 4.4 0.7 3.2-0.5 5.8-1.6 8.9q-1 1.5-2 3c-0.2-13 0.4-26 1-39z"/><path class="bk" d="m1075 536q1.5 0.5 3 1c1.3 6.4 2.2 12.4 2 19q-1.5-0.5-3-1c-1.3-6.4-2.2-12.4-2-19z"/><path class="bl" d="m1395 402q1 0 2 0c-3.1 7.7-11.2 12.8-18 17q-1.5 0-3 0 0-1 0-2 2-1.4 4.1-2.8c2.1-1.3 4.1-2.8 6.2-4.3q0.9-0.7 2-1.4c1.9-1.6 1.9-1.6 3.7-4.5q1.5 0 3 0 0-1 0-2z"/><path class="bm" d="m417 531c3.8 0.6 6.6 1.7 9.9 3.7 1.3 0.8 1.3 0.8 2.6 1.7q1.4 0.8 2.8 1.7 1.4 0.8 2.8 1.7 3.5 2.1 6.9 4.2-1.5 1-3 2-0.8-0.7-1.7-1.4c-2.4-1.6-4.6-2.6-7.3-3.6q0-1 0-2-1.3-0.3-2.6-0.7c-4.1-1.6-6.9-3.6-10.4-6.3q0-0.5 0-1z"/><path class="bn" d="m1392 618q1 0.5 2 1c0.6 19 0.6 19-3 27q-2.5-0.5-5-1c1-2.2 2-4 3.6-5.9 2.9-4.4 2.5-9.8 2.5-15q-0.1-1.7-0.1-3.5 0-1.3 0-2.6z"/><path class="bo" d="m2826 384q1 0.5 2 1c-2.1 4.7-4.5 7.8-8.2 11.4q-1.3 1.3-2.7 2.6-1 1-2.1 2c0-4.4 0.3-6.2 3.3-9.6 1.4-1.3 1.4-1.3 2.8-2.7q1.3-1.3 2.7-2.7 1.1-1 2.2-2z"/><path class="bp" d="m1216 680c0.9 0.3 0.9 0.3 1.9 0.6 2.1 0.6 2.1 0.6 4.1-0.6q0 1 0 2 1.5 0 3 0 0 1 0 2c4.3 0.3 8.6 0.7 13 1q-0.5 1-1 2c-7.8-0.5-15.3-1.4-23-3q1-2 2-4z"/><path class="bq" d="m2434 404q0.5 1 1 2-1.3 3-2.9 5.8c-2 3.8-3.3 7-4.1 11.2-1.2 2.5-1.2 2.5-2.6 4.8q-0.6 1.2-1.3 2.4-0.6 0.9-1.1 1.8c-1.4-4.3 0.5-7.3 2.2-11.2q0.4-1.2 0.9-2.3c4.8-11.4 4.8-11.4 7.9-14.5z"/><path class="br" d="m492 282q0 1 0 2-3.9 2.3-7.9 4.5-1.1 0.6-2.2 1.3-1.1 0.6-2.2 1.2-1 0.6-2 1.2c-1.7 0.8-1.7 0.8-3.7 0.8 1.4-3.2 2-4 5-6q1.2-1 2.4-2.1c3.6-2.6 6.2-2.9 10.6-2.9z"/><path class="bs" d="m1598.8 584.1q1.3 0.1 2.7 0.2 1.3 0.1 2.8 0.1 1.3 0.1 2.8 0.2 3.4 0.2 6.9 0.4c-2 2-2 2-5.3 2.2q-2.2 0-4.3 0c-1.2 0-1.2 0-2.3 0q-3.6 0-7.2-0.1-2.5 0-4.9 0-6 0-12-0.1 0-0.5 0-1c1.2-0.1 1.2-0.1 2.5-0.2 1.6-0.1 1.6-0.1 3.3-0.2q1.5-0.2 3.2-0.3c2.8-0.2 2.8-0.2 4.9-0.8 2.4-0.6 4.4-0.5 6.9-0.4z"/><path class="bt" d="m572.4 723.3q0.8 0.3 1.6 0.7-0.8 0.5-1.6 1.1c-5.9 3.9-11.7 7.8-17.4 11.9q-1-0.5-2-1c3.4-3.6 6.9-6.6 11.1-9.4q1.5-1 3.1-2.1c2.8-1.5 2.8-1.5 5.2-1.2z"/><path class="bu" d="m2572 565c3 3 3 3 3.3 6.7q0 2.4 0 4.7 0 1.2 0 2.5-0.1 3.9-0.1 7.8 0 2.6-0.1 5.3 0 6.5-0.1 13-0.5 0-1 0c-0.3-9.2-0.7-18.5-1-28q-0.5 0-1 0c0-4 0-7.9 0-12z"/><path class="bv" d="m3065 376c5 1.5 8.1 4.6 11.8 8.1 0.9 0.9 0.9 0.9 1.8 1.7q2.2 2.1 4.4 4.2-0.5 1-1 2c-3.2-2-5.8-3.8-8.5-6.6-2.7-2.5-5.1-3.9-8.5-5.4q0-2 0-4z"/><path class="bw" d="m1818 652q0.5 0 1 0 0.1 1.9 0.1 3.8 0.2 2.6 0.3 5.1 0 1.3 0.1 2.6c0.2 5 0.9 9.8 2.1 14.7 0.4 1.8 0.4 1.8 0.4 3.8q-2 0-4 0c0-9.9 0-19.8 0-30z"/><path class="bx" d="m2928 619c11.6 0.7 23.1 1.3 35 2q0 0.5 0 1c-2.6 0-5.3 0-8 0q0 1 0 2-1.5 0-3 0 0-1 0-2-2.5 1-5 2-0.5-0.5-1-1c-3.5-0.2-7.1-0.4-10.6-0.5-3.4-0.5-3.4-0.5-7.4-3.5z"/><path class="by" d="m1325 350c4.6 0.6 8.6 1.8 12.9 3.6q1.7 0.6 3.5 1.3c1.3 0.6 1.3 0.6 2.6 1.1q-0.5 1.5-1 3c-4.2-1.4-8.3-2.9-12.4-4.6q-1.6-0.7-3.2-1.4-1.2-0.5-2.4-1 0-1 0-2z"/><path class="bz" d="m2922 342q1 1.5 2 3c-5.3 0.7-10.6 1.3-16 2q0-1.5 0-3c4.8-1.6 8.9-2.5 14-2z"/><path class="bA" d="m2556 679q0 1 0 2c-6.9 0-13.9 0-21 0q0.5-1 1-2c6.4-1.1 13.7-2.1 20 0z"/><path class="bB" d="m1120 630q2 0 4 0 0.5 1 1 2 1.5 0.5 3 1 0.5 3 1 6-1.5 0.5-3 1-1.5-1.4-3-2.8-0.8-0.7-1.7-1.5c-1.3-1.7-1.3-1.7-1.3-5.7z"/><path class="bC" d="m1075 518q0.3 3.1 0.7 6.2c0.1 1.8 0.1 1.8 1.3 2.8 0.5 6.2 0.5 6.2-1.5 9.4q-0.7 0.8-1.5 1.6c-1.1-6.3-1.3-12.6-1-19 1-1 1-1 2-1z"/><path class="bD" d="m1681 680q1 0.2 2 0.5c3.7 0.6 7.4 0.7 11.1 0.8 1.2 0 1.2 0 2.4 0.1q3.6 0.1 7.3 0.2 2.5 0 5 0.1 6.1 0.2 12.2 0.3 0 0.5 0 1c-13.2 0-26.4 0-40 0q0-1.5 0-3z"/><path class="bE" d="m1750 663c5.3 4.8 10.3 10.6 11 18-3-1-3-1-4.2-2.8-0.8-2.2-0.8-2.2-0.8-6.2q-1 0-2 0 0-1.5 0-3-2-0.5-4-1c-0.6-1.9-0.6-1.9-1-4q0.5-0.5 1-1z"/><path class="bF" d="m1618 525q0 0.5 0 1c-8 2.1-15.4 2.1-23.6 1.6q-1.8-0.1-3.6-0.1-4.4-0.3-8.8-0.5 0-0.5 0-1c12-0.8 24-1.1 36-1z"/><path class="bG" d="m197 357c2 1 2 1 4 2q0 1 0 2 1 0 2 0c2.1 1.9 2.1 1.9 4 4q0 1 0 2 2 1 4 2 0 1 0 2c-4.3-0.5-6.3-2.9-9.3-5.9q-1.3-1.3-2.7-2.7c-2-2.4-2-2.4-2-5.4z"/><path class="bH" d="m1184 353q0.5 1.5 1 3c-1.3 0.4-1.3 0.4-2.7 0.9-4.1 1.4-7.7 2.7-11.3 5.1q-1-1.5-2-3 2.9-1.5 5.8-3 1.6-0.8 3.3-1.7c2.9-1.3 2.9-1.3 5.9-1.3z"/><path class="bI" d="m462 847q2 1 4 2 0 1 0 2 1.1 0.2 2.2 0.3c3 0.7 5.4 1.8 8.1 3.3q1.3 0.6 2.7 1.3 1 0.6 2 1.1 0 1 0 2c-5.1-0.6-9-3-13.3-5.6q-1.1-0.6-2.3-1.2-2.7-1.6-5.4-3.2 1-1 2-2z"/><path class="bJ" d="m677 658q1 0.5 2 1c-4.7 5.3-10 8.4-17 10 1.5-4.4 4.5-5.7 8.5-7.8 0.9-0.5 0.9-0.5 1.8-1 1.5-0.8 3.1-1.5 4.7-2.2z"/><path class="bK" d="m661 635q-3.8 2.4-7.7 4.8-1.1 0.7-2.2 1.4-2.1 1.3-4.2 2.6-2.4 1.5-4.7 3.1-1.1 0.5-2.2 1.1-1.5-0.5-3-1c1.1-0.6 1.1-0.6 2.1-1.3 3.9-2.3 7.7-4.8 11.5-7.3 2.4-1.4 2.4-1.4 4.4-1.4q0-1 0-2c3-1 3-1 6 0z"/><path class="bL" d="m1739 523c0.8 1.6 0.8 1.6 1 4-1.4 2.4-2.8 4.5-4.4 6.8q-0.7 0.8-1.4 1.8-1.6 2.2-3.2 4.4-1-0.5-2-1 0.5-1.5 1-3 1 0 2 0 0.2-1.1 0.4-2.3c1.1-4.8 3-7.3 6.6-10.7z"/><path class="bM" d="m521 492q0.5 0 1 0c0 2.6 0 5.3 0 8q1 0 2 0-0.2 1-0.5 2.1c-0.5 3.1-0.7 6-0.8 9.1q-0.1 1.7-0.1 3.5-0.1 1.8-0.2 3.6 0 1.8-0.1 3.7-0.2 4.5-0.3 9-0.5 0-1 0c0-12.9 0-25.7 0-39z"/><path class="bN" d="m2872 356c-1.1 3-1.9 4-4.7 5.7q-1.6 0.8-3.2 1.5c-1.6 0.8-1.6 0.8-3.3 1.6-2.8 1.2-2.8 1.2-5.8 1.2 1-3 1-3 4.1-4.8q1.9-1 3.8-1.9 1-0.5 2-1c4.8-2.3 4.8-2.3 7.1-2.3z"/><path class="bO" d="m2998 347c15.9 1.7 15.9 1.7 22 5q0 1 0 2c-4.3 0.3-7.2-0.3-11.1-2.1-3.5-1.6-7.2-2.7-10.9-3.9q0-0.5 0-1z"/><path class="bP" d="m516 271q-4.6 2.6-9.3 5.1-1.3 0.7-2.7 1.4-1.2 0.7-2.6 1.4-1.1 0.6-2.3 1.3c-2.1 0.8-2.1 0.8-5.1-0.2 1.3-1.5 1.3-1.5 3-3q1.5 0 3 0 0.5-1 1-2 3-1 6-2c1.6-0.8 1.6-0.8 3.2-1.7 2.8-1.3 2.8-1.3 5.8-0.3z"/><path class="bQ" d="m594 712c-10.4 7.7-10.4 7.7-16 9 1.5-3.8 3.4-5.2 6.9-7.3q1.3-0.8 2.6-1.6c2.8-1.2 3.8-1.2 6.5-0.1z"/><path class="bR" d="m2386 520c1.4 2.8 0.6 4-0.3 6.9-0.3 1.4-0.3 1.4-0.7 2.7-1 2.4-2 3.7-4 5.4q0-2 0-4-1.5 0.5-3 1c1.4-2.9 2.9-5.5 5-8q1 0 2 0 0.5-2 1-4z"/><path class="bS" d="m1358 432q1.5 0.5 3 1c-8.4 9.5-8.4 9.5-13.1 10.1q-1.4-0.1-2.9-0.1 0.5-1.5 1-3c1.7-0.1 1.7-0.1 3.4-0.2 3.6-0.4 3.6-0.4 4.8-2.7q0.4-1 0.8-2.1c1.6-1.7 1.6-1.7 3-3z"/><path class="bT" d="m620 695c-2.1 3.1-3.2 3.9-6.4 5.6q-1.1 0.7-2.3 1.3c-2.1 1-4 1.6-6.3 2.1 1.5-3.8 3.5-5.3 6.9-7.3q1.3-0.8 2.7-1.6c2.4-1.1 2.4-1.1 5.4-0.1z"/><path class="bU" d="m1332 669q1 0.5 2 1c-1.8 3.9-1.8 3.9-4 5q-4.3 0.6-8.6 1.1-1.2 0.1-2.5 0.2-2.9 0.4-5.9 0.7c1.7-2.1 2.6-2.9 5.3-3.4q1.2 0 2.5 0c4.9-0.4 7.4-1.5 11.2-4.6z"/><path class="bV" d="m244 667c-2.6 3-5.5 4.5-9 6.2q-1.6 0.8-3.2 1.6c-2.8 1.2-2.8 1.2-5.8 1.2 4.6-5.4 10.8-9.5 18-9z"/><path class="bW" d="m1367 657c2.1 0.4 2.1 0.4 4 1q-4.6 2.6-9.3 5.1-1.3 0.7-2.7 1.4-1.2 0.7-2.6 1.4-1.1 0.6-2.3 1.3c-2.1 0.8-2.1 0.8-5.1-0.2 5.5-3.4 10.9-6.6 17-9q0.5-0.5 1-1z"/><path class="bX" d="m677 621q1.5 0 3 0c-1.5 4.3-4.7 6.1-8.4 8.3-0.9 0.6-0.9 0.6-1.8 1.1-1.7 1.1-1.7 1.1-4.8 2.6q-1.5-0.5-3-1c4.8-3.9 8.8-7.1 15-8q0-1.5 0-3z"/><path class="bY" d="m1162 467c1.1 3.2 1 3.9 0 7q-0.3 1.1-0.7 2.3-0.4 1.2-0.7 2.4-0.4 1.2-0.8 2.4-0.9 3-1.8 5.9-0.5 0-1 0c-0.5-7.6 0-12.5 4-19q0.5-0.5 1-1zm-8 12c1 0.5 1 0.5 2 1-1 0.5-1 0.5-2 1q0-1 0-2z"/><path class="bZ" d="m3114 589q1 2 2 4c-2 2.3-4 4.6-6 7q-0.5-1-1-2c1-2.2 1-2.2 2.4-4.6q0.7-1.2 1.5-2.5 0.5-0.9 1.1-1.9zm-6 11q0.5 1 1 2-1.5 1.5-3 3 1-2.5 2-5zm-4 5q1 0 2 0c-1.8 4.9-1.8 4.9-4 6q1-3 2-6z"/><path class="c0" d="m2779 569q1 0 2 0c4.4 7.9 4.4 7.9 4 13q0.4 2.5 1 5c-2.3-2.9-3.8-5.6-5.2-9q-0.5-1.3-1-2.6c-0.8-2.4-0.8-2.4-0.8-6.4z"/><path class="c1" d="m258 561c3.8 0.7 6.5 2.4 9.8 4.5 1.4 0.9 1.4 0.9 2.9 1.9q1.2 0.8 2.3 1.6 0 0.5 0 1c-4.5 0.4-6.7-0.7-10.3-3.4-1.3-0.9-1.3-0.9-2.7-1.9q-1-0.8-2-1.7 0-1 0-2z"/><path class="c2" d="m1132 384c1 0.5 1 0.5 2 1-1 0.5-1 0.5-2 1q0-1 0-2zm-6 2q0 1.5 0 3 2-1.5 4-3 1 0.5 2 1c-3 3-5.9 5.9-9 9q-0.5-1.5-1-3-1-0.5-2-1c2-2 4-4 6-6z"/><path class="c3" d="m1700 569q-5.5 5.5-11 11c-0.8-1.7-0.8-1.7-1-4 2.3-2.8 2.3-2.8 5-5q1 0 2 0 0-1 0-2c2-1 2-1 5 0z"/><path class="c4" d="m2907 346c-2.5 2.5-4.5 2.8-7.9 3.7q-1.6 0.4-3.3 0.8c-2.8 0.5-2.8 0.5-5.8-0.5 5.3-3.6 10.6-5.9 17-4z"/><path class="c5" d="m660 210c4.5 1.7 8.7 3.8 13 6q0 1.5 0 3-2.5-0.5-5-1-0.5-1.5-1-3c-3-0.5-3-0.5-6-1q-0.5-2-1-4z"/><path class="c6" d="m2574 478q0.5 0 1 0c0 7.3 0 14.5 0 22-2-1-2-1-3-3-0.2-2.7-0.1-5.3 0-8q0.5-0.5 1-1 0.3-2.5 0.6-5.1 0.1-1.3 0.2-2.7 0.1-1.1 0.2-2.2z"/><path class="c7" d="m1332 430c6.4 2 9.9 6.3 13 12-5.2-1.4-8.6-4.9-12-9q-0.5-1.5-1-3z"/><path class="c8" d="m1374 420q0 1.5 0 3c-1.8 1.8-1.8 1.8-4.3 3.6-1.1 0.9-1.1 0.9-2.3 1.9-2.2 1.4-3.8 2.1-6.4 2.5 0.4-2.6 0.7-3.7 2.7-5.4q1-0.6 2.1-1.2c1-0.6 1-0.6 2.1-1.3q3-1.6 6.1-3.1z"/><path class="c9" d="m1311 415c4 1.2 7.5 2.6 11 5q0 1 0 2 2 0.5 4 1 0 1 0 2c-3.8-1.4-7.3-3.2-10.8-5.1q-1.5-0.8-3-1.7-1.1-0.6-2.2-1.2 0.5-1 1-2z"/><path class="ca" d="m3021 353c9.9 1.8 9.9 1.8 14 5q0 1 0 2c-9.9-1.8-9.9-1.8-14-5q0-1 0-2z"/><path class="cb" d="m695 609c-0.3 3.2-1 4-3.5 6.1q-1.5 1.1-3.1 2.2-1.5 1-3 2.1-1.2 0.8-2.4 1.6-0.5-1.5-1-3 1.1-0.6 2.2-1.2c3-1.9 5.3-4.2 7.8-6.8 1-1 1-1 3-1z"/><path class="cc" d="m1199 604c5.3 0.5 8.6 2.3 13 5q0 1.5 0 3-3-1-6-2c-1.4-0.4-1.4-0.4-2.8-0.9-2.6-1.3-3.2-2.4-4.2-5.1z"/><path class="cd" d="m194 344q1 0.5 2 1c-0.3 2.6-0.7 5.3-1 8q1 0 2 0-0.5 2-1 4c-4.9-4.3-4.9-4.3-5.3-7.8q0.1-1.1 0.3-2.2 1 0 2 0 0.5-1.5 1-3z"/><path class="ce" d="m285 273q1 0.5 2 1c-2.5 2-2.5 2-5 4-1.2 1.1-1.2 1.1-2.4 2.3-3.1 2.1-4.9 2-8.6 1.7 2.5-2.8 5.3-4.4 8.6-6.3q1.4-0.8 2.9-1.6 1.2-0.5 2.5-1.1z"/><path class="cf" d="m491 863c3.5 1.1 6.8 2.3 10 4q0 1 0 2 2 0 4 0 0 1 0 2c-5.9-0.5-10.1-3-15-6q0.5-1 1-2z"/><path class="cg" d="m1179 671c1.9 0.2 1.9 0.2 4.1 0.9q1.1 0.3 2.2 0.6 0.8 0.2 1.7 0.5 0 1 0 2c5.4 1 5.4 1 11 2-4 2-4 2-6 1.7q-1-0.4-2.1-0.8-1.1-0.4-2.3-0.9-1.2-0.4-2.3-0.9-1.2-0.4-2.5-0.9-2.9-1.1-5.8-2.2 1-1 2-2z"/><path class="ch" d="m2212 608c2.2 2.2 3 4.1 4.2 7q0.5 1.3 1.1 2.7c0.7 2.3 0.7 2.3-0.3 4.3q-1.5 0-3 0c-3.6-9.4-3.6-9.4-2-14z"/><path class="ci" d="m1178 584c4.1 3.4 7.8 6.7 11 11q-1.5 0.5-3 1 0-1 0-2-1.5-0.5-3-1c-1.7-1.4-1.7-1.4-3-3q0-1 0-2-1.5-0.5-3-1 0.5-1.5 1-3z"/><path class="cj" d="m2367 562q1 0 2 0c0.8 6.2-2.1 10.7-5 16-1.2-4-0.5-6.1 1-10q0.6-1.7 1.1-3.4 0.5-1.3 0.9-2.6z"/><path class="ck" d="m1193 425q1.5 1 3 2-3.2 3-6.4 6c-0.9 0.9-0.9 0.9-1.8 1.7-0.9 0.8-0.9 0.8-1.8 1.7q-0.8 0.7-1.6 1.5c-1.4 1.1-1.4 1.1-3.4 1.1q1-2 2-4 1 0 2 0c0.4-0.9 0.4-0.9 0.9-1.9 1.1-2.1 1.1-2.1 3.1-4.1q1.5 0 3 0 0.5-2 1-4z"/><path class="cl" d="m784 280c5.3 1.5 9.5 4 14 7-1 1.5-1 1.5-2 3q-3-1.9-6-3.9-0.9-0.5-1.7-1.1c-1.5-0.9-2.9-2-4.3-3q0-1 0-2z"/><path class="cm" d="m567 688q1 0.5 2 1-3.1 1.9-6.3 3.9-0.8 0.5-1.7 1.1c-6.7 4.1-6.7 4.1-9 5q-1.5-0.5-3-1c4.8-3 4.8-3 7-3q0.5-1 1-2 1.5 0 3 0 0-1 0-2 3.5-1.6 7-3z"/><path class="cn" d="m2373 380q1 0 2 0c-0.4 2.9-0.4 2.9-1 6-1 0.5-1 0.5-2 1-1.1 1.9-1.1 1.9-2.1 4.1q-0.6 1.1-1.1 2.2c-0.4 0.8-0.4 0.8-0.8 1.7-0.7-1.6-0.7-1.6-1-4 1.2-2.8 1.2-2.8 2.9-5.8q0.9-1.4 1.8-2.9 0.6-1.2 1.3-2.3z"/><path class="co" d="m523 547c2 2 2 2 2 6q1 0 2 0c1 1.5 1 1.5 2 3 2.1 0.7 2.1 0.7 4 1q0 0.5 0 1c-2.6 0-5.3 0-8 0-2.3-3.6-2.2-6.8-2-11z"/><path class="cp" d="m1717 377c3.9 1.6 6.3 4.1 9.3 7.1q1.3 1.4 2.7 2.8 1 1 2 2.1-1 1-2 2-0.5-1.5-1-3-1.5-0.5-3-1-2.6-2.4-5-5-0.9-0.8-1.8-1.7c-1.2-1.3-1.2-1.3-1.2-3.3z"/><path class="cq" d="m669 798c-1 3-1 3-3.7 4.6q-1.7 0.8-3.4 1.6-1.6 0.8-3.3 1.6-1.3 0.6-2.6 1.2-1-1-2-2 2.7-1.5 5.4-2.9 1.5-0.9 3-1.7c4.4-2.4 4.4-2.4 6.6-2.4z"/><path class="cr" d="m492 697q1 0.5 2 1 0 1 0 2c3 0.3 5.9 0.7 9 1q0 1.5 0 3 1 0.5 2 1c-5.8-0.5-10-2.2-15-5q1-0.5 2-1 0-1 0-2z"/><path class="cs" d="m390 679c4.5 1.3 8.3 3.2 12.4 5.6q1.6 1 3.2 1.9 1.2 0.8 2.4 1.5-1.5 1-3 2-1.1-0.9-2.2-1.9c-2.6-2.2-2.6-2.2-5.3-3-3.3-1.4-5.1-3.5-7.5-6.1z"/><path class="ct" d="m2048 680q2.5 0 5 0 0 0.5 0 1c2.6 0.3 5.3 0.7 8 1q0 0.5 0 1c-8.9 0-17.8 0-27 0q0-0.5 0-1c4.6-0.3 9.2-0.7 14-1q0-0.5 0-1z"/><path class="cu" d="m1541 669q0.5 0 1 0c0 4.3 0 8.6 0 13-4.3 0-8.6 0-13 0q0-0.5 0-1c3.3-0.3 6.6-0.7 10-1q0.2-2.2 0.4-4.4c0.5-4.3 0.5-4.3 1.6-6.6z"/><path class="Z" d="m2331 647c0.7 1.8 0.7 1.8 1 4q-1.5 1.5-3 3-1.5 3.5-3 7-1 1-2 2-0.5-1.5-1-3 1 0 2 0 0.2-1 0.3-2.1c1-4.3 2.6-7.8 5.7-10.9z"/><path class="cv" d="m206 506q1 1 2 2-0.8 0.6-1.7 1.2c-2.4 1.8-2.4 1.8-4.9 4.5-2.4 2.3-2.4 2.3-5.4 2.3 1.4-3.5 3.1-5.1 6.1-7.3q1.1-0.7 2.2-1.5 0.8-0.6 1.7-1.2z"/><path class="cw" d="m316 444c4 0 7.9 0 12 0q0 2.5 0 5c-5.2-1.1-7.6-1.7-12-5z"/><path class="cx" d="m2896 421q-2.9 2.3-5.9 4.5-0.8 0.6-1.7 1.3c-4.2 3.2-4.2 3.2-6.4 3.2q0-1 0-2 1 0 2 0 0.5-1.5 1-3 1.5 0 3 0 0-1 0-2 1 0 2 0 0-1 0-2c3-1 3-1 6 0z"/><path class="cy" d="m1381 379c4 1.3 6.4 3.1 9.3 6.1q1.1 1.1 2.1 2.2 0.8 0.8 1.6 1.7-0.5 1-1 2-0.9-1-1.8-1.9c-2.1-2.3-2.1-2.3-5.2-3.1q-0.5-1-1-2-1.5 0-3 0-0.5-2.5-1-5z"/><path class="cz" d="m1376.8 652.3q1.6 0.3 3.2 0.7c-2.5 3.1-5.2 3.9-9 5q-1-1-2-2c2.6-3.4 3.3-4 7.8-3.7z"/><path class="cA" d="m403 522c5.3 1.5 9.5 4 14 7q-0.5 1-1 2c-5-1.3-9.2-3.5-13-7q0-1 0-2z"/><path class="cB" d="m374 223q0 1.5 0 3-2.4 1.3-4.9 2.5c-1.3 0.7-1.3 0.7-2.7 1.4-2.4 1.1-2.4 1.1-4.4 1.1 1.2-3.7 2.1-3.9 5.4-5.7q1.2-0.6 2.5-1.3c2.1-1 2.1-1 4.1-1z"/><path class="cC" d="m475 165q0.5 1 1 2 1 0.5 2 1c-3.8 2.1-7.9 3.5-12 5q-1-1-2-2c3.6-2 7.3-4 11-6z"/><path class="cD" d="m311 759c2.4 0.4 2.4 0.4 5 1q0.5 1 1 2 2.5 1.6 5 3 1.5 1 3 2-0.5 1-1 2-3.3-1.9-6.5-3.9-0.9-0.5-1.9-1.1c-1.6-0.9-3.1-2-4.6-3q0-1 0-2z"/><path class="cE" d="m1633 615q1 0 2 0 0 1 0 2 1 0 2 0 0.6 1.4 1.3 2.8c1.5 3.1 1.5 3.1 3.4 5.5 1.3 1.7 1.3 1.7 1.3 3.7-3.9-1.3-4.5-3-6.7-6.4q-0.9-1.5-1.9-3c-1.4-2.6-1.4-2.6-1.4-4.6z"/><path class="cF" d="m2053 525c2.1 4.2 2.2 6.1 2.1 10.8q0 1.7 0 3.5c-0.1 1.3-0.1 1.3-0.1 2.7q-2.5 0-5 0 0.5-1 1-2 1 0 2 0c0-5 0-9.9 0-15z"/><path class="cG" d="m2774 472c1.5 1 1.5 1 3 2-0.7 3.6-1.3 7.3-2 11-2-2-2-2-2.2-5.9 0-2.8 0.3-4.4 1.2-7.1z"/><path class="cH" d="m2785 441c1.1 1.8 1.1 1.8 2 4-1.1 3.5-3.4 5.6-6 8 0.5-4.8 1.2-8 4-12z"/><path class="cI" d="m215 371q0 1 0 2 2 0 4 0c1.8 2.5 1.8 2.5 3 5q-1-0.4-2.1-0.9c-2.9-1.2-2.9-1.2-6.1-2-2.8-1.1-2.8-1.1-4.8-4.1 2.5-1.2 3.4-0.8 6 0z"/><path class="cJ" d="m2076 663q0.5 0 1 0 0 4.5 0.1 8.9 0 1.3 0 2.6 0 1.2 0 2.5 0 1.1 0 2.2c-0.1 1.8-0.1 1.8-1.1 2.8q-2.5 0.1-5 0 0.5-1.5 1-3 1.5-0.5 3-1c0.3-5 0.7-9.9 1-15z"/><path class="cK" d="m252 474q0.5 1.5 1 3-1.9 1.5-3.9 3c-1.1 0.8-1.1 0.8-2.2 1.7-1.9 1.3-1.9 1.3-3.9 1.3q0-1.5 0-3c2-1.6 2-1.6 4.5-3.2q1.2-0.8 2.5-1.6 1-0.6 2-1.2z"/><path class="cL" d="m2970 341q3.3 0.2 6.7 0.4 1.8 0.2 3.7 0.3c3 0.2 5.7 0.6 8.6 1.3q0 0.5 0 1c-6.3 0-12.5 0-19 0q0-1.5 0-3z"/><path class="cM" d="m1110 620q1.5 0 3 0 0.5 1.5 1 3 1.5 1 3 2 0 1 0 2 1 0 2 0-0.5 1.5-1 3-1.7-1.4-3.4-2.8c-1-0.7-1-0.7-2-1.5-1.8-1.9-2.2-3.1-2.6-5.7z"/><path class="cN" d="m2376 537q1 0 2 0 0 1 0 2-1 0-2 0 0.1 1.3 0.2 2.7c-0.2 3.7-1 5.4-3.2 8.3q-1 0-2 0c0.7-3.1 1.7-5.9 3.1-8.8q0.5-1.1 1.1-2.4 0.4-0.9 0.8-1.8z"/><path class="cO" d="m2397 492q1.5 0.5 3 1-0.6 2.2-1.3 4.4-0.4 1.3-0.8 2.5-0.4 1.1-0.9 2.1-1.5 0.5-3 1 0-2 0-4 1 0 2 0c0.3-2.3 0.7-4.6 1-7z"/><path class="cP" d="m2365 396q1 0.5 2 1c-1.8 7.6-1.8 7.6-4 11q-1 0-2 0c0.5-4.6 1.8-8 4-12z"/><path class="cQ" d="m2854 364q0.5 1 1 2 1.5 0.5 3 1c-3.3 1.3-6.6 2.6-10 4q-0.5-1.5-1-3c2.3-1.3 4.6-2.6 7-4z"/><path class="cR" d="m597 297c6.1 0.4 8.7 1.9 13 6-3 1-3 1-5.5-0.2q-1.3-0.8-2.7-1.7-1.3-0.8-2.7-1.7-1-0.7-2.1-1.4 0-0.5 0-1z"/><path class="cS" d="m387 217q-1.9 1.5-3.8 2.9-1 0.9-2.1 1.7c-2.1 1.4-3.6 2-6.1 2.4 1-3.2 2.6-4.6 5.4-6.3 3.6-1.7 3.6-1.7 6.6-0.7z"/><path class="cT" d="m544 150c5 0.5 8.6 1.6 13 4q-0.5 1.5-1 3c-4.7-1.8-8.2-3.6-12-7z"/><path class="cU" d="m507 871q0.5 1 1 2c1.1 0.2 1.1 0.2 2.1 0.4 3.9 0.8 6.5 2.6 9.9 4.6q0 1 0 2c-3.6-0.7-6.2-2.2-9.3-4.1q-1.3-0.8-2.7-1.6-1-0.7-2-1.3 0.5-1 1-2z"/><path class="cV" d="m634 814c2 1 2 1 4 4-5 2.5-5 2.5-10 5q0-1.5 0-3 0.9-0.1 1.9-0.2c2.4-0.6 2.4-0.6 3.4-3.4q0.3-1.2 0.7-2.4z"/><path class="cW" d="m2328 477q1.5 0.5 3 1c-1 3.8-1.8 6.7-4 10q-1 0-2 0c0.6-3.9 1.4-7.3 3-11z"/><path class="cX" d="m2853 468q1 0 2 0c-1 4.8-2 9.5-4 14q-0.5 0-1 0 0.2-2.7 0.4-5.3 0.1-1.5 0.2-3c0.4-2.7 0.4-2.7 2.4-5.7z"/><path class="cY" d="m1098 422q1.5 0 3 0-2 4-4 8-1 0-2 0 0 1.5 0 3-1 0-2 0c0.5-4.5 2.2-7.5 5-11z"/><path class="cZ" d="m2799 419q-0.5 3-1 6-1.5 0-3 0-0.5 2.5-1 5-0.5 0-1 0c1.1-11 1.1-11 6-11z"/><path class="d0" d="m1747 416c3.5 3.5 4.9 5.9 5.1 10.8q0 1.1-0.1 2.2-1.5 0-3 0c-0.7-4.3-1.3-8.6-2-13z"/><path class="d1" d="m326 252q0 1 0 2-2.7 1.5-5.4 3.1c-1.5 0.8-1.5 0.8-3 1.7q-1.3 0.6-2.6 1.2-1-0.5-2-1c3.2-3.6 5.2-5.5 10-6 1-1 1-1 3-1z"/><path class="d2" d="m331 772c6 1.6 10.8 4.8 16 8q-1.5 0.5-3 1c-2.3-1.2-4.5-2.4-6.7-3.9q-0.9-0.5-1.8-1.1-2.3-1.5-4.5-3 0-0.5 0-1z"/><path class="d3" d="m1466 679q0.5 1 1 2c3.5 1.2 7.1 1.3 10.8 1.6q1.7 0.1 3.5 0.2 1.3 0.1 2.7 0.2 0 0.5 0 1c-5.9 0-11.9 0-18 0q0-2.5 0-5z"/><path class="d4" d="m3129 550c1.3 3.7 0.8 6.5 0.1 10.3q-0.3 1.6-0.6 3.2-0.3 1.2-0.5 2.5-1 0-2 0c-1.2-4.1-0.8-6.1 1-10q1-3 2-6z"/><path class="d5" d="m2309 522q1.5 0 3 0c-1.9 4.8-1.9 4.8-3 7q-1 0-2 0-0.5 2.5-1 5c-0.9-2.5-1.1-3.6-0.2-6.1q0.5-1.1 1.1-2.2 0.6-1 1.2-2.1 0.4-0.8 0.9-1.6z"/><path class="d6" d="m2215 423c1.8 2.7 2.7 4.7 3.6 7.7q0.4 1.2 0.8 2.4 0.3 1 0.6 1.9-1 1-2 2c-1.5-3.4-2-5.2-2-9q-1 0-2 0 0.5-2.5 1-5z"/><path class="d7" d="m2372 386c1 3 1 3 0.3 4.9-1.9 3.6-3.7 7-6.3 10.1-0.6-2.9-0.6-2.9-1-6q1.7-1.7 3.5-3.4c1.6-1.7 2.5-3.4 3.5-5.6z"/><path class="d8" d="m2885 353c-2.4 2.4-3.8 2.5-7.1 3.1q-1.4 0.3-2.8 0.5-1 0.2-2.1 0.4 0-1 0-2c7.3-3.6 7.3-3.6 12-2z"/><path class="d9" d="m1293.5 341q1.4 0.1 2.9 0.3 1.5 0.1 3 0.2c2.6 0.5 2.6 0.5 5.6 2.5-3-0.5-3-0.5-6-1q0 1 0 2c-3.3-0.7-6.6-1.3-10-2 2-2 2-2 4.5-2z"/><path class="da" d="m548 269c4.8 1.4 8.7 3.4 13 6q0 1 0 2c-4.8-1.4-8.7-3.4-13-6q0-1 0-2z"/><path class="db" d="m610 184q2.4 0.6 4.9 1.3c1.3 0.3 1.3 0.3 2.7 0.7 2.4 1 2.4 1 3.7 3.1q0.4 0.9 0.7 1.9c-4.5-0.5-7.4-2.3-11-5q-0.5-1-1-2z"/><path class="dc" d="m206 685q0 3.5 0 7 0.4 2 1 4c-2-1.6-4-3.3-6-5 1.4-3.2 2-4 5-6z"/><path class="bG" d="m3103 611q0.5 1 1 2-1.4 3.5-3 7-2.5 0-5 0c4.1-6.4 4.1-6.4 7-9z"/><path class="dd" d="m1189 596c3.1 0.6 5.2 1.6 7.8 3.5q0.9 0.7 1.8 1.3c0.7 0.6 0.7 0.6 1.4 1.2q0 0.5 0 1c-2.1 0.4-2.1 0.4-5 0-2.3-2.1-4.1-4.5-6-7z"/><path class="de" d="m703 596c0.3 5.6 0.3 5.6-2 9q-1.5-0.5-3-1c1.1-8 1.1-8 5-8z"/><path class="df" d="m2873 586c3.4 1.4 5.5 3.3 8 6q-0.5 1.5-1 3-1.5-0.5-3-1 0-1.5 0-3-1.5 0-3 0-0.5-2.5-1-5z"/><path class="dg" d="m2445 378c0.8 1.6 0.8 1.6 1 4-1.1 2.5-2.5 4.7-4 7q-1-0.5-2-1c1.2-3.9 2.4-6.9 5-10z"/><path class="dh" d="m605 179c4 2 7.9 4 12 6-3.7 1.2-6.2 0.6-10 0q-1-3-2-6z"/><path class="di" d="m525 140q0 0.5 0 1c-2.3 0-4.6 0-7 0q0 1 0 2c-2.3 0.3-4.6 0.7-7 1 5.4-4.4 7-5.2 14-4z"/><path class="dj" d="m535 708c-5.5 3.8-9.3 4.5-16 4q0-0.5 0-1c2.3 0 4.6 0 7 0q0-1 0-2c5.6-2.1 5.6-2.1 9-1z"/><path class="dk" d="m1310.4 677.3q0.8 0.4 1.6 0.7 0 2 0 4-1.3-0.3-2.6-0.6c-3.7-0.4-6.7-0.1-10.4 0.6 7.7-5.2 7.7-5.2 11.4-4.7z"/><path class="dl" d="m1956.7 620.9c1.7 0 1.7 0 3.4 0 1.6 0.1 1.6 0.1 3.3 0.1q1.3 0 2.6 0-0.5 1-1 2c-2.2 0.5-2.2 0.5-4.9 0.8q-1.4 0.1-2.8 0.2c-2.3 0-2.3 0-4.3-2 1-1 1-1 3.7-1.1z"/><path class="dm" d="m1624 602c3.3 1.1 4.6 2.6 6.3 5.5 1.7 3.5 1.7 3.5 1.7 5.5q1 0.5 2 1c-2.8-0.4-3.8-0.8-5.7-3q-0.8-1.2-1.5-2.4c-0.8-1.2-0.8-1.2-1.6-2.5-1.2-2.1-1.2-2.1-1.2-4.1z"/><path class="dn" d="m2413 450q2.5 0 5 0 0.5 1 1 2-1 1-2 2-1-0.5-2-1-0.5 1.5-1 3-1.5 0-3 0 1-3 2-6z"/><path class="x" d="m2420 441q0.5 0 1 0c0.2 3.3 0.3 5.4-1.3 8.4-1.7 1.6-1.7 1.6-4.7 1.6 1.3-3.6 2.9-6.8 5-10z"/><path class="do" d="m2187 359c3 1 3 1 4.3 3.3 0.7 2.8 0.7 4-0.3 6.7-2.8-3.2-3.5-5.8-4-10z"/><path class="dp" d="m3037 360c4.6 0.5 8 1.8 12 4q0 0.5 0 1c-4.9 0.3-7.8-0.6-12-3q0-1 0-2z"/><path class="dq" d="m572.3 723.3q0.8 0.4 1.7 0.7-2.4 1.5-4.8 3.1c-1.4 0.8-1.4 0.8-2.7 1.7-2.5 1.2-2.5 1.2-5.5 0.2q2.1-1.6 4.3-3.1 1.1-0.8 2.3-1.7c2.4-1.2 2.4-1.2 4.7-0.9z"/><path class="dr" d="m3000 681q0 1 0 2c-4.5 0.5-4.5 0.5-9 1q0-1.5 0-3c3.3-1.1 5.6-0.8 9 0z"/><path class="ds" d="m1722 546q1 1.5 2 3c-2.3 2-4.6 4-7 6q-0.5-1-1-2c2-2.3 4-4.6 6-7z"/><path class="dt" d="m521 458q1 0.5 2 1c0.8 2.9 0.8 2.9 1 6q-1 1-2 2c-0.6 2.6-0.6 2.6-1 5q-0.5 0-1 0c-0.2-9.4-0.2-9.4 1-14z"/><path class="du" d="m1091 434q1 0 2 0c-0.3 2.3-0.7 4.6-1 7q-1.5 0.5-3 1-0.5 1-1 2c0.5-3.7 1.1-6.7 3-10z"/><path class="dv" d="m3022 432c3.5 1.5 5.6 3.4 8.3 6.1q1 1.1 2.1 2.2c0.8 0.9 0.8 0.9 1.6 1.7q-0.5 1.5-1 3-2.8-3-5.5-5.9c-0.8-0.9-0.8-0.9-1.6-1.7-3.9-4.3-3.9-4.3-3.9-5.4z"/><path class="dw" d="m729 366q-0.5 1-1 2c-3.4 0.2-3.4 0.2-7 0q-1-1.5-2-3c3.8-1.5 6.3-0.4 10 1z"/><path class="dx" d="m656.4 327.2q0.8 0.4 1.6 0.8c-1.8 0.6-1.8 0.6-4 1q-1.5-1-3-2-1.5-0.2-3.1-0.5-1.4-0.2-2.9-0.5-0.5-1-1-2c4.7-1.6 8.1 1.1 12.4 3.2z"/><path class="dy" d="m549 741q-2.2 1.5-4.3 2.9-1.2 0.9-2.4 1.7c-2.3 1.4-2.3 1.4-5.3 2.4 1.2-3.5 1.9-3.9 4.9-5.8q1-0.6 2.1-1.3c2-0.9 2-0.9 5 0.1z"/><path class="dz" d="m1694 589q1 0 2 0c1.3 1.6 1.3 1.6 2.7 3.8q0.7 1.1 1.4 2.2c0.9 2 0.9 2-0.1 5q-1.5-1.9-3-3.8-0.8-1.1-1.7-2.2c-1.3-2-1.3-2-1.3-5z"/><path class="dA" d="m610 558c-2.5 1.2-4.2 1.2-7 1.2-1.3 0-1.3 0-2.7 0-2.3-0.2-2.3-0.2-4.3-2.2q2.7-0.3 5.3-0.6 1.5-0.2 3-0.4c2.7 0 2.7 0 5.7 2z"/><path class="dB" d="m2209 414c2.8 1 3.8 1.7 5.3 4.4 0.7 2.6 0.7 2.6 0.7 6.6q-1 0-2 0-1-2.2-2-4.4-0.6-1.2-1.1-2.4c-0.9-2.2-0.9-2.2-0.9-4.2z"/><path class="dC" d="m3083 393c3.9 1.3 5.8 2.5 8 6q-2.5 0.5-5 1c-3-4.8-3-4.8-3-7z"/><path class="dD" d="m2109 370c1 0.5 1 0.5 2 1q0 1.5 0 3 1.5 0.5 3 1 0.5 3 1 6-1 0-2 0-1-1.9-2-3.8-0.6-1.1-1.1-2.2c-0.9-2-0.9-2-0.9-5z"/><path class="dE" d="m1325 350c3.7 0.5 6.7 1.1 10 3q0 1 0 2-2.2-0.4-4.4-0.8-1.3-0.2-2.5-0.5-1.1-0.3-2.1-0.7-0.5-1.5-1-3z"/><path class="dF" d="m1194 351c-1 1.5-1 1.5-2 3-3.6 0.2-3.6 0.2-7 0q0-1 0-2c3.4-1.6 5.4-2.3 9-1z"/><path class="dG" d="m1311 345c4.5 1 4.5 1 9 2q0 1.5 0 3c-4.5-1-4.5-1-9-2q0-1.5 0-3z"/><path class="dH" d="m588 842q2.5 0 5 0c-2.1 2.4-3.5 3.8-6.6 4.9q-1.2 0-2.4 0.1-1-1-2-2 3-0.5 6-1 0-1 0-2z"/><path class="dI" d="m418 824c5.2 0.5 8.8 3.2 13 6-3 1-3 1-5.5-0.2q-1.3-0.8-2.7-1.7-1.3-0.8-2.7-1.7-1-0.7-2.1-1.4 0-0.5 0-1z"/><path class="dJ" d="m2319 675c1.2 2.5 1.1 4.3 1 7-1 1-1 1-3.6 1.1q-1.2-0.1-2.4-0.1c1.7-2.6 3.3-5.3 5-8z"/><path class="dK" d="m1756 676q1 0.5 2 1 0 1.5 0 3 1.5 0.5 3 1 0 0.5 0 1c-3-0.3-5.9-0.7-9-1 1.3-1.6 2.6-3.3 4-5z"/><path class="dL" d="m1303 615c-5.7 3.7-5.7 3.7-9 4q-1-1-2-2 1.9-0.8 3.8-1.6 1.1-0.4 2.2-0.8c2-0.6 2-0.6 5 0.4z"/><path class="dM" d="m288 581c3.9 0.6 6.8 1.7 10 4q0 1 0 2c-4-0.6-6.8-2.7-10-5q0-0.5 0-1z"/><path class="dN" d="m3130 472c1.7 3 2.3 5.4 2.6 8.8q0.1 1.1 0.3 2.4c0 0.9 0 0.9 0.1 1.8q-1 0-2 0-0.5-2.1-1.1-4.3-0.3-1.1-0.6-2.3c-0.3-2.5-0.1-4.1 0.7-6.4z"/><path class="dO" d="m1168 362c-4.8 3.9-4.8 3.9-7 5q-1-0.5-2-1c1-3 1-3 2.8-4.3 2.5-0.8 3.7-0.6 6.2 0.3z"/><path class="dP" d="m2893 349q-0.5 1.5-1 3c-6.1 1-6.1 1-8 1q-1-1-2-2 2.2-0.8 4.4-1.6 1.2-0.4 2.4-0.8c2.2-0.6 2.2-0.6 4.2 0.4z"/><path class="dQ" d="m1225 343c-1 1.5-1 1.5-2 3-3.1 0.2-3.1 0.2-6 0q0-1.5 0-3c3.1-1 4.9-1 8 0z"/><path class="dR" d="m312 259q0 1 0 2c-5.3 4-5.3 4-9 4 1-2.5 1.7-3.8 3.9-5.3 2.1-0.7 2.1-0.7 5.1-0.7z"/><path class="dS" d="m768 744c-5 2.5-5 2.5-10 5q-0.5-1.5-1-3c6.5-3.1 6.5-3.1 11-2z"/><path class="dT" d="m604 704c-1 3-1 3-4 5q-2 0-4 0c1-3 1-3 2.9-4.2 2.1-0.8 2.1-0.8 5.1-0.8z"/><path class="dU" d="m1830 680q1-0.5 2-1 0 1 0 2c2.6 0 5.3 0 8 0q0 0.5 0 1c-5 0-9.9 0-15 0q0-1 0-2c2-1 2-1 5 0z"/><path class="dV" d="m730 631c-1.6 1.6-3.3 3.3-5 5q-1.5-1-3-2c4.1-4.3 4.1-4.3 8-3z"/><path class="dW" d="m2362 581c-0.6 5.5-0.6 5.5-2.6 7.9q-0.7 0.5-1.4 1.1c-0.1-6.2-0.1-6.2 0-8 1-1 1-1 4-1z"/><path class="dX" d="m1077 548q1.5 0 3 0c0 2.6 0 5.3 0 8q-1.5-0.5-3-1c0-2.3 0-4.6 0-7z"/><path class="dY" d="m1319 506q1.5 0 3 0-0.5 2-1 4 1.5 0.5 3 1-2 2-4 4c-1.5-3-1.1-5.7-1-9z"/><path class="dZ" d="m287 457q0 1 0 2c-6.4 2.2-6.4 2.2-9.4 1.1q-0.8-0.5-1.6-1.1c3.8-1.8 6.8-2.2 11-2z"/><path class="e0" d="m2415 453q1 0 2 0c-0.7 4.4-2.2 8-4 12-1.4-4.3 0-8 2-12z"/><path class="e1" d="m3120 445q1 0 2 0c3.4 7.3 3.4 7.3 3 12q-0.5-1.5-1-3-1 0-2 0c-0.7-3-1.3-5.9-2-9z"/><path class="e2" d="m2907 415c-7.3 4.6-7.3 4.6-12 4 2.1-4.2 7.7-5.9 12-4z"/><path class="e3" d="m2804 409q1 0.5 2 1-0.7 0.9-1.4 1.8c-1.5 2.1-2.1 3.6-2.6 6.2q-1.5 0-3 0c0.6-3.9 2.5-6.1 5-9z"/><path class="e4" d="m2815 396q1 0.5 2 1c-1.3 2.5-1.3 2.5-3 5q-1.5 0-3 0-1 2-2 4-0.5-1.5-1-3c2.3-2.3 4.6-4.6 7-7z"/><path class="e5" d="m1710 375c2.3 0 4.6 0 7 0 1 2 1 2 0 5-1.9-0.3-1.9-0.3-4-1q-0.5-1.5-1-3-1-0.5-2-1z"/><path class="e6" d="m601 834q1 1.5 2 3c-2.8 2.1-2.8 2.1-6 4q-1.5-0.5-3-1c1.3-1.5 1.3-1.5 3-3q1.5 0 3 0 0.5-1.5 1-3z"/><path class="e7" d="m656 673c-4.4 4-4.4 4-6 5q-1.5-0.5-3-1c5.1-5.3 5.1-5.3 9-4z"/><path class="e8" d="m2827 644c4.8 0.9 4.8 0.9 7 2 0.6 2.1 0.6 2.1 1 4-3.9-1.3-5.8-2.5-8-6z"/><path class="e9" d="m1120 633q2 0 4 0 0 1 0 2 1 0 2 0 0 1 0 2 1 0 2 0-0.5 1.5-1 3-1.8-1.5-3.5-2.9-1-0.9-2-1.7-0.7-0.7-1.5-1.4 0-0.5 0-1z"/><path class="ea" d="m326 603c3 1.4 5.4 3 8 5q-0.5 1-1 2c-2.6-1.6-5.3-3.3-8-5q0.5-1 1-2z"/><path class="eb" d="m1162 557c3.1 2.5 3.9 5.2 5 9q-1 1-2 2c-3-6.5-3-6.5-3-11z"/><path class="ec" d="m1649 414c4 0.6 6.7 1.8 10 4q-0.5 1.5-1 3-1.1-0.9-2.3-1.9c-2.2-1.7-4.1-3-6.7-4.1q0-0.5 0-1z"/><path class="ed" d="m2836 376q0 1.5 0 3-2.9 2.6-6 5-0.5 1-1 2-1-0.5-2-1 1.7-2 3.4-3.9 0.9-1.1 1.9-2.3c1.7-1.8 1.7-1.8 3.7-2.8z"/><path class="ee" d="m1633 347c5.2-0.1 9.9 0.2 15 1q0 0.5 0 1-2.6 0.4-5.3 0.7c-1.4 0.2-1.4 0.2-2.9 0.4-3.3-0.1-4.4-0.9-6.8-3.1z"/><path class="ef" d="m735 251c4 2 4 2 8 4q-0.5 1.5-1 3c-2.9-1.3-5-2.6-7-5q0-1 0-2z"/><path class="eg" d="m2985 684q0 1 0 2c-6.6 0.3-6.6 0.3-10-2 3.8-2.6 5.9-1.7 10 0z"/><path class="eh" d="m442 670c4 2 4 2 8 4q-0.5 1-1 2c-2.9-0.8-2.9-0.8-6-2q-0.5-2-1-4z"/><path class="ei" d="m365 664c3.8 1.1 6.5 1.9 9 5-3.4-0.3-3.4-0.3-7-1-1.4-2.1-1.4-2.1-2-4z"/><path class="ej" d="m328 642c3.9 0.6 6.8 1.6 10 4q0 1.5 0 3c-3-1-3-1-5-3q-2.5-2-5-4z"/><path class="ek" d="m1893 620q1.5 0.5 3 1 0 1 0 2c4 0 7.9 0 12 0q0 0.5 0 1c-6.4 0.5-6.4 0.5-13 1q-1-2.5-2-5z"/><path class="el" d="m1080 553q0.5 0 1 0c1.4 6.4 1.4 6.4-0.4 9.4q-0.8 0.8-1.6 1.6c-0.3-2.6-0.7-5.3-1-8q1 0 2 0 0-1.5 0-3z"/><path class="em" d="m521 492q0.5 0 1 0c0 2.6 0 5.3 0 8q1 0 2 0-0.5 2.5-1 5-1 0-2 0c0-4.3 0-8.6 0-13z"/><path class="en" d="m1358 432q1.5 0.5 3 1c-2.3 2.3-4.6 4.6-7 7q-0.5-1.5-1-3c1.7-1.6 3.3-3.3 5-5z"/><path class="eo" d="m2875 433q1 0.5 2 1c-0.4 2.9-0.8 3.8-3.1 5.8q-0.9 0.6-1.9 1.2c-0.4-4.6-0.4-4.6 1.5-6.8q0.7-0.6 1.5-1.2z"/><path class="ep" d="m3101 412c1.7 1.6 3.3 3.3 5 5q-0.5 1.5-1 3 0-1 0-2c-2.2-0.2-2.2-0.2-4 2q-0.6-3.5-1-7 0.5-0.5 1-1z"/><path class="eq" d="m1741 408q2 0.5 4 1 0.5 2 1 4-1.5-0.5-3-1 0 1 0 2-1 0-2 0 0-3 0-6z"/><path class="er" d="m1731 391c3.9 2.6 3.9 4.6 5 9q-1 0-2 0-0.4-1-0.9-1.9c-0.9-2.3-0.9-2.3-3.1-3.1q0.5-2 1-4z"/><path class="es" d="m765 342c-1.2 1.5-1.2 1.5-3 3-2.7 0.2-2.7 0.2-5 0q0.5-1.5 1-3c3.1-1 4-0.9 7 0z"/><path class="et" d="m808 312q2 0.5 4 1-0.5 1.5-1 3-2.5 0.5-5 1 0-1.5 0-3 1 0 2 0 0-1 0-2z"/><path class="eu" d="m537 265c5.4-0.4 5.4-0.4 8.4 1.5q0.8 0.7 1.6 1.5c-1.6 0.7-1.6 0.7-4 1-3.3-1.4-3.3-1.4-6-3q0-0.5 0-1z"/><path class="ev" d="m297 750c3.1 1.3 3.1 1.3 6 3q0.5 1.5 1 3c-3.5-1.2-6.1-2.7-9-5q1-0.5 2-1z"/><path class="X" d="m2062 680c2.6 0 5.3 0 8 0-1 1.5-1 1.5-2 3-3.1 0.2-3.1 0.2-6 0q0-1.5 0-3z"/><path class="ew" d="m1323 677q0 1 0 2c-3 0.7-5.9 1.3-9 2q0-1.5 0-3c3.1-0.5 5.9-1 9-1z"/><path class="ex" d="m1743 656c3.4 1.4 5 3 7 6q-2 0.5-4 1-0.5-2.5-1-5-1 0-2 0 0-1 0-2z"/><path class="ey" d="m302 589q1.5 0 3 0 0 1 0 2 1.5 0 3 0 0 1 0 2 1.5 0.5 3 1-1.5 0.5-3 1c-3.2-1.8-3.2-1.8-6-4q0-1 0-2z"/><path class="ez" d="m2869 580c2 1.6 4 3.3 6 5q-0.5 1.5-1 3c-3-1-3-1-4.2-2.9-0.8-2.1-0.8-2.1-0.8-5.1z"/><path class="eA" d="m2192 566q1 0 2 0 0 1 0 2 1 0 2 0c0 2.3 0 4.6 0 7-2.5-2.9-3.5-5.2-4-9z"/><path class="eB" d="m3128 563c1.5 3.8 0.4 6.3-1 10-1.6-1.3-1.6-1.3-3-3 0.3-2.2 0.3-2.2 1-4q1.5 0 3 0 0-1.5 0-3z"/><path class="eC" d="m522 537c1 0.5 1 0.5 2 1q0.6 3.5 1 7-1.5 0.5-3 1c0-3 0-5.9 0-9z"/><path class="eD" d="m1167 455c0.8 1.6 0.8 1.6 1 4-1.1 2.5-2.5 4.7-4 7-0.8-1.6-0.8-1.6-1-4 1.1-2.5 2.5-4.7 4-7z"/><path class="eE" d="m1281 340c6.1-0.2 6.1-0.2 8 0q1 1 2 2c-4 0.8-7 1.1-11 0q0.5-1 1-2z"/><path class="eF" d="m492 282q0 1 0 2c-4 2-4 2-8 4q0-1.5 0-3 1.5 0 3 0 0-1 0-2c2-1 2-1 5-1z"/><path class="eG" d="m223 676q1 0.5 2 1-1.9 1.2-3.8 2.4c-1.1 0.7-1.1 0.7-2.2 1.4-2 1.2-2 1.2-5 2.2 1-3 1-3 2.8-4.2q1-0.5 2.1-1 1.1-0.6 2.2-1.1 0.9-0.4 1.9-0.7z"/><path class="eH" d="m583 677q2 0 4 0 0 1 0 2c-5.2 3.2-5.2 3.2-7 4q-1.5-0.5-3-1 1.2-0.7 2.4-1.4c2.7-1.3 2.7-1.3 3.6-3.6z"/><path class="eI" d="m3061 654q1 1 2 2c-3 1.6-5.9 3.3-9 5q0-1.5 0-3c2.3-1.3 4.6-2.6 7-4z"/><path class="eJ" d="m708 640c2.7-0.3 2.7-0.3 5 0-1.7 2.8-2.5 3.9-5.7 4.8-1.1 0.1-1.1 0.1-2.3 0.2 1.2-2.5 1.2-2.5 3-5z"/><path class="eK" d="m3092 625q1.5 0 3 0c-1.5 3.8-3.8 5.6-7 8q1-2.5 2-5 1 0 2 0 0-1.5 0-3z"/><path class="eL" d="m1317 605q1 0.5 2 1-0.5 2-1 4-2.5 0.5-5 1c1.2-2.5 2-4 4-6z"/><path class="eM" d="m210 529c1.9 0.3 1.9 0.3 4 1q1 1.5 2 3-1 1-2 2-2.1-1.9-4-4 0-1 0-2z"/><path class="eN" d="m1318 419q2 0.5 4 1 0 1 0 2 2 0.5 4 1 0 1 0 2c-3-1.1-5.3-2.2-8-4q0-1 0-2z"/><path class="I" d="m1304 411c1.9 0.8 1.9 0.8 4 2q0.5 1.5 1 3c-5.8-0.8-5.8-0.8-8-3q1.5-1 3-2z"/><path class="eO" d="m1122 393c-0.3 1.9-0.3 1.9-1 4q-1.5 0.5-3 1-0.5 1-1 2-0.5-1.5-1-3c3.8-4 3.8-4 6-4z"/><path class="eP" d="m1130 383q1.5 0.5 3 1c-1.4 1.5-1.4 1.5-3 3q-1 0-2 0-1 2-2 4c0-3.9 1.5-5.1 4-8z"/><path class="eQ" d="m2192 367c2.4 2.4 2.5 3.8 3 7q-2-0.5-4-1-0.1-2.5 0-5 0.5-0.5 1-1z"/><path class="eR" d="m1184 353q0.5 1.5 1 3c-3.4 0.6-3.4 0.6-7 1q-1-1-2-2c2.9-1.3 4.8-2 8-2z"/><path class="eS" d="m692 348c1.9 0.3 1.9 0.3 4 1 1.3 2.1 1.3 2.1 2 4q-3-1-6-2 0-1.5 0-3z"/><path class="cq" d="m777 334c-1.3 1.5-1.3 1.5-3 3q-2 0-4 0c1.5-4.5 2.9-4.2 7-3z"/><path class="eT" d="m576 283q0.5 1 1 2 2 0 4 0 0 1 0 2 1.5 0.5 3 1c-6.5-0.6-6.5-0.6-8.9-2.6q-0.6-0.7-1.1-1.4 1-0.5 2-1z"/><path class="eU" d="m296 270c-2.5 2.5-4.7 3-8 4q0-1.5 0-3c2.7-1.4 5-1.1 8-1z"/><path class="eV" d="m491 863c2 0.7 4 1.3 6 2q0 1.5 0 3c-2-0.7-4-1.3-6-2q0-1.5 0-3z"/><path class="eW" d="m807 720c-3 1.6-5.9 3.3-9 5 2.4-4.7 3.8-6.7 9-5z"/><path class="eX" d="m813 712q0.5 1.5 1 3c-2 2-2 2-4.6 2.1q-1.2 0-2.4-0.1c3.7-3.9 3.7-3.9 6-5z"/><path class="eY" d="m1818 676q1.5 0.5 3 1 0.5 2.5 1 5-2 0-4 0 0-3 0-6z"/><path class="eZ" d="m1158 662c4.2 0.5 6.8 1.2 10 4-3 1-3 1-4.8 0.2q-2.6-1.6-5.2-3.2 0-0.5 0-1z"/><path class="f0" d="m677 658q1 0.5 2 1c-1.6 1.3-3.3 2.6-5 4q-0.5-1.5-1-3c1.9-1.1 1.9-1.1 4-2zm-7 5q2 0.5 4 1-2 0.5-4 1 0-1 0-2z"/><path class="f1" d="m1656 649c2 1 4 2 6 3q-0.5 2-1 4-2.6-2.4-5-5 0-1 0-2z"/><path class="f2" d="m277 645q0.5 1.5 1 3-1 0-2 0 0 1 0 2c-2 1-2 1-4 2q-0.5-1.5-1-3c2-1.3 4-2.6 6-4z"/><path class="f3" d="m335 610c3 1 5.9 2 9 3q0 1 0 2c-4.3-0.5-6.2-1.7-9-5z"/><path class="f4" d="m3004 610c-3 2-5.6 2.9-9 4q0-1.5 0-3c3-1.5 5.7-1.1 9-1z"/><path class="f5" d="m697 604q1.5 0.5 3 1c-1.4 3.2-2 4-5 6 0.9-4.8 0.9-4.8 2-7z"/><path class="f6" d="m2789 593c2.6 2.3 2.6 2.3 5 5-0.2 2.3-0.2 2.3-1 4-4-6.8-4-6.8-4-9z"/><path class="f7" d="m2284 575q1 0.5 2 1c-1 2-2 4-3 6q-1-0.5-2-1 0-2 0-4 1.5 0 3 0 0-1 0-2z"/><path class="f8" d="m2863 571c2.7 2.5 4.6 4.6 6 8q-2 0-4 0c-0.7-2.6-1.3-5.3-2-8z"/><path class="f9" d="m521 533q1 0 2 0 0.5 2.5 1 5-0.5 0-1 0-0.5 3-1 6-0.5 0-1 0c0-3.6 0-7.3 0-11z"/><path class="fa" d="m1660 506c0 3.5-0.8 4.4-3 7q-2-0.5-4-1c2.3-2 4.6-4 7-6z"/><path class="fb" d="m2391 503c1.5 1 1.5 1 3 2q-0.5 2.5-1 5-1 0-2 0-0.6-3-1-6 0.5-0.5 1-1z"/><path class="fc" d="m2411 457c0.8 1.6 0.8 1.6 1 4-1.9 3.3-1.9 3.3-4 6q-0.5-1-1-2c2.5-6.5 2.5-6.5 4-8z"/><path class="fd" d="m1172 447c0.8 1.8 0.8 1.8 1 4-1.9 2.3-1.9 2.3-4 4 0.8-5.8 0.8-5.8 3-8z"/><path class="fe" d="m1206 421c-2.8 2.1-2.8 2.1-6 4q-1.5-0.5-3-1c2-3 2-3 3.9-3.8 2.1-0.2 2.1-0.2 5.1 0.8z"/><path class="ff" d="m277 419c2.9 0.2 2.9 0.2 6 1 1.4 2.6 1.4 2.6 2 5q-2-1.2-4-2.4-1.1-0.7-2.3-1.4-0.8-0.6-1.7-1.2 0-0.5 0-1z"/><path class="fg" d="m1126 386c0 3.6-1.1 5.1-3 8q-1.5-1-3-2c2-2 4-4 6-6z"/><path class="fh" d="m735 358q2.5 0.5 5 1c-1.6 1.3-3.3 2.6-5 4q-1.5-1-3-2 1 0 2 0 0.5-1.5 1-3z"/><path class="fi" d="m2462 347c-0.7 2.3-1.3 4.6-2 7q-1.5-0.5-3-1c1.2-6 1.2-6 5-6z"/><path class="fj" d="m217 317q2 0.5 4 1c-2.4 2.9-4.3 3.5-8 4 1.3-1.6 2.6-3.3 4-5z"/><path class="fk" d="m516 271c-4 2-4 2-8 4q0-1.5 0-3c4.6-2.1 4.6-2.1 8-1z"/><path class="fl" d="m729 249c2.4 0.3 2.4 0.3 5 1 1.3 2.1 1.3 2.1 2 4-3-0.6-4.4-1.3-7-3q0-1 0-2z"/><path class="fm" d="m748.6 751.9q1.7 0.1 3.4 0.1c-4.8 4-4.8 4-7 4q-0.5-1.5-1-3c1-1 1-1 4.6-1.1z"/><path class="fn" d="m770 737q1 0.5 2 1c-1.3 2.5-1.3 2.5-3 5q-2 0-4 0 0-1 0-2 1.5 0 3 0 1-2 2-4z"/><path class="fo" d="m487 694c2.5 1 2.5 1 5 2q0 1.5 0 3c-2.4-0.4-2.4-0.4-5-1q-0.5-1-1-2 0.5-1 1-2z"/><path class="fp" d="m1681 680c4.5 1 4.5 1 9 2q0 0.5 0 1c-3 0-5.9 0-9 0q0-1.5 0-3z"/><path class="fq" d="m374 670c3.7 0.5 5.6 1.1 8 4-1 0.5-1 0.5-2 1q-3-2-6-4 0-0.5 0-1z"/><path class="fr" d="m244 667c-2.1 2.2-3 3-6 4q-1-1-2-2c3.2-2.2 4.3-2.2 8-2z"/><path class="fs" d="m301 628c2.9-0.2 2.9-0.2 6 0q1 1.5 2 3c-3-0.3-5.9-0.7-9-1q0.5-1 1-2z"/><path class="ft" d="m1614 588c2.5 0.5 2.5 0.5 5 1q-0.5 2-1 4c-2-1.4-2-1.4-4-3q0-1 0-2z"/><path class="dD" d="m258 561c3.3 0.3 4 1 6.3 3.6q0.8 1.2 1.7 2.4c-3-1.1-5.3-2.2-8-4q0-1 0-2z"/><path class="fu" d="m2268 548c1.5 1.2 1.5 1.2 3 3 0.2 2.7 0.2 2.7 0 5q-1.5-1-3-2c-0.2-3.1-0.2-3.1 0-6z"/><path class="fv" d="m195 516q1 0 2 0 0.5 2 1 4 1 0 2 0 0 1 0 2-2-0.5-4-1-0.5-2.5-1-5z"/><path class="fw" d="m3113 429c2.3 2.9 3.8 5.5 5 9q-1 0-2 0-0.2-1-0.3-1.9-0.4-1.1-0.7-2.1-1.5-0.5-3-1 0.5-2 1-4z"/><path class="fx" d="m1105 412q1 0.5 2 1c-1.7 2.3-3.3 4.6-5 7q-0.5-1.5-1-3c1.9-2.7 1.9-2.7 4-5z"/><path class="fy" d="m1302 411q-0.5 1.5-1 3c-2.3-0.7-4.6-1.3-7-2 3.1-1.9 4.6-2.2 8-1z"/><path class="fz" d="m784 331c-2.3 1.3-4.6 2.6-7 4q-0.5-1.5-1-3c3.1-1.9 4.6-2.2 8-1z"/><path class="fA" d="m823 305q1.5 0.5 3 1c-1 3-1 3-3.1 4.2q-0.9 0.4-1.9 0.8-0.5-1.5-1-3 1.5-0.5 3-1 0-1 0-2z"/></svg>